<svg width="186" height="186" viewBox="0 0 186 186" fill="none" xmlns="http://www.w3.org/2000/svg">
<circle cx="93" cy="93" r="93" fill="#F6F8FD"/>
<g clip-path="url(#clip0)">
<path fill-rule="evenodd" clip-rule="evenodd" d="M31.6244 43.532L43.1086 48.4019L50.9819 64.0399L52.3122 66.9078L56.3303 66.0961L64.6652 64.6622L70.6923 66.5019L73.2986 68.0982L74.7104 78.5145L76.2851 81.7611L80.086 85.7383L81.6606 86.6311L85.19 80.5978L91.9231 69.2345L92.7647 67.5842L102.511 67.0701L108.566 66.3667C108.566 66.3667 112.231 65.7173 112.774 64.581C113.317 63.4447 116.629 58.3854 116.629 58.3854L121.407 51.1345L125.887 47.5903L129.633 44.2084L130.312 43.9108C130.312 43.9108 131.86 45.2365 133.271 44.9118C134.656 44.5871 136.095 43.3426 136.339 42.9097C136.557 42.5039 138.077 37.688 138.403 36.1729C138.729 34.6578 139.081 28.9762 139.081 28.9762L137.697 23.5652C137.697 23.5652 135.389 16.2332 135.308 15.0969C135.226 13.9605 134.005 9.22586 134.005 9.22586L132.484 1.05516C132.484 1.05516 134.167 2.21854 134.357 2.43498C134.548 2.65142 140.113 10.0916 140.113 10.0916L145.516 19.2634L148.394 26.9741L150.077 35.2801L150.62 44.2895L149.751 53.8401L146.52 64.8786L142.611 72.6976L136.937 82.9786L130.312 94.2336L125.751 104.433L123.145 115.851L122.005 127.755C122.005 127.755 120.403 132.517 119.887 133.22C119.371 133.924 116.575 136.738 116.575 136.738L114.973 137.82L107.697 139.362L94.0407 139.524L79.7873 139.66C79.7873 139.66 71.914 139.01 71.2353 138.848C70.5566 138.686 65.6697 137.495 64.095 135.926C62.5204 134.357 60.0226 130.19 59.6697 127.809C59.3167 125.428 59.2624 119.016 59.2624 119.016C59.2624 119.016 58.1222 112.171 57.552 109.899C56.9547 107.653 54.7014 100.754 54.0769 99.3741C53.4525 97.9943 50.4932 91.7445 49.9502 91.1493C49.4072 90.5541 44.4118 81.1118 43.3529 80.2731C42.2941 79.4344 37 68.3147 36.4299 66.9348C35.8597 65.555 33.0633 57.9795 33.1991 57.6007C33.3348 57.1949 31.4072 48.1314 31.3529 47.5903C31.2986 47.0492 31.3529 43.3967 31.6244 43.532Z" fill="white"/>
<path opacity="0.18" fill-rule="evenodd" clip-rule="evenodd" d="M64.0407 66.7454C64.0407 66.7454 65.0724 75.1055 67.4887 83.8714C67.9774 85.63 68.3303 87.4157 68.466 89.2284C68.7647 93.1244 68.2217 97.4262 62.0588 86.7934C60.1312 83.4656 55.9774 74.5103 55.8416 65.7714L60.1584 64.9057L63.6335 64.9598C63.6335 64.9327 64.3394 64.6892 64.0407 66.7454Z" fill="#E8E9EA"/>
<path opacity="0.33" fill-rule="evenodd" clip-rule="evenodd" d="M65.9412 66.7454C65.9412 66.7454 66.9728 75.1055 69.3891 83.8714C69.8778 85.63 70.2308 87.4157 70.3665 89.2284C70.6651 93.1244 70.1222 97.4262 63.9593 86.7934C62.0317 83.4656 57.8778 74.5103 57.7421 65.7714L62.0588 64.9057L65.5339 64.9598C65.5339 64.9327 66.2398 64.6892 65.9412 66.7454Z" fill="#E8E9EA"/>
<path opacity="0.19" fill-rule="evenodd" clip-rule="evenodd" d="M134.303 10.5245C134.33 10.7139 134.412 10.9033 134.52 11.0927C135.878 13.2301 144.864 28.841 144.321 44.5601C143.724 61.7673 136.91 69.9921 135.09 73.9692C133.271 77.9463 121.597 94.7206 120.213 106.246C118.828 117.772 119.344 125.915 117.715 129.162C116.086 132.409 112.611 135.06 108.186 135.304C108.158 135.304 108.131 135.304 108.077 135.304C107.262 135.412 96.1041 136.873 70.3665 135.385C70.3122 135.385 70.2579 135.385 70.2308 135.358C65.5611 134.708 61.7873 131.272 61.4344 125.347C61.0814 119.395 61.6244 111.278 54.1041 95.0453C46.5837 78.8121 39.009 68.3417 36.0769 58.5747C33.905 51.2969 33.6878 47.5091 33.7421 45.6423C33.7692 44.9389 33.2805 44.3166 32.5747 44.1543C31.8145 43.9649 31.2715 44.4519 31.3529 45.2365C31.8145 49.3489 33.009 58.6559 34.8009 62.7413C37.19 68.2064 42.6199 79.4344 45.1991 82.8163C47.7783 86.1982 52.6109 95.8028 53.0181 97.3721C53.4253 98.9413 57.4434 108.275 58.0407 113.47C58.5294 117.528 58.9638 119.07 59.1267 119.557C59.181 119.693 59.2081 119.855 59.2081 119.99C59.2353 121.424 59.4796 128.675 61.0814 131.272C62.8733 134.167 64.7194 137.468 68.6561 138.361C72.5928 139.254 86.2489 139.2 86.2489 139.2L99.6878 139.47C100.367 139.47 101.48 139.47 102.158 139.443C108.701 139.145 111.742 138.767 112.991 138.577C114.783 138.307 116.439 137.549 118.801 136.007C119.371 135.655 121.76 132.706 121.977 128.404C122.113 125.997 122.873 118.178 123.063 117.285C123.253 116.392 124.095 109.709 125.425 106.111C126.647 102.837 130.312 93.6925 134.982 86.4417C139.081 80.1108 140.167 77.4323 140.357 76.8641C140.385 76.783 140.439 76.7018 140.466 76.6206C141.253 75.2949 147.606 64.6351 148.149 60.4686C148.149 60.4145 148.176 60.3604 148.176 60.3063C148.367 59.5217 149.86 53.6777 150.104 51.6756C150.348 49.5383 150.81 39.636 150.104 35.3342C149.398 31.0324 147.552 23.1864 146.222 20.8326C144.973 18.6141 140.52 10.9033 140.005 9.98341C139.977 9.9293 139.923 9.87519 139.896 9.82108L135.525 4.19358C131.29 -1.37981 133.217 3.89597 133.407 5.11346L134.303 10.5245Z" fill="#0B8CAD"/>
<path opacity="0.08" fill-rule="evenodd" clip-rule="evenodd" d="M135.552 40.5018C135.552 40.5018 139.597 50.5123 134.357 60.9827C129.118 71.4531 128.032 71.4801 128.032 71.4801C128.032 71.4801 128.385 64.2293 128.032 60.0898C127.679 55.9504 126.403 50.891 124.855 47.6444C124.855 47.6444 125.914 45.8858 127.109 45.48C128.466 45.02 132.186 44.2084 132.186 44.2084C132.186 44.2084 135.335 41.7463 135.552 40.5018Z" fill="#E5E5E5"/>
<path opacity="0.3" d="M121.136 128.404C121.136 128.404 120.864 137.468 111.362 137.766" stroke="#0B8CAD" stroke-width="1.5" stroke-linecap="round"/>
<path opacity="0.2" fill-rule="evenodd" clip-rule="evenodd" d="M136.638 40.5018C136.638 40.5018 140.683 50.5123 135.443 60.9827C130.204 71.4531 129.118 71.4801 129.118 71.4801C129.118 71.4801 129.471 64.2293 129.118 60.0898C128.765 55.9504 127.489 50.891 125.941 47.6444C125.941 47.6444 127 45.8858 128.195 45.48C129.552 45.02 133.271 44.2084 133.271 44.2084C133.271 44.2084 136.421 41.7463 136.638 40.5018Z" fill="#E5E5E5"/>
<g clip-path="url(#clip1)">
<path d="M65.8054 137.116C59.8326 131.922 59.5882 127.025 59.3982 121.451C59.3439 119.287 59.0995 117.122 58.6923 114.985C56.4661 103.432 53.8326 98.1025 49.8959 90.9058C48.2398 87.8756 46.4751 84.9537 44.6018 82.0587C32.0045 62.6601 31.2172 48.1043 31.2715 44.2625C31.2715 43.7755 31.7873 43.4508 32.2217 43.6402L43.3258 48.3478C43.7059 48.5102 44.0045 48.8078 44.1674 49.1595L52.0679 66.0961C52.2579 66.5019 52.7195 66.7454 53.1538 66.6372L63.8507 64.4998C64.0679 64.4457 64.2579 64.4457 64.4751 64.4998L67.8145 65.1492C68.3846 65.2574 68.9547 64.8786 69.0905 64.3105L69.6606 61.6049C69.7421 61.2262 69.9864 60.9285 70.3394 60.7662L88.638 52.5685C89.2081 52.325 89.6425 51.838 89.8054 51.2157L94.6109 34.4143C94.7195 33.9815 94.9638 33.6297 95.3167 33.3321L111.226 19.8045C111.715 19.3716 112.502 19.5069 112.828 20.075L122.493 36.4706C122.792 36.9575 123.443 37.0928 123.878 36.7141C126.593 34.5496 135.063 27.7587 137.534 25.4861C137.968 25.0803 138.131 24.458 137.941 23.9169C134.629 14.1229 132.62 1.13632 132.457 0.10822C132.457 0.0811649 132.484 0.0811649 132.484 0.10822C138.294 6.6556 140.222 9.09058 144.104 16.2061C146.195 20.048 147.715 24.1874 148.882 28.4081C153.172 43.9919 148.882 57.709 148.231 60.2522C148.068 60.8744 147.579 62.2272 147.389 62.8224C145.652 67.9359 133.271 89.3637 132.348 90.8517" stroke="#353D47" stroke-width="1.08"/>
<path d="M65.8054 137.116C59.8326 131.922 59.5882 127.025 59.3982 121.451C59.3439 119.287 59.0995 117.122 58.6923 114.985C56.4661 103.432 53.8326 98.1025 49.8959 90.9058C48.2398 87.8756 46.4751 84.9537 44.6018 82.0587C32.0045 62.6601 31.2172 48.1043 31.2715 44.2625C31.2715 43.7755 31.7873 43.4508 32.2217 43.6402L43.3258 48.3478C43.7059 48.5102 44.0045 48.8078 44.1674 49.1595L52.0679 66.0961C52.2579 66.5019 52.7195 66.7454 53.1538 66.6372L63.8507 64.4998C64.0679 64.4457 64.2579 64.4457 64.4751 64.4998L67.8145 65.1492C68.3846 65.2574 68.9547 64.8786 69.0905 64.3105L69.6606 61.6049C69.7421 61.2262 69.9864 60.9285 70.3394 60.7662L88.638 52.5685C89.2081 52.325 89.6425 51.838 89.8054 51.2157L94.6109 34.4143C94.7195 33.9815 94.9638 33.6297 95.3167 33.3321L111.226 19.8045C111.715 19.3716 112.502 19.5069 112.828 20.075L122.493 36.4706C122.792 36.9575 123.443 37.0928 123.878 36.7141C126.593 34.5496 135.063 27.7587 137.534 25.4861C137.968 25.0803 138.131 24.458 137.941 23.9169C134.629 14.1229 132.62 1.13632 132.457 0.10822C132.457 0.0811649 132.484 0.0811649 132.484 0.10822C138.294 6.6556 140.222 9.09058 144.104 16.2061C146.195 20.048 147.715 24.1874 148.882 28.4081C153.172 43.9919 148.882 57.709 148.231 60.2522C148.068 60.8744 147.579 62.2272 147.389 62.8224C145.652 67.9359 133.271 89.3637 132.348 90.8517" stroke="#333435" stroke-width="1.5" stroke-linecap="round"/>
</g>
<path d="M68.7104 65.2574L73.8688 67.3407C74.1946 67.4759 74.4389 67.7735 74.4932 68.1253L76.1493 79.0827C76.2308 79.5697 76.4208 80.0025 76.7466 80.3813L80.6018 84.9266C81.362 85.8194 82.7738 85.6842 83.3711 84.6831L92.9005 68.2064C93.1177 67.8547 93.4706 67.6112 93.8778 67.5842L110.113 66.3126C110.113 66.3126 112.394 66.2314 114.593 62.0378C115.896 59.5758 118.176 56.0045 119.833 53.4883C121.081 51.5945 122.629 49.89 124.394 48.4561L128.683 44.993C129.281 44.506 130.041 44.2895 130.801 44.3707C132.186 44.506 134.548 44.3707 136.041 42.0981C136.367 41.6111 136.584 41.0429 136.665 40.4747L138.077 32.1688C138.213 31.3842 138.213 30.5996 138.104 29.815L138.05 24.5392" stroke="#333435" stroke-width="1.5"/>
<path fill-rule="evenodd" clip-rule="evenodd" d="M112.91 64.2022C112.665 64.4999 112.611 64.9057 112.719 65.2845C113.072 66.5019 114.023 69.7756 114.158 71.1013C114.321 72.5623 114.62 78.6768 114.701 79.9755C114.701 80.1378 114.729 80.3001 114.756 80.4625L116.412 89.4448C116.412 89.4448 114.919 79.0827 114.973 78.7851C115.027 78.4874 120.158 80.6248 120.158 80.6248L115.733 78.6498C115.136 78.3792 114.756 77.8111 114.729 77.1888C114.647 74.9432 114.484 69.8027 114.484 69.6133C114.484 69.3698 113.588 65.1492 113.317 64.3646C113.235 63.9317 113.072 64.0129 112.91 64.2022Z" fill="#333435"/>
<path opacity="0.31" fill-rule="evenodd" clip-rule="evenodd" d="M113.181 63.9317C112.937 64.2293 112.882 64.6351 112.991 65.0139C113.344 66.2314 114.294 69.5051 114.43 70.8308C114.593 72.2918 114.729 78.2169 114.973 79.7049C115 79.8673 115 80.0296 115.027 80.1919L116.683 89.1743C116.683 89.1743 115.054 78.758 115.109 78.4333C115.244 78.4063 120.186 80.5978 120.186 80.5978L116.032 78.3522C115.434 78.0816 115.054 77.5134 115.027 76.8912C114.946 74.6456 114.783 69.5051 114.783 69.3157C114.783 69.0722 113.887 64.8516 113.615 64.067C113.507 63.6611 113.344 63.7423 113.181 63.9317Z" fill="#0B8CAD"/>
<path fill-rule="evenodd" clip-rule="evenodd" d="M53.3711 67.2054L52.7466 72.6435C52.7195 72.7788 52.7466 72.914 52.8009 73.0493C53.0181 73.5904 53.6154 75.1596 53.8869 76.1607C53.9412 76.296 53.724 76.3771 53.6425 76.2419C53.2353 75.4572 52.638 74.2127 52.3665 73.6445C52.2579 73.4281 52.0679 73.3199 51.8507 73.3199H50.3303C50.1674 73.3199 50.1131 73.0764 50.276 73.0223L51.2806 72.6705C51.552 72.5623 51.7692 72.3188 51.7964 72.0212L52.2851 66.8807C52.3122 66.6102 52.5566 66.4208 52.8281 66.4478L52.9638 66.7184C53.2353 66.7454 53.3982 66.9619 53.3711 67.2054Z" fill="#333435"/>
<path opacity="0.15" fill-rule="evenodd" clip-rule="evenodd" d="M53.2082 67.503L52.448 72.9141C52.4208 73.0493 52.448 73.1846 52.5023 73.3199C52.6923 73.861 53.4525 75.322 53.724 76.3501C53.7511 76.4854 53.5068 76.6206 53.4525 76.4854C53.0724 75.7007 52.3394 74.5103 52.095 73.9151C52.0136 73.6987 51.7964 73.5634 51.5792 73.5634L50.086 73.6716C49.9231 73.6716 50.0588 73.2117 50.2217 73.1576L51.0362 72.887C51.3349 72.8058 51.5249 72.5353 51.5792 72.2377L52.095 66.7184C52.1222 66.4478 52.4751 66.6372 52.7466 66.6643L52.8552 66.9619C53.0724 67.0431 53.2625 67.2595 53.2082 67.503Z" fill="#6F7175"/>
<path fill-rule="evenodd" clip-rule="evenodd" d="M82.6651 85.5489L78.4298 97.5344C78.4298 97.5614 78.3755 97.5614 78.3755 97.5344L80.9819 85.9547C81.009 85.7653 81.1448 85.603 81.3348 85.5489L82.2851 85.2242C82.5294 85.116 82.7194 85.3324 82.6651 85.5489Z" fill="#333435"/>
<path opacity="0.22" fill-rule="evenodd" clip-rule="evenodd" d="M81.6335 85.4136L78.3484 97.6967C78.3484 97.7238 78.2941 97.7238 78.2941 97.6967L79.9774 85.9277C80.0045 85.7383 80.1131 85.5759 80.3032 85.4948L81.2263 85.0889C81.4706 84.9807 81.6878 85.1701 81.6335 85.4136Z" fill="#0B8CAD"/>
<path fill-rule="evenodd" clip-rule="evenodd" d="M94.8281 179.106H93.8778C93.7421 179.106 93.6335 178.998 93.6335 178.863C93.6335 178.727 93.7421 178.619 93.8778 178.619H94.8281C94.9638 178.619 95.0724 178.727 95.0724 178.863C95.0724 178.998 94.9638 179.106 94.8281 179.106Z" fill="white"/>
<path fill-rule="evenodd" clip-rule="evenodd" d="M104.113 49.4571C104.113 49.4571 106.557 51.2157 111.335 50.2958C111.878 50.0794 112.828 50.0794 112.909 50.3499C112.991 50.6205 111.308 56.8161 111.308 57.0867H110.276L107.29 66.0149H105.932C105.932 66.0149 110.819 52.4332 111.09 50.8099C111.145 50.7558 107.29 51.4321 103.842 49.917C103.842 49.8359 103.842 49.2948 104.113 49.4571Z" fill="#9AAAC1"/>
<path opacity="0.29" fill-rule="evenodd" clip-rule="evenodd" d="M104.928 49.1865C104.928 49.1865 107.371 50.9451 112.149 50.0253C112.692 49.8088 113.643 49.8088 113.724 50.0794C113.805 50.3499 112.122 56.5456 112.122 56.8161H111.09L108.104 65.7444H106.747C106.747 65.7444 111.633 52.1626 111.905 50.5393C111.959 50.4852 108.104 51.1616 104.656 49.6465C104.656 49.5653 104.656 49.0242 104.928 49.1865Z" fill="#9AAAC1"/>
<path opacity="0.48" fill-rule="evenodd" clip-rule="evenodd" d="M106.285 68.1794C106.285 68.1794 99.7692 89.1472 99.4163 90.5812C99.0633 92.0151 99.0633 98.806 100.312 107.572C101.045 114.146 100.502 134.357 100.855 135.087C101.208 135.818 99.6606 110.44 99.1991 108.221C98.7375 105.976 97.5158 94.2877 98.3846 90.8517C99.2534 87.4157 104.71 69.965 104.71 69.965L105.335 68.1794H106.285V68.1794Z" fill="#B4C1DB"/>
<path opacity="0.12" fill-rule="evenodd" clip-rule="evenodd" d="M107.371 68.1794C107.371 68.1794 100.855 89.1472 100.502 90.5812C100.149 92.0151 100.149 98.806 101.398 107.572C102.131 114.146 101.588 134.357 101.941 135.087C102.294 135.818 100.747 110.44 100.285 108.221C99.8235 105.976 98.6018 94.2877 99.4706 90.8517C100.339 87.4157 105.796 69.965 105.796 69.965L106.421 68.1794H107.371V68.1794Z" fill="#0B8CAD"/>
<path opacity="0.48" fill-rule="evenodd" clip-rule="evenodd" d="M81.552 89.2825C82.0407 90.9599 82.2308 96.7227 81.9864 99.32C81.7421 101.944 81.4163 104.001 80.9004 109.249C80.3846 114.471 81.0633 132.706 81.0633 132.706C81.0633 132.706 81.3891 115.174 81.5249 113.849C81.6606 112.55 83.0724 100.186 83.2353 96.858C83.4253 93.5302 82.4751 87.7945 82.4751 87.7945L82.2851 86.4958L81.552 89.2825Z" fill="#B4C1DB"/>
<path opacity="0.46" d="M97.1086 68.9369C97.1086 68.9369 95.2624 74.0233 93.905 74.0233" stroke="#142A51" stroke-width="0.54"/>
<path opacity="0.3" d="M79.9502 43.1803C79.9502 43.1803 79.5158 47.1033 79.8416 48.2667C80.1946 49.403 83.6968 65.5009 83.8326 65.6903C83.9412 65.8526 85.2715 70.0732 86.4932 72.2377C86.9276 72.9952 87.6335 73.5904 88.4751 73.8339C88.8823 73.9692 89.5339 73.9692 89.5339 73.9692" stroke="#0B8CAD" stroke-width="0.5"/>
<path opacity="0.3" d="M102.05 43.1532C102.05 43.1532 102.593 48.429 100.149 56.735C98.6018 63.4988 97.7873 66.7454 97.7873 66.7454" stroke="#0B8CAD" stroke-width="0.5"/>
<path opacity="0.19" d="M102.593 43.1532C102.593 43.1532 103.136 48.429 100.692 56.735C99.1448 63.4988 98.3303 66.7454 98.3303 66.7454" stroke="#0B8CAD" stroke-width="0.54"/>
<ellipse opacity="0.22" cx="100.502" cy="47.5632" rx="1.27602" ry="1.2716" stroke="#0B8CAD" stroke-width="0.54"/>
<ellipse opacity="0.22" cx="80.3032" cy="47.5632" rx="1.27602" ry="1.2716" stroke="#0B8CAD" stroke-width="0.54"/>
<path d="M88.7466 72.3188L84.4299 72.4812C84.0769 72.4812 83.8054 72.7788 83.8054 73.1305V73.6445C83.8054 73.9963 84.1041 74.2939 84.457 74.2939H86.6561" stroke="#0B8CAD" stroke-width="0.5"/>
<path d="M88.5023 72.5894L84.3756 72.7247C84.0498 72.7247 83.7783 72.9411 83.7783 73.2117V73.5904C83.7783 73.861 84.0498 74.0774 84.3756 74.0774H86.4932" stroke="#1951FC" stroke-opacity="0.31" stroke-width="0.5"/>
<path opacity="0.22" d="M90.8643 72.1836C90.8643 72.1836 94.448 72.2377 95.9412 72.4271C96.2941 72.4812 96.5656 72.7788 96.5656 73.1305V73.5093C96.5656 73.861 96.2941 74.1586 95.914 74.1856L93.7964 74.2939" stroke="#142A51" stroke-width="0.5"/>
<path opacity="0.22" d="M93.0362 74.2668C93.0362 74.2668 92.4932 78.1898 92.6833 84.629C92.9548 90.7164 92.5475 92.4209 95.0181 93.909" stroke="#142A51" stroke-width="0.5"/>
<path opacity="0.28" d="M93.3077 74.2668C93.3077 74.2668 92.7647 78.1898 92.9547 84.629C93.2262 90.7164 92.819 92.4209 95.2896 93.909" stroke="#0B8CAD" stroke-width="0.5"/>
<path d="M93.8507 75.7819C93.8507 75.7819 93.3077 79.4073 93.4977 85.3324C93.7692 90.9599 93.362 92.5021 95.8326 93.8819" stroke="white" stroke-width="0.5"/>
<path opacity="0.22" d="M88.3665 76.2148C88.3665 76.2148 88.638 89.2825 88.3665 90.5541C88.095 91.8257 87.0905 93.9901 84.8371 94.6124" stroke="#142A51" stroke-width="0.5"/>
<path opacity="0.28" d="M88.095 76.2148C88.095 76.2148 88.3665 89.2825 88.095 90.5541C87.8235 91.8257 86.819 93.9901 84.5656 94.6124" stroke="#0B8CAD" stroke-width="0.5"/>
<path d="M87.552 78.6227C87.552 78.6227 87.8235 89.9859 87.552 91.0952C87.2805 92.2045 86.276 94.0713 84.0226 94.6124" stroke="white" stroke-width="0.5"/>
<ellipse opacity="0.14" cx="91.3258" cy="107.815" rx="3.58371" ry="3.5713" stroke="#142A51" stroke-width="0.5"/>
<path opacity="0.14" d="M95.4253 110.196C95.4253 110.196 94.0679 111.468 93.8507 116.419C93.6335 121.37 93.8507 127.052 93.8507 127.052" stroke="#142A51" stroke-width="0.5"/>
<path opacity="0.14" d="M86.1946 110.927C86.1946 110.927 87.905 112.739 87.7421 115.364C87.552 117.988 87.7421 125.997 87.7421 125.997" stroke="#142A51" stroke-width="0.5"/>
<path fill-rule="evenodd" clip-rule="evenodd" d="M101.072 140.077H80.4932C80.3032 140.077 80.1403 139.84 80.1403 139.564V139.09C80.1403 138.814 80.3032 138.577 80.4932 138.577H101.072C101.262 138.577 101.425 138.814 101.425 139.09V139.564C101.425 139.84 101.29 140.077 101.072 140.077Z" fill="#333435"/>
<path fill-rule="evenodd" clip-rule="evenodd" d="M104.005 140.077H102.348C102.158 140.077 101.995 139.84 101.995 139.564V139.09C101.995 138.814 102.158 138.577 102.348 138.577H104.005C104.195 138.577 104.357 138.814 104.357 139.09V139.564C104.385 139.84 104.222 140.077 104.005 140.077Z" fill="#333435"/>
<path opacity="0.26" fill-rule="evenodd" clip-rule="evenodd" d="M101.072 138.523H80.4932C80.3032 138.523 80.1403 138.361 80.1403 138.171V137.847C80.1403 137.657 80.3032 137.495 80.4932 137.495H101.072C101.262 137.495 101.425 137.657 101.425 137.847V138.171C101.425 138.361 101.29 138.523 101.072 138.523Z" fill="#0B8CAD"/>
<path opacity="0.26" fill-rule="evenodd" clip-rule="evenodd" d="M104.005 138.523H102.348C102.158 138.523 101.995 138.361 101.995 138.171V137.847C101.995 137.657 102.158 137.495 102.348 137.495H104.005C104.195 137.495 104.357 137.657 104.357 137.847V138.171C104.385 138.361 104.222 138.523 104.005 138.523Z" fill="#0B8CAD"/>
<path fill-rule="evenodd" clip-rule="evenodd" d="M73.8688 143.123H112.231C113.154 143.123 114.05 143.393 114.756 143.934C115.597 144.584 116.439 145.72 116.33 147.668C116.195 150.076 114.511 151.05 113.262 151.456C113.018 151.537 113.018 151.888 113.262 151.97C114.566 152.403 116.33 153.539 116.33 156.434C116.33 158.788 114.81 159.897 113.615 160.384C113.181 160.573 113.154 161.141 113.534 161.385C114.783 162.115 116.466 163.576 116.303 166.147C116.222 167.364 115.706 168.311 115.054 169.014C113.995 170.124 112.502 170.719 110.955 170.719H74.5204C73 170.719 71.5339 170.043 70.638 168.798C70.095 168.041 69.6878 167.012 69.7692 165.633C69.905 163.008 71.6697 161.926 72.8643 161.466C73.1901 161.358 73.1901 160.898 72.8914 160.763C71.6154 160.167 69.7421 158.815 69.7421 156.163C69.7421 153.755 71.3711 152.646 72.6742 152.159C73.0543 152.024 73.0543 151.483 72.6742 151.347C71.2896 150.779 69.4977 149.535 69.7421 146.694C69.905 142.825 73.8688 143.123 73.8688 143.123Z" fill="#0B8CAD" stroke="#333435" stroke-width="1.5"/>
<path opacity="0.17" fill-rule="evenodd" clip-rule="evenodd" d="M75.6301 143.664H111.744C111.744 143.664 114.996 144.34 114.786 147.993C114.681 150.103 113.343 151.05 112.242 151.483C111.927 151.591 111.927 152.051 112.216 152.186C113.37 152.646 114.786 153.755 114.786 156.326C114.786 158.517 113.422 159.572 112.321 160.059C111.901 160.249 111.875 160.817 112.268 161.06C113.422 161.764 114.917 163.171 114.786 165.551C114.655 167.797 112.95 169.015 111.901 169.556C111.455 169.772 110.983 169.907 110.485 169.907H75.0794C75.0794 169.907 71.6175 168.852 71.8273 165.064C71.9585 162.657 73.5058 161.601 74.6073 161.168C74.922 161.033 74.9483 160.573 74.6335 160.411C73.4796 159.816 71.8011 158.544 71.8273 156.082C71.8273 153.62 73.5845 152.592 74.8171 152.186C75.0794 152.105 75.0794 151.699 74.8171 151.618C73.5058 151.131 71.5913 149.941 71.8273 147.073C71.9585 143.42 75.6301 143.664 75.6301 143.664V143.664Z" stroke="#1D2128" stroke-width="1.5"/>
<path fill-rule="evenodd" clip-rule="evenodd" d="M79.7873 173.154H106.584C107.018 173.154 107.235 173.641 106.991 173.993C105.416 175.914 100.855 180.54 93.0905 180.784C85.6244 180.784 80.9819 175.968 79.4073 173.993C79.1086 173.641 79.353 173.154 79.7873 173.154Z" fill="#0B8CAD" stroke="#333435" stroke-width="1.5"/>
<path opacity="0.26" fill-rule="evenodd" clip-rule="evenodd" d="M105.824 173.776C106.231 173.776 106.448 173.209 106.176 173.48C104.71 175.13 100.502 179.08 93.2805 179.297C86.3575 179.297 82.0407 175.184 80.6018 173.48C80.3575 173.182 80.5747 173.776 80.9819 173.776H105.824Z" fill="#0B8CAD" stroke="#333435" stroke-width="1.5"/>
<path fill-rule="evenodd" clip-rule="evenodd" d="M108.077 153.701H79.733C78.3756 153.701 77.2896 152.619 77.2896 151.266V150.969C77.2896 149.616 78.3756 148.534 79.733 148.534H108.077C109.434 148.534 110.52 149.616 110.52 150.969V151.266C110.52 152.619 109.434 153.701 108.077 153.701Z" fill="white"/>
<path fill-rule="evenodd" clip-rule="evenodd" d="M101.371 164.145H79.7602C78.4027 164.145 77.3167 163.062 77.3167 161.71V161.412C77.3167 160.059 78.4027 158.977 79.7602 158.977H101.371C102.729 158.977 103.814 160.059 103.814 161.412V161.71C103.814 163.035 102.701 164.145 101.371 164.145Z" fill="white"/>
<path opacity="0.31" fill-rule="evenodd" clip-rule="evenodd" d="M101.697 165.699H79.2443C78.9728 165.699 78.7556 165.365 78.7556 164.949C78.7556 164.532 78.9728 164.199 79.2443 164.199H101.697C101.968 164.199 102.186 164.532 102.186 164.949C102.186 165.365 101.968 165.699 101.697 165.699Z" fill="#2D2D2D"/>
<path opacity="0.31" fill-rule="evenodd" clip-rule="evenodd" d="M108.376 155.147H79.2715C79 155.147 78.7828 154.814 78.7828 154.397C78.7828 153.98 79 153.647 79.2715 153.647H108.376C108.647 153.647 108.864 153.98 108.864 154.397C108.864 154.814 108.62 155.147 108.376 155.147Z" fill="#2D2D2D"/>
<path d="M111.362 145.152C111.362 145.152 112.719 145.639 112.584 147.587" stroke="white" stroke-width="1.5" stroke-linecap="round"/>
<path d="M112.557 166.958C112.557 166.958 112.285 168.365 110.303 168.5" stroke="white" stroke-width="1.5" stroke-linecap="round"/>
<path d="M102.154 175.428C102.154 175.428 99.8462 177.403 95.7466 178.052" stroke="white" stroke-width="1.5" stroke-linecap="round"/>
<path d="M121.95 128.404C121.95 128.404 121.652 138.253 111.362 138.577" stroke="#333435" stroke-width="1.5" stroke-linecap="round"/>
<path opacity="0.28" d="M69.1176 64.3105L74.6561 66.4478C74.6561 66.4478 75.5792 68.4499 75.6878 70.5873C75.7964 72.7247 76.8281 79.1368 76.8281 79.1368L81.5249 84.5478C81.5249 84.5478 82.5294 85.3595 83.5611 82.8433C84.5928 80.3272 91.7873 68.1523 91.7873 68.1523C91.7873 68.1523 92.5204 66.4749 94.6923 66.7184L109.896 65.4468C109.896 65.4468 111.226 65.9338 112.937 63.2824C114.647 60.6309 117.824 54.5435 120.891 50.4311C124.394 46.7516 128.575 43.8566 128.575 43.8566C128.575 43.8566 129.878 43.1262 131.643 43.4508C133.543 43.559 135.172 41.8004 135.389 41.3405C135.824 40.3665 137.154 32.1417 137.154 32.1417C137.154 32.1417 137.127 28.4892 136.692 26.7306" stroke="#0B8CAD" stroke-width="1.08"/>
<path opacity="0.3" d="M133.299 1.89388C133.299 1.89388 143.208 12.6619 147.036 25.2426C147.172 25.6484 147.308 26.0543 147.443 26.4601C151.434 37.661 149.778 48.3208 149.452 50.2417L149.398 50.7016C149.344 51.0263 149.317 51.1886 149.29 51.5133C149.154 53.9753 147.742 62.4166 143.561 69.2616C143.29 69.6945 143.018 70.1544 142.774 70.6144C138.104 79.3532 131.914 90.3106 131.914 90.3106" stroke="#0B8CAD" stroke-width="1.08"/>
<path opacity="0.28" d="M69.8778 64.9327L70.6923 61.9567L88.7195 53.7589C88.7195 53.7589 90.1855 53.2178 90.8371 51.1886C91.5158 49.1595 95.371 34.8202 95.371 34.8202C95.371 34.8202 95.724 34.0085 96.6742 33.251C97.6244 32.4934 111.199 20.8055 111.199 20.8055C111.199 20.8055 112.014 20.1833 112.367 21.1573C112.719 22.1312 121.597 36.5788 121.597 36.5788C121.597 36.5788 122.765 38.4185 124.122 37.7963C125.48 37.174 136.339 27.6505 136.339 27.6505" stroke="#0B8CAD" stroke-width="1.08"/>
<path opacity="0.46" d="M96.5656 68.9369C96.5656 68.9369 94.7195 74.0233 93.362 74.0233" stroke="#142A51" stroke-opacity="0.24" stroke-width="0.54"/>
<path opacity="0.5" fill-rule="evenodd" clip-rule="evenodd" d="M118.828 90.2836C118.828 90.2836 115.434 98.346 115.326 101.647C115.353 104.975 115.326 112.739 115.326 112.739C115.326 112.739 114.62 101.376 114.837 99.4282C115.054 97.5614 116.303 93.909 118.828 90.2836Z" fill="#E5E5E5"/>
<path opacity="0.12" fill-rule="evenodd" clip-rule="evenodd" d="M119.643 90.2836C119.643 90.2836 116.249 98.346 116.14 101.647C116.167 104.975 116.14 112.739 116.14 112.739C116.14 112.739 115.434 101.376 115.652 99.4282C115.869 97.5614 117.118 93.909 119.643 90.2836Z" fill="#0B8CAD"/>
<path opacity="0.47" fill-rule="evenodd" clip-rule="evenodd" d="M143.127 48.8619C143.127 48.8619 142.122 63.1471 131.072 78.9474C120.05 94.7747 139.326 69.0722 143.127 48.8619Z" fill="#E8E9EA"/>
<path opacity="0.35" fill-rule="evenodd" clip-rule="evenodd" d="M61.2172 121.127C61.2172 121.127 59.7511 133.653 69.9864 135.249C70.4208 135.493 60.7014 133.112 61.2172 121.127Z" fill="#0B8CAD"/>
<path opacity="0.22" fill-rule="evenodd" clip-rule="evenodd" d="M61.7602 120.856C61.7602 120.856 60.2941 133.383 70.5294 134.979C70.9638 135.222 61.2444 132.842 61.7602 120.856Z" fill="#0B8CAD"/>
<path fill-rule="evenodd" clip-rule="evenodd" d="M81.4977 84.9266C81.3348 84.8725 78.0498 74.8079 78.0498 74.8079L74.3032 63.2012L71.6697 54.8952L70.7466 52.1356C70.7466 52.1356 74.6833 52.0273 77.724 49.2677C78.5928 48.5372 78.7014 47.9961 78.7014 47.9961C78.7014 47.9961 76.0136 51.6756 70.7466 51.7568C70.5837 51.6215 70.0136 49.3759 69.0362 50.1876C68.819 50.864 69.3891 54.2459 69.9321 55.3552C70.4751 56.4644 70.5294 57.1408 70.5294 57.1408H71.4253C71.4253 57.1408 72.8643 62.0108 73.1358 62.7142C73.4072 63.4176 76.3394 72.5894 76.5023 72.9682C76.6652 73.3469 79.8688 83.141 79.9502 83.3574C80.0317 83.4927 80.4661 83.9797 80.629 84.2232" fill="#9AAAC1"/>
<path opacity="0.12" fill-rule="evenodd" clip-rule="evenodd" d="M82.7738 85.1431C82.6109 85.0889 79.2172 74.9703 79.2172 74.9703L75.3348 63.3094L72.6199 54.9764L71.6697 52.1897C71.6697 52.1897 76.3394 51.378 78.2398 48.916C78.4299 48.7266 78.5928 48.1314 78.5928 48.1314C78.5928 48.1314 76.7738 51.2698 71.6425 51.7568C71.4796 51.6215 70.8824 49.3759 69.905 50.1876C69.6878 50.864 70.3122 54.2729 70.8552 55.3822C71.3982 56.4915 71.4796 57.1679 71.4796 57.1679H72.3756C72.3756 57.1679 73.8688 62.0649 74.1403 62.7683C74.4118 63.4718 77.4253 72.6976 77.6154 73.0493C77.7783 73.4281 81.0634 83.2492 81.172 83.4656C81.2534 83.6009 81.6878 84.0879 81.8507 84.3314" fill="#0B8CAD"/>
<path opacity="0.22" d="M79.4072 43.1803C79.4072 43.1803 78.9729 47.1033 79.2987 48.2667C79.6516 49.403 83.1539 65.5009 83.2896 65.6903C83.3982 65.8526 84.7285 70.0732 85.9502 72.2377C86.3846 72.9952 87.0905 73.5904 87.9321 73.8339C88.3394 73.9692 88.991 73.9692 88.991 73.9692" stroke="#0B8CAD" stroke-width="0.54"/>
<path opacity="0.22" d="M79.9502 48.8348C79.9502 48.8348 88.638 52.2167 89.0452 52.2708C89.4525 52.325 93.3348 52.812 93.3348 52.812" stroke="#0B8CAD" stroke-width="0.54"/>
</g>
<defs>
<clipPath id="clip0">
<rect width="120" height="181" fill="white" transform="translate(31)"/>
</clipPath>
<clipPath id="clip1">
<rect width="120" height="138" fill="white" transform="translate(31)"/>
</clipPath>
</defs>
</svg>
