<svg width="1440" height="945" viewBox="0 0 1440 945" fill="none" xmlns="http://www.w3.org/2000/svg">
<path opacity="0.02" d="M510.75 12.846C511.523 12.3995 512.477 12.3995 513.25 12.846L741.871 144.84C742.645 145.287 743.121 146.112 743.121 147.006V410.994C743.121 411.888 742.645 412.713 741.871 413.16L513.25 545.154C512.477 545.601 511.523 545.601 510.75 545.154L282.129 413.16C281.355 412.713 280.879 411.888 280.879 410.994V147.006C280.879 146.112 281.355 145.287 282.129 144.84L276.879 135.747L282.129 144.84L510.75 12.846Z" stroke="url(#paint0_linear)" stroke-width="21"/>
<path opacity="0.02" d="M1031.75 399.846C1032.52 399.399 1033.48 399.399 1034.25 399.846L1262.87 531.84C1263.64 532.287 1264.12 533.112 1264.12 534.006V797.994C1264.12 798.888 1263.64 799.713 1262.87 800.16L1034.25 932.154C1033.48 932.601 1032.52 932.601 1031.75 932.154L803.129 800.16C802.355 799.713 801.879 798.888 801.879 797.994V534.006C801.879 533.112 802.355 532.287 803.129 531.84L797.879 522.747L803.129 531.84L1031.75 399.846Z" stroke="url(#paint1_linear)" stroke-width="21"/>
<path opacity="0.02" d="M20.75 150.846C21.5235 150.399 22.4765 150.399 23.25 150.846L251.871 282.84C252.645 283.287 253.121 284.112 253.121 285.006V548.994C253.121 549.888 252.645 550.713 251.871 551.16L23.25 683.154C22.4765 683.601 21.5235 683.601 20.75 683.154L-207.871 551.16C-208.645 550.713 -209.121 549.888 -209.121 548.994V285.006C-209.121 284.112 -208.645 283.287 -207.871 282.84L-213.121 273.747L-207.871 282.84L20.75 150.846Z" stroke="url(#paint2_linear)" stroke-width="21"/>
<path opacity="0.02" d="M1417.75 18.846C1418.52 18.3995 1419.48 18.3995 1420.25 18.846L1648.87 150.84C1649.64 151.287 1650.12 152.112 1650.12 153.006V416.994C1650.12 417.888 1649.64 418.713 1648.87 419.16L1420.25 551.154C1419.48 551.601 1418.52 551.601 1417.75 551.154L1189.13 419.16C1188.36 418.713 1187.88 417.888 1187.88 416.994V153.006C1187.88 152.112 1188.36 151.287 1189.13 150.84L1183.88 141.747L1189.13 150.84L1417.75 18.846Z" stroke="url(#paint3_linear)" stroke-width="21"/>
<defs>
<linearGradient id="paint0_linear" x1="339.02" y1="513.36" x2="785.42" y2="55.8" gradientUnits="userSpaceOnUse">
<stop stop-color="#0EACD2"/>
<stop offset="1" stop-color="#9833FD"/>
</linearGradient>
<linearGradient id="paint1_linear" x1="860.02" y1="900.36" x2="1306.42" y2="442.8" gradientUnits="userSpaceOnUse">
<stop stop-color="#0EACD2"/>
<stop offset="1" stop-color="#9833FD"/>
</linearGradient>
<linearGradient id="paint2_linear" x1="-150.98" y1="651.36" x2="295.42" y2="193.8" gradientUnits="userSpaceOnUse">
<stop stop-color="#0EACD2"/>
<stop offset="1" stop-color="#9833FD"/>
</linearGradient>
<linearGradient id="paint3_linear" x1="1246.02" y1="519.36" x2="1692.42" y2="61.8" gradientUnits="userSpaceOnUse">
<stop stop-color="#0EACD2"/>
<stop offset="1" stop-color="#9833FD"/>
</linearGradient>
</defs>
</svg>
