<svg width="238" height="311" viewBox="0 0 238 311" fill="none" xmlns="http://www.w3.org/2000/svg">
<g clip-path="url(#clip0)">
<g opacity="0.1">
<path opacity="0.5" d="M40.1124 -22.5477C40.2779 -22.63 40.4817 -22.63 40.6472 -22.5477L110.389 12.1396C110.554 12.2219 110.656 12.374 110.656 12.5386V81.9132C110.656 82.0777 110.554 82.2298 110.389 82.3122L40.6472 117L41.9843 118.995L40.6472 117C40.4817 117.082 40.2779 117.082 40.1124 117L38.7753 118.995L40.1124 117L-29.6291 82.3122L-30.9662 84.3072L-29.6291 82.3122C-29.7946 82.2298 -29.8965 82.0777 -29.8965 81.9132V12.5386C-29.8965 12.374 -29.7946 12.2219 -29.6291 12.1396L-30.9662 10.1446L-29.6291 12.1396L40.1124 -22.5477Z" stroke="url(#paint0_linear)" stroke-width="10"/>
</g>
<path opacity="0.1" d="M205.375 105.999C205.54 105.917 205.745 105.917 205.91 105.999L275.652 140.686C275.817 140.769 275.919 140.921 275.919 141.085V210.46C275.919 210.624 275.817 210.776 275.652 210.859L205.91 245.546L207.247 247.541L205.91 245.546C205.745 245.628 205.54 245.628 205.375 245.546L204.038 247.541L205.375 245.546L135.634 210.859L134.297 212.854L135.634 210.859C135.468 210.776 135.366 210.624 135.366 210.46V141.085C135.366 140.921 135.468 140.769 135.634 140.686L134.297 138.691L135.634 140.686L205.375 105.999Z" stroke="url(#paint1_linear)" stroke-width="10"/>
<path opacity="0.1" d="M40.1124 234.546C40.2779 234.464 40.4817 234.464 40.6472 234.546L110.389 269.233C110.554 269.315 110.656 269.467 110.656 269.632V339.007C110.656 339.171 110.554 339.323 110.389 339.406L40.6472 374.093L41.9843 376.088L40.6472 374.093C40.4817 374.175 40.2779 374.175 40.1124 374.093L38.7753 376.088L40.1124 374.093L-29.6291 339.406L-30.9662 341.401L-29.6291 339.406C-29.7946 339.323 -29.8965 339.171 -29.8965 339.007V269.632C-29.8965 269.467 -29.7946 269.315 -29.6291 269.233L-30.9662 267.238L-29.6291 269.233L40.1124 234.546Z" stroke="url(#paint2_linear)" stroke-width="10"/>
</g>
<defs>
<linearGradient id="paint0_linear" x1="-11.8465" y1="108.182" x2="102.563" y2="-27.9458" gradientUnits="userSpaceOnUse">
<stop stop-color="#0EACD2"/>
<stop offset="1" stop-color="#9833FD"/>
</linearGradient>
<linearGradient id="paint1_linear" x1="153.416" y1="236.729" x2="267.826" y2="100.601" gradientUnits="userSpaceOnUse">
<stop stop-color="#0EACD2"/>
<stop offset="1" stop-color="#9833FD"/>
</linearGradient>
<linearGradient id="paint2_linear" x1="-11.8465" y1="365.275" x2="102.563" y2="229.148" gradientUnits="userSpaceOnUse">
<stop stop-color="#0EACD2"/>
<stop offset="1" stop-color="#9833FD"/>
</linearGradient>
<clipPath id="clip0">
<rect width="238" height="311" fill="white"/>
</clipPath>
</defs>
</svg>
