<svg width="445" height="675" viewBox="0 0 445 675" fill="none" xmlns="http://www.w3.org/2000/svg">
<g opacity="0.1">
<path opacity="0.5" d="M75 -48.9378C75.3094 -49.1165 75.6906 -49.1165 76 -48.9378L206.399 26.3481C206.708 26.5267 206.899 26.8568 206.899 27.2141V177.786C206.899 178.143 206.708 178.473 206.399 178.652L76 253.938L78.5 258.268L76 253.938C75.6906 254.116 75.3094 254.116 75 253.938L72.5 258.268L75 253.938L-55.399 178.652L-57.899 182.982L-55.399 178.652C-55.7084 178.473 -55.899 178.143 -55.899 177.786V27.2141C-55.899 26.8568 -55.7084 26.5267 -55.399 26.3481L-57.899 22.018L-55.399 26.3481L75 -48.9378Z" stroke="url(#paint0_linear)" stroke-width="10"/>
</g>
<path opacity="0.1" d="M384 230.062C384.309 229.884 384.691 229.884 385 230.062L515.399 305.348C515.708 305.527 515.899 305.857 515.899 306.214V456.786C515.899 457.143 515.708 457.473 515.399 457.652L385 532.938L387.5 537.268L385 532.938C384.691 533.116 384.309 533.116 384 532.938L381.5 537.268L384 532.938L253.601 457.652L251.101 461.982L253.601 457.652C253.292 457.473 253.101 457.143 253.101 456.786V306.214C253.101 305.857 253.292 305.527 253.601 305.348L251.101 301.018L253.601 305.348L384 230.062Z" stroke="url(#paint1_linear)" stroke-width="10"/>
<path opacity="0.1" d="M75 509.062C75.3094 508.884 75.6906 508.884 76 509.062L206.399 584.348C206.708 584.527 206.899 584.857 206.899 585.214V735.786C206.899 736.143 206.708 736.473 206.399 736.652L76 811.938L78.5 816.268L76 811.938C75.6906 812.116 75.3094 812.116 75 811.938L72.5 816.268L75 811.938L-55.399 736.652L-57.899 740.982L-55.399 736.652C-55.7084 736.473 -55.899 736.143 -55.899 735.786V585.214C-55.899 584.857 -55.7084 584.527 -55.399 584.348L-57.899 580.018L-55.399 584.348L75 509.062Z" stroke="url(#paint2_linear)" stroke-width="10"/>
<defs>
<linearGradient id="paint0_linear" x1="-22.15" y1="234.8" x2="229.85" y2="-23.5" gradientUnits="userSpaceOnUse">
<stop stop-color="#0EACD2"/>
<stop offset="1" stop-color="#9833FD"/>
</linearGradient>
<linearGradient id="paint1_linear" x1="286.85" y1="513.8" x2="538.85" y2="255.5" gradientUnits="userSpaceOnUse">
<stop stop-color="#0EACD2"/>
<stop offset="1" stop-color="#9833FD"/>
</linearGradient>
<linearGradient id="paint2_linear" x1="-22.15" y1="792.8" x2="229.85" y2="534.5" gradientUnits="userSpaceOnUse">
<stop stop-color="#0EACD2"/>
<stop offset="1" stop-color="#9833FD"/>
</linearGradient>
</defs>
</svg>
