<svg width="375" height="600" viewBox="0 0 375 600" fill="none" xmlns="http://www.w3.org/2000/svg">
<path opacity="0.02" d="M13.75 312.846C14.5235 312.399 15.4765 312.399 16.25 312.846L133.154 380.34C133.927 380.787 134.404 381.612 134.404 382.506V517.494C134.404 518.388 133.927 519.213 133.154 519.66L16.25 587.154C15.4765 587.601 14.5235 587.601 13.75 587.154L-103.154 519.66L-108.404 528.753L-103.154 519.66C-103.927 519.213 -104.404 518.388 -104.404 517.494V382.506C-104.404 381.612 -103.927 380.787 -103.154 380.34L13.75 312.846Z" stroke="url(#paint0_linear)" stroke-width="21"/>
<path opacity="0.02" d="M173.75 12.846C174.523 12.3995 175.477 12.3995 176.25 12.846L293.154 80.3405C293.927 80.7871 294.404 81.6124 294.404 82.5056V217.494C294.404 218.388 293.927 219.213 293.154 219.66L176.25 287.154C175.476 287.601 174.524 287.601 173.75 287.154L56.8462 219.66L51.5962 228.753L56.8462 219.66C56.0727 219.213 55.5962 218.388 55.5962 217.494V82.5056C55.5962 81.6124 56.0727 80.7871 56.8462 80.3405L173.75 12.846Z" stroke="url(#paint1_linear)" stroke-width="21"/>
<path opacity="0.02" d="M473.75 12.846C474.523 12.3995 475.477 12.3995 476.25 12.846L593.154 80.3405C593.927 80.7871 594.404 81.6124 594.404 82.5056V217.494C594.404 218.388 593.927 219.213 593.154 219.66L476.25 287.154C475.476 287.601 474.524 287.601 473.75 287.154L356.846 219.66L351.596 228.753L356.846 219.66C356.073 219.213 355.596 218.388 355.596 217.494V82.5056C355.596 81.6124 356.073 80.7871 356.846 80.3405L473.75 12.846Z" stroke="url(#paint2_linear)" stroke-width="21"/>
<path opacity="0.02" d="M313.75 312.846C314.523 312.399 315.477 312.399 316.25 312.846L433.154 380.34C433.927 380.787 434.404 381.612 434.404 382.506V517.494C434.404 518.388 433.927 519.213 433.154 519.66L316.25 587.154C315.476 587.601 314.524 587.601 313.75 587.154L196.846 519.66L191.596 528.753L196.846 519.66C196.073 519.213 195.596 518.388 195.596 517.494V382.506C195.596 381.612 196.073 380.787 196.846 380.34L313.75 312.846Z" stroke="url(#paint3_linear)" stroke-width="21"/>
<defs>
<linearGradient id="paint0_linear" x1="-78" y1="576" x2="162" y2="330" gradientUnits="userSpaceOnUse">
<stop stop-color="#0EACD2"/>
<stop offset="1" stop-color="#9833FD"/>
</linearGradient>
<linearGradient id="paint1_linear" x1="82" y1="276" x2="322" y2="30" gradientUnits="userSpaceOnUse">
<stop stop-color="#0EACD2"/>
<stop offset="1" stop-color="#9833FD"/>
</linearGradient>
<linearGradient id="paint2_linear" x1="382" y1="276" x2="622" y2="30" gradientUnits="userSpaceOnUse">
<stop stop-color="#0EACD2"/>
<stop offset="1" stop-color="#9833FD"/>
</linearGradient>
<linearGradient id="paint3_linear" x1="222" y1="576" x2="462" y2="330" gradientUnits="userSpaceOnUse">
<stop stop-color="#0EACD2"/>
<stop offset="1" stop-color="#9833FD"/>
</linearGradient>
</defs>
</svg>
