<svg width="12" height="32" viewBox="0 0 12 32" fill="none" xmlns="http://www.w3.org/2000/svg">
<path d="M6.336 11.344C4.80533 11.344 3.51733 10.8213 2.472 9.776C1.42667 8.73067 0.904 7.424 0.904 5.856C0.904 4.25067 1.42667 2.96267 2.472 1.992C3.51733 0.983999 4.80533 0.479999 6.336 0.479999C7.86667 0.479999 9.15467 0.983999 10.2 1.992C11.2453 2.96267 11.768 4.25067 11.768 5.856C11.768 7.424 11.2453 8.73067 10.2 9.776C9.15467 10.8213 7.86667 11.344 6.336 11.344ZM6.336 31.448C4.80533 31.448 3.51733 30.9253 2.472 29.88C1.42667 28.8347 0.904 27.528 0.904 25.96C0.904 24.3547 1.42667 23.0667 2.472 22.096C3.51733 21.088 4.80533 20.584 6.336 20.584C7.86667 20.584 9.15467 21.088 10.2 22.096C11.2453 23.0667 11.768 24.3547 11.768 25.96C11.768 27.528 11.2453 28.8347 10.2 29.88C9.15467 30.9253 7.86667 31.448 6.336 31.448Z" fill="#333333"/>
</svg>
