<svg width="20" height="20" viewBox="0 0 20 20" fill="none" xmlns="http://www.w3.org/2000/svg">
<mask id="path-1-inside-1" fill="white">
<path d="M15 0H5C2.23858 0 0 2.23858 0 5V15C0 17.7614 2.23858 20 5 20H15C17.7614 20 20 17.7614 20 15V5C20 2.23858 17.7614 0 15 0Z"/>
<path d="M14 9.37C14.1234 10.2022 13.9813 11.0522 13.5938 11.799C13.2063 12.5458 12.5931 13.1514 11.8416 13.5297C11.0901 13.9079 10.2384 14.0396 9.40779 13.9059C8.57713 13.7723 7.80976 13.3801 7.21484 12.7852C6.61992 12.1902 6.22773 11.4229 6.09407 10.5922C5.9604 9.76155 6.09207 8.90989 6.47033 8.15837C6.84859 7.40685 7.45419 6.79374 8.20099 6.40624C8.94778 6.01874 9.79776 5.87659 10.63 6C11.4789 6.12588 12.2649 6.52146 12.8717 7.12831C13.4785 7.73515 13.8741 8.52108 14 9.37Z"/>
<path d="M17 4C17 4.55228 16.5523 5 16 5C15.4477 5 15 4.55228 15 4C15 3.44772 15.4477 3 16 3C16.5523 3 17 3.44772 17 4Z"/>
</mask>
<path d="M14 9.37L13.0108 9.51668L14 9.37ZM10.63 6L10.4833 6.98918L10.63 6ZM5 1H15V-1H5V1ZM15 1C17.2091 1 19 2.79086 19 5H21C21 1.68629 18.3137 -1 15 -1V1ZM19 5V15H21V5H19ZM19 15C19 17.2091 17.2091 19 15 19V21C18.3137 21 21 18.3137 21 15H19ZM15 19H5V21H15V19ZM5 19C2.79086 19 1 17.2091 1 15H-1C-1 18.3137 1.68629 21 5 21V19ZM1 15V5H-1V15H1ZM1 5C1 2.79086 2.79086 1 5 1V-1C1.68629 -1 -1 1.68629 -1 5H1ZM13.0108 9.51668C13.1034 10.1409 12.9968 10.7783 12.7061 11.3384L14.4814 12.2596C14.9658 11.3261 15.1434 10.2636 14.9892 9.22332L13.0108 9.51668ZM12.7061 11.3384C12.4155 11.8985 11.9557 12.3527 11.392 12.6364L12.2912 14.4229C13.2306 13.9501 13.997 13.1931 14.4814 12.2596L12.7061 11.3384ZM11.392 12.6364C10.8284 12.9201 10.1897 13.0189 9.56666 12.9186L9.24892 14.8932C10.2872 15.0603 11.3518 14.8957 12.2912 14.4229L11.392 12.6364ZM9.56666 12.9186C8.94366 12.8184 8.36814 12.5242 7.92195 12.0781L6.50773 13.4923C7.25139 14.2359 8.21059 14.7262 9.24892 14.8932L9.56666 12.9186ZM7.92195 12.0781C7.47576 11.6319 7.18162 11.0563 7.08137 10.4333L5.10677 10.7511C5.27385 11.7894 5.76408 12.7486 6.50773 13.4923L7.92195 12.0781ZM7.08137 10.4333C6.98112 9.81035 7.07987 9.1716 7.36356 8.60796L5.57709 7.70878C5.10427 8.64818 4.93969 9.71276 5.10677 10.7511L7.08137 10.4333ZM7.36356 8.60796C7.64726 8.04432 8.10146 7.58449 8.66156 7.29386L7.74042 5.51862C6.80692 6.00299 6.04992 6.76938 5.57709 7.70878L7.36356 8.60796ZM8.66156 7.29386C9.22166 7.00324 9.85913 6.89662 10.4833 6.98918L10.7767 5.01082C9.73638 4.85655 8.67391 5.03424 7.74042 5.51862L8.66156 7.29386ZM10.4833 6.98918C11.12 7.0836 11.7095 7.38028 12.1646 7.83541L13.5788 6.4212C12.8202 5.66265 11.8378 5.16817 10.7767 5.01082L10.4833 6.98918ZM12.1646 7.83541C12.6197 8.29055 12.9164 8.87999 13.0108 9.51668L14.9892 9.22332C14.8318 8.16216 14.3374 7.17975 13.5788 6.4212L12.1646 7.83541ZM16 4V6C17.1046 6 18 5.10457 18 4H16ZM16 4H14C14 5.10457 14.8954 6 16 6V4ZM16 4V2C14.8954 2 14 2.89543 14 4H16ZM16 4H18C18 2.89543 17.1046 2 16 2V4Z" fill="white" mask="url(#path-1-inside-1)"/>
</svg>
