<svg width="446" height="446" viewBox="0 0 446 446" fill="none" xmlns="http://www.w3.org/2000/svg">
<path d="M223 381.384C318.517 381.384 395.95 376.863 395.95 371.286C395.95 365.709 318.517 361.189 223 361.189C127.482 361.189 50.05 365.709 50.05 371.286C50.05 376.863 127.482 381.384 223 381.384Z" fill="#F5F5F5"/>
<path d="M253.881 105.961C248.529 98.7176 249.769 92.3934 253.881 87.8442C259.01 82.1354 267.386 82.18 272.97 85.0968C281.711 89.6549 283.594 109.627 268.992 112.446C263.81 110.637 258.761 108.47 253.881 105.961Z" fill="#263238"/>
<path d="M271.266 86.3545C276.618 83.2057 275.128 77.0955 279.963 73.8665C286.689 69.4065 301.184 71.3421 296.652 82.4921C292.121 93.6421 308.248 94.2844 303.565 105.363C298.882 116.442 285.279 123.203 281.783 107.147C279.169 95.1139 290.275 79.611 281.31 81.279C275.717 82.3137 273.853 88.0671 273.853 88.0671L271.266 86.3545Z" fill="#263238"/>
<path d="M257.967 133.577C257.235 135.602 256.441 137.439 255.594 139.339C254.746 141.239 253.81 143.068 252.829 144.896C250.853 148.734 248.372 152.289 245.452 155.467C244.617 156.356 243.7 157.166 242.713 157.884C241.738 158.576 240.698 159.173 239.609 159.668C237.603 160.566 235.511 161.259 233.365 161.737C229.3 162.676 225.138 163.128 220.966 163.084C220.498 163.077 220.049 162.9 219.701 162.586C219.354 162.272 219.132 161.843 219.076 161.379C219.021 160.914 219.135 160.444 219.399 160.058C219.663 159.671 220.058 159.393 220.511 159.275H220.601C224.332 158.403 228.006 157.298 231.599 155.966C233.288 155.337 234.923 154.57 236.487 153.674C237.184 153.274 237.846 152.818 238.467 152.309C239.069 151.806 239.624 151.251 240.127 150.65C241.276 149.292 242.311 147.842 243.222 146.315C244.185 144.736 245.113 143.104 245.969 141.4C247.664 138.028 249.27 134.424 250.652 130.963V130.91C251.019 129.948 251.753 129.172 252.692 128.751C253.631 128.33 254.699 128.3 255.661 128.667C256.622 129.033 257.399 129.767 257.82 130.706C258.24 131.645 258.271 132.713 257.904 133.675L257.967 133.577Z" fill="#B55B52"/>
<path d="M256.807 126.976C249.439 127.815 245.38 138.867 245.38 138.867L252.927 149.499C252.927 149.499 261.847 139.393 262.623 134.879C263.399 130.232 262.248 126.343 256.807 126.976Z" fill="#263238"/>
<path opacity="0.2" d="M252.775 133.738C255.246 132.185 257.94 133.042 260.232 135.923C260.706 136.75 261.024 137.657 261.169 138.599C258.939 142.64 252.918 149.49 252.918 149.49L249.466 144.629C249.207 141.757 251.178 134.692 252.775 133.738Z" fill="black"/>
<path d="M222.313 159.668L216.756 156.671L216.604 163.914C216.604 163.914 220.315 164.717 222.768 162.737L222.313 159.668Z" fill="#B55B52"/>
<path d="M211.181 156.921L212.153 162.835L216.64 163.914L216.792 156.671L211.181 156.921Z" fill="#B55B52"/>
<path d="M239.19 143.888L234.32 139.892L201.137 189.746L206.052 193.742C211.654 198.327 223.616 190.888 232.812 177.116C242.009 163.343 244.792 148.473 239.19 143.888Z" fill="#0B8CAD"/>
<path opacity="0.1" d="M239.19 143.888L234.32 139.892L201.137 189.746L206.052 193.742C211.654 198.327 223.616 190.888 232.812 177.116C242.009 163.343 244.792 148.473 239.19 143.888Z" fill="black"/>
<path d="M228.738 171.785C237.591 157.792 239.84 143.332 233.762 139.486C227.683 135.641 215.58 143.866 206.727 157.859C197.875 171.851 195.626 186.312 201.704 190.157C207.782 194.003 219.886 185.777 228.738 171.785Z" fill="#0B8CAD"/>
<path d="M211.574 172.994L216.034 166.269C215.581 164.89 215.559 163.405 215.971 162.014C216.482 160.259 217.274 158.599 218.317 157.099C219.258 155.583 220.488 154.267 221.939 153.228C223.178 152.407 224.24 152.211 225.105 152.639L226.193 151.016L227.139 151.792L226.069 153.424C226.359 153.878 226.553 154.387 226.639 154.92C226.725 155.452 226.701 155.996 226.568 156.519C226.221 158.093 225.618 159.6 224.784 160.979L222.777 160.159C223.401 159.207 223.713 158.084 223.669 156.947L219.486 163.191C220.062 164.606 220.18 166.166 219.825 167.651C218.688 171.217 216.514 174.363 213.581 176.687C212.225 177.627 211.021 177.897 209.968 177.499L208.889 179.122L207.943 178.346L208.969 176.803C208.65 176.273 208.444 175.681 208.366 175.067C208.288 174.453 208.338 173.829 208.514 173.235C208.996 171.246 209.791 169.347 210.869 167.607L212.92 168.588C212.466 169.39 212.101 170.239 211.832 171.121C211.638 171.726 211.551 172.36 211.574 172.994ZM222.795 156.1C222.298 156.149 221.829 156.355 221.457 156.689C220.422 157.544 219.657 158.681 219.254 159.962C219.07 160.507 219.018 161.088 219.102 161.657L222.795 156.1ZM212.376 173.94C212.65 173.982 212.93 173.962 213.196 173.881C213.461 173.801 213.705 173.663 213.911 173.476C215.186 172.483 216.121 171.117 216.587 169.569C216.765 168.949 216.749 168.289 216.542 167.678L212.376 173.94Z" fill="white"/>
<path opacity="0.1" d="M232.857 156.439C233.517 152.068 232.857 148.563 230.787 146.841C226.229 143.104 216.515 149.169 209.014 160.382C205.86 165 203.533 170.131 202.136 175.546C202.903 170.426 205.446 164.119 209.468 158.062C216.935 146.85 226.684 140.793 231.242 144.522C233.704 146.529 234.15 150.998 232.857 156.439Z" fill="black"/>
<path d="M297.527 322.735L290.034 323.448L286.216 305.992L293.709 305.278L297.527 322.735Z" fill="#B55B52"/>
<path d="M339.263 311.941L332.297 314.671L325.58 298.115L332.547 295.386L339.263 311.941Z" fill="#B55B52"/>
<path d="M330.272 311.246L337.908 307.446C338.039 307.38 338.189 307.364 338.332 307.4C338.474 307.436 338.599 307.522 338.684 307.642L342.555 313.253C342.653 313.398 342.718 313.563 342.747 313.735C342.776 313.908 342.767 314.085 342.722 314.255C342.676 314.424 342.594 314.581 342.482 314.716C342.371 314.851 342.231 314.96 342.073 315.037C339.397 316.321 338.22 316.954 334.857 318.605C332.787 319.63 328.176 322.048 325.321 323.466C322.467 324.884 320.915 322.137 321.976 321.289C326.731 317.498 328.301 314.635 329.344 312.236C329.528 311.807 329.856 311.457 330.272 311.246Z" fill="#263238"/>
<path d="M288.571 319.559H297.58C297.741 319.559 297.897 319.613 298.025 319.711C298.152 319.81 298.244 319.947 298.285 320.103L300.247 327.239C300.296 327.407 300.305 327.585 300.273 327.757C300.24 327.93 300.168 328.092 300.061 328.231C299.954 328.37 299.816 328.482 299.658 328.558C299.499 328.633 299.325 328.671 299.15 328.666C296.001 328.613 294.494 328.666 290.533 328.666H278.438C275.146 328.666 274.424 325.33 275.762 325.036C281.872 323.68 285.395 321.816 287.278 320.041C287.63 319.718 288.094 319.545 288.571 319.559Z" fill="#263238"/>
<path opacity="0.2" d="M286.225 306.001L288.187 314.992H295.841L293.718 305.278L286.225 306.001Z" fill="black"/>
<path opacity="0.2" d="M332.547 295.395L325.58 298.124L329.05 306.652L336.008 303.922L332.547 295.395Z" fill="black"/>
<path d="M279.678 119.439C285.636 118.752 289.49 121.589 289.757 127.538C290.542 148.509 292.861 153.335 296.367 164.182L266.654 172.45C256.093 149.58 252.382 138.795 251.205 133.72C250.96 132.54 251.108 131.313 251.627 130.225C252.146 129.138 253.006 128.251 254.077 127.699C261.986 123.293 270.685 120.487 279.678 119.439Z" fill="#263238"/>
<path d="M270.642 105.381C270.999 109.957 272.185 117.869 275.994 119.965C275.994 119.965 275.432 122.793 265.584 132.221C259.51 127.101 262.614 123.667 262.614 123.667C267.136 121.16 266.075 117.896 264.291 114.747L270.642 105.381Z" fill="#B55B52"/>
<path opacity="0.2" d="M269.955 106.407C270.605 109.007 270.696 111.716 270.223 114.354C269.884 116.138 267.939 117.494 265.763 118.27C265.466 117.031 264.978 115.845 264.318 114.756L269.955 106.407Z" fill="black"/>
<path d="M272.39 96.7374C273.844 104.132 274.62 107.227 271.926 111.901C267.868 118.966 258.466 119.144 254.827 112.33C251.553 106.202 249.715 95.1407 256.084 90.3775C257.485 89.322 259.132 88.6422 260.87 88.4028C262.607 88.1634 264.377 88.3723 266.011 89.0096C267.645 89.6469 269.089 90.6915 270.205 92.0441C271.322 93.3966 272.074 95.0123 272.39 96.7374Z" fill="#B55B52"/>
<path d="M276.253 101.242C276.361 101.955 276.327 102.682 276.153 103.382C275.978 104.082 275.666 104.74 275.236 105.318C274.076 106.862 272.328 106.112 271.668 104.426C271.079 102.892 270.963 100.234 272.604 99.3063C272.963 99.1093 273.366 99.0047 273.775 99.0019C274.185 98.999 274.589 99.0981 274.95 99.29C275.312 99.482 275.621 99.7609 275.848 100.102C276.075 100.442 276.214 100.834 276.253 101.242Z" fill="#B55B52"/>
<path d="M265.905 92.8214C265.629 95.6491 267.894 100.484 272.149 101.608C276.556 96.5411 273.648 89.5924 269.598 89.4497C265.548 89.3069 265.905 92.8214 265.905 92.8214Z" fill="#263238"/>
<path d="M259.964 85.1146C253.462 85.4089 246.486 88.3079 248.904 98.4946C254.577 97.3082 270.365 95.542 271.578 91.4924C269.982 86.292 264.228 84.9183 259.964 85.1146Z" fill="#263238"/>
<path d="M266.655 172.45C266.655 172.45 264.924 232.464 269.75 255.112C274.754 278.679 286.056 312.361 286.056 312.361L296.67 311.674C296.67 311.674 289.811 267.636 287.75 249.466C284.842 224.418 288.455 166.376 288.455 166.376L266.655 172.45Z" fill="#333333"/>
<path opacity="0.2" d="M281.604 191.218C282.086 185.777 286.189 186.82 287.108 194.188C286.707 205.784 286.421 219.245 286.653 231.028C282.229 222.384 280.507 203.599 281.604 191.218Z" fill="black"/>
<path d="M298.017 312.361L285.235 313.226L283.46 307.232L297.295 305.769L298.017 312.361Z" fill="#263238"/>
<path d="M277.135 169.534C277.135 169.534 286.18 219.842 298.463 246.915C308.382 268.777 326.356 304.003 326.356 304.003L336.106 300.354C336.106 300.354 320.861 260.366 315.349 244.988C301.621 206.632 309.105 183.351 296.367 164.182L277.135 169.534Z" fill="#333333"/>
<path d="M337.256 301.282L326.008 305.198L322.806 299.435L336.195 296.117L337.256 301.282Z" fill="#263238"/>
<path d="M296.322 162.344L298.41 164.636C298.57 164.815 298.41 165.091 298.035 165.18L266.878 173.86C266.61 173.931 266.351 173.86 266.289 173.699L265.281 171.112C265.209 170.934 265.397 170.711 265.691 170.631L295.778 162.255C295.869 162.22 295.967 162.21 296.062 162.225C296.158 162.241 296.248 162.282 296.322 162.344Z" fill="#263238"/>
<path d="M293.218 166.804L294.03 166.572C294.191 166.527 294.289 166.411 294.244 166.313L292.906 162.968C292.906 162.87 292.71 162.826 292.549 162.87L291.738 163.093C291.577 163.093 291.479 163.254 291.515 163.352L292.861 166.706C292.897 166.804 293.058 166.849 293.218 166.804Z" fill="#0B8CAD"/>
<path d="M269.223 173.476L270.035 173.253C270.187 173.253 270.294 173.093 270.249 172.994L268.911 169.649C268.911 169.551 268.706 169.507 268.546 169.551L267.743 169.774C267.582 169.774 267.484 169.935 267.52 170.033L268.858 173.387C268.902 173.485 269.063 173.521 269.223 173.476Z" fill="#0B8CAD"/>
<path d="M281.221 170.14L282.033 169.917C282.193 169.872 282.291 169.756 282.247 169.658L280.909 166.304C280.909 166.206 280.704 166.162 280.543 166.206L279.74 166.429C279.58 166.429 279.482 166.599 279.517 166.697L280.864 170.042C280.9 170.14 281.06 170.185 281.221 170.14Z" fill="#0B8CAD"/>
<path d="M261.882 101.688C262.034 102.286 261.882 102.848 261.463 102.946C261.044 103.044 260.634 102.651 260.482 102.054C260.33 101.456 260.482 100.903 260.901 100.796C261.32 100.689 261.731 101.072 261.882 101.688Z" fill="#263238"/>
<path d="M255.183 103.418C255.344 104.007 255.183 104.569 254.764 104.676C254.345 104.783 253.935 104.373 253.783 103.784C253.631 103.195 253.783 102.625 254.202 102.526C254.622 102.428 255.032 102.821 255.183 103.418Z" fill="#263238"/>
<path d="M254.381 102.518L252.855 102.473C252.855 102.473 253.872 103.401 254.381 102.518Z" fill="#263238"/>
<path d="M257.226 103.971C257.051 105.461 256.673 106.92 256.102 108.307C256.46 108.444 256.844 108.5 257.226 108.473C257.609 108.445 257.98 108.333 258.314 108.146L257.226 103.971Z" fill="#A02724"/>
<path d="M260.937 109.939C260.903 109.933 260.871 109.917 260.845 109.893C260.82 109.87 260.802 109.839 260.794 109.805C260.787 109.783 260.785 109.76 260.788 109.736C260.791 109.713 260.798 109.691 260.81 109.671C260.822 109.651 260.837 109.634 260.856 109.62C260.875 109.606 260.896 109.596 260.919 109.591C261.661 109.415 262.35 109.067 262.932 108.574C263.513 108.081 263.969 107.458 264.264 106.755C264.271 106.731 264.283 106.71 264.298 106.691C264.314 106.673 264.333 106.657 264.355 106.647C264.377 106.636 264.4 106.629 264.425 106.628C264.449 106.627 264.473 106.63 264.496 106.639C264.539 106.655 264.575 106.687 264.597 106.728C264.618 106.769 264.624 106.817 264.612 106.862C264.304 107.621 263.82 108.297 263.2 108.832C262.579 109.367 261.84 109.747 261.044 109.939C261.009 109.949 260.972 109.949 260.937 109.939Z" fill="#263238"/>
<path d="M263.194 99.012C263.13 99.0038 263.071 98.9757 263.024 98.9317C262.678 98.6417 262.267 98.4386 261.827 98.3393C261.386 98.2401 260.928 98.2474 260.491 98.3608C260.4 98.3891 260.301 98.3807 260.216 98.3374C260.131 98.2941 260.067 98.2193 260.036 98.1289C260.019 98.0845 260.012 98.0371 260.014 97.9897C260.016 97.9423 260.028 97.8959 260.049 97.8533C260.07 97.8107 260.099 97.7728 260.136 97.7419C260.172 97.7111 260.214 97.688 260.259 97.674C260.811 97.5241 261.391 97.5091 261.949 97.6302C262.508 97.7513 263.03 98.0049 263.47 98.3697C263.53 98.4204 263.572 98.4889 263.589 98.5651C263.607 98.6413 263.6 98.7212 263.569 98.7931C263.538 98.8649 263.485 98.925 263.417 98.9644C263.35 99.0038 263.271 99.0205 263.194 99.012Z" fill="#263238"/>
<path d="M251.196 101.135H251.125C251.08 101.12 251.039 101.096 251.004 101.065C250.968 101.034 250.939 100.996 250.919 100.954C250.898 100.912 250.886 100.866 250.883 100.819C250.88 100.772 250.886 100.724 250.902 100.68C251.076 100.135 251.378 99.64 251.783 99.2364C252.188 98.8328 252.684 98.5325 253.23 98.3608C253.276 98.3487 253.323 98.3459 253.37 98.3524C253.417 98.3589 253.462 98.3747 253.503 98.3987C253.543 98.4228 253.579 98.4547 253.607 98.4926C253.635 98.5305 253.656 98.5736 253.667 98.6194C253.689 98.7128 253.673 98.811 253.623 98.8927C253.573 98.9744 253.492 99.0333 253.399 99.0565C252.976 99.2013 252.593 99.4452 252.282 99.7679C251.972 100.091 251.743 100.483 251.615 100.912C251.585 100.994 251.526 101.062 251.448 101.103C251.371 101.144 251.281 101.156 251.196 101.135Z" fill="#263238"/>
<path d="M286.109 133.479C283.79 138.26 281.381 142.952 278.839 147.617C277.573 149.954 276.306 152.291 274.959 154.592C273.612 156.894 272.283 159.204 270.686 161.514C270.321 162.085 269.866 162.692 269.438 163.298L269.277 163.512L269.197 163.628L269.063 163.798C268.876 164.03 268.688 164.226 268.501 164.422C268.16 164.768 267.793 165.087 267.404 165.377C266.119 166.316 264.723 167.092 263.247 167.687C260.643 168.739 257.958 169.58 255.219 170.202C249.976 171.415 244.651 172.246 239.288 172.691L238.681 168.891C241.17 168.231 243.703 167.535 246.192 166.813C248.681 166.09 251.152 165.323 253.56 164.485C255.905 163.695 258.196 162.753 260.419 161.666C261.357 161.204 262.239 160.638 263.051 159.98C263.184 159.87 263.306 159.747 263.417 159.614C263.449 159.575 263.479 159.533 263.506 159.49L263.702 159.186C264.014 158.696 264.335 158.232 264.656 157.679C265.923 155.547 267.172 153.263 268.385 150.98L271.998 144.049L279.134 130.062L286.109 133.479Z" fill="#B55B52"/>
<path d="M241.125 168.927L235.872 166.911L236.318 174.324C236.318 174.324 240.448 174.324 242.356 171.781L241.125 168.927Z" fill="#B55B52"/>
<path d="M231.742 167.125L230.618 172.575L236.318 174.324L235.872 166.911L231.742 167.125Z" fill="#B55B52"/>
<path d="M279.642 123.274C276.707 124.621 273.3 136.815 273.3 136.815L286.011 138.26C286.011 138.26 288.473 132.337 287.973 129.295C287.224 124.434 282.987 121.74 279.642 123.274Z" fill="#263238"/>
<path d="M326.472 313.422C326.423 313.338 326.384 313.248 326.356 313.154C326.315 313.055 326.301 312.946 326.317 312.839C326.333 312.732 326.377 312.631 326.445 312.548C327.061 311.799 329.79 312.102 330.094 312.137C330.129 312.14 330.162 312.153 330.189 312.176C330.217 312.198 330.236 312.228 330.245 312.262C330.257 312.295 330.258 312.331 330.248 312.364C330.238 312.398 330.219 312.428 330.192 312.45C329.416 313.101 327.971 314.145 327.043 313.877C326.921 313.846 326.807 313.789 326.709 313.711C326.61 313.632 326.53 313.534 326.472 313.422ZM329.621 312.45C328.524 312.36 327.052 312.378 326.722 312.771C326.697 312.813 326.683 312.86 326.683 312.909C326.683 312.958 326.697 313.006 326.722 313.047C326.748 313.16 326.803 313.265 326.881 313.351C326.959 313.437 327.058 313.501 327.168 313.538C327.658 313.681 328.568 313.279 329.639 312.45H329.621Z" fill="#0B8CAD"/>
<path d="M327.141 310.96C327.107 310.895 327.08 310.826 327.061 310.755C327.024 310.617 327.034 310.47 327.091 310.339C327.148 310.208 327.247 310.1 327.373 310.032C327.489 309.957 327.62 309.907 327.757 309.887C327.894 309.867 328.034 309.877 328.167 309.916C329.228 310.202 330.21 312.155 330.254 312.236C330.27 312.263 330.278 312.294 330.278 312.325C330.278 312.356 330.27 312.387 330.254 312.414C330.236 312.44 330.212 312.461 330.184 312.475C330.156 312.489 330.125 312.495 330.094 312.494C328.959 312.349 327.912 311.805 327.141 310.96ZM329.737 312.039C329.371 311.397 328.693 310.425 328.069 310.255C327.987 310.229 327.9 310.222 327.815 310.234C327.73 310.246 327.649 310.278 327.578 310.327C327.382 310.452 327.382 310.568 327.409 310.648C327.542 311.165 328.863 311.888 329.764 312.075L329.737 312.039Z" fill="#0B8CAD"/>
<path d="M284.548 321.04C283.924 321.09 283.3 320.944 282.764 320.62C282.623 320.519 282.508 320.385 282.429 320.229C282.35 320.074 282.309 319.903 282.309 319.728C282.297 319.634 282.311 319.538 282.35 319.451C282.39 319.364 282.453 319.291 282.532 319.238C283.344 318.685 286.412 320.076 286.992 320.362C287.027 320.378 287.056 320.405 287.075 320.438C287.094 320.472 287.103 320.511 287.099 320.549C287.094 320.586 287.078 320.621 287.052 320.648C287.027 320.675 286.993 320.694 286.956 320.701C286.168 320.898 285.36 321.011 284.548 321.04ZM283.112 319.488C282.988 319.48 282.864 319.508 282.755 319.568C282.755 319.568 282.684 319.63 282.693 319.737C282.695 319.854 282.725 319.969 282.779 320.073C282.833 320.177 282.91 320.266 283.005 320.335C283.531 320.736 284.789 320.79 286.394 320.487C285.367 319.989 284.269 319.652 283.139 319.488H283.112Z" fill="#0B8CAD"/>
<path d="M287.001 320.736H286.93C285.913 320.326 283.861 318.676 283.977 317.829C283.977 317.641 284.129 317.409 284.593 317.356C286.377 317.142 287.144 320.398 287.179 320.531C287.185 320.564 287.182 320.597 287.171 320.629C287.16 320.66 287.142 320.688 287.117 320.71C287.082 320.731 287.042 320.74 287.001 320.736ZM284.762 317.686H284.637C284.45 317.686 284.352 317.766 284.334 317.855C284.272 318.346 285.69 319.639 286.724 320.21C286.484 319.434 285.841 317.686 284.762 317.686Z" fill="#0B8CAD"/>
<path d="M261.08 100.796H259.545C259.545 100.796 260.571 101.688 261.08 100.796Z" fill="#263238"/>
<path d="M264.585 328.675H313.395C313.731 328.675 314.053 328.809 314.291 329.046C314.529 329.284 314.662 329.606 314.662 329.942V334.063H263.327V329.942C263.327 329.608 263.46 329.287 263.695 329.049C263.931 328.812 264.251 328.678 264.585 328.675Z" fill="#263238"/>
<path d="M315.099 347.702H263.764V353.08H315.099V347.702Z" fill="#263238"/>
<path opacity="0.5" d="M315.099 347.702H281.158V353.08H315.099V347.702Z" fill="black"/>
<path d="M286.1 334.054L280.329 370.18C280.281 370.477 280.129 370.747 279.9 370.943C279.672 371.139 279.381 371.248 279.08 371.25H276.253C276.07 371.25 275.889 371.21 275.723 371.133C275.558 371.057 275.41 370.945 275.292 370.806C275.173 370.667 275.086 370.504 275.036 370.328C274.986 370.153 274.975 369.968 275.004 369.788L280.721 334.018L286.1 334.054Z" fill="#263238"/>
<path opacity="0.5" d="M286.1 334.054L285.663 336.801H280.275L280.721 334.054H286.1Z" fill="black"/>
<path d="M268.706 334.054L262.935 370.18C262.886 370.477 262.734 370.747 262.506 370.943C262.277 371.139 261.987 371.248 261.686 371.25H258.858C258.676 371.25 258.495 371.21 258.329 371.133C258.163 371.057 258.016 370.945 257.898 370.806C257.779 370.667 257.692 370.504 257.642 370.328C257.592 370.153 257.581 369.968 257.61 369.788L263.327 334.018L268.706 334.054Z" fill="#263238"/>
<path d="M320.371 369.823L314.662 334.054H309.31L315.054 370.18C315.101 370.478 315.253 370.749 315.481 370.945C315.71 371.142 316.002 371.25 316.303 371.25H319.122C319.301 371.249 319.478 371.21 319.641 371.136C319.804 371.061 319.95 370.953 320.068 370.818C320.186 370.683 320.274 370.524 320.326 370.353C320.378 370.182 320.393 370.001 320.371 369.823Z" fill="#263238"/>
<path opacity="0.5" d="M315.099 336.801L314.662 334.054H309.274L309.711 336.801H315.099Z" fill="black"/>
<path d="M302.977 369.823L297.268 334.054H291.916L297.66 370.18C297.707 370.478 297.859 370.749 298.088 370.945C298.316 371.142 298.608 371.25 298.909 371.25H301.728C301.907 371.249 302.084 371.21 302.247 371.136C302.41 371.061 302.556 370.953 302.674 370.818C302.792 370.683 302.88 370.524 302.932 370.353C302.984 370.182 303 370.001 302.977 369.823Z" fill="#263238"/>
<path opacity="0.5" d="M302.977 369.823L297.268 334.054H291.916L297.66 370.18C297.707 370.478 297.859 370.749 298.088 370.945C298.316 371.142 298.608 371.25 298.909 371.25H301.728C301.907 371.249 302.084 371.21 302.247 371.136C302.41 371.061 302.556 370.953 302.674 370.818C302.792 370.683 302.88 370.524 302.932 370.353C302.984 370.182 303 370.001 302.977 369.823Z" fill="black"/>
<path opacity="0.5" d="M280.721 328.675H313.395C313.731 328.675 314.054 328.809 314.291 329.046C314.529 329.284 314.662 329.606 314.662 329.942V334.063H280.766V328.711L280.721 328.675Z" fill="black"/>
<path d="M130.036 366.371L137.181 353.259L111.625 330.861L109.627 366.371H130.036Z" fill="#0B8CAD"/>
<path opacity="0.1" d="M130.036 366.371L137.181 353.259L111.625 330.861L109.627 366.371H130.036Z" fill="black"/>
<path d="M218.112 216.952C232.446 207.14 244.453 208.148 248.44 211.012C252.427 213.875 239.761 235.622 239.761 235.622C235.024 234.246 230.639 231.866 226.903 228.645C223.168 225.423 220.169 221.435 218.112 216.952Z" fill="#0B8CAD"/>
<path opacity="0.2" d="M224.936 226.809C233.008 218.879 241.242 216.337 243.472 217.666C245.702 218.995 238.539 234.284 238.539 234.284C238.539 234.284 228.861 235.675 224.936 226.809Z" fill="black"/>
<path d="M93.562 247.708L92.7502 247.298C94.9912 242.888 97.6275 238.69 100.627 234.757L101.349 235.31C98.3879 239.201 95.7818 243.351 93.562 247.708Z" fill="#0B8CAD"/>
<path d="M89.3161 257.788L88.4241 257.494C89.102 255.505 89.8691 253.515 90.7076 251.589L91.5461 251.954C90.7433 253.845 89.9851 255.808 89.3161 257.788Z" fill="#0B8CAD"/>
<path d="M256.102 282.541C256.102 326.829 222.759 362.723 174.627 362.723C126.495 362.723 87.4785 326.829 87.4785 282.541C87.4785 238.253 126.495 202.359 174.627 202.359C222.759 202.359 256.102 238.253 256.102 282.541Z" fill="#0B8CAD"/>
<path opacity="0.1" d="M163.013 354.231L159.525 361.528C162.047 361.938 164.607 362.235 167.206 362.42L163.013 354.231Z" fill="black"/>
<path d="M157.732 371.286L167.758 353.259L135.691 341.538L131.588 371.286H157.732Z" fill="#0B8CAD"/>
<path d="M204.438 371.286L195.75 353.259L226.283 341.538L228.308 371.286H204.438Z" fill="#0B8CAD"/>
<path opacity="0.2" d="M226.372 294.128C226.372 306.117 215.775 315.831 202.743 315.831C189.711 315.831 179.158 306.117 179.158 294.128C179.158 282.14 189.719 272.426 202.743 272.426C215.766 272.426 226.372 282.14 226.372 294.128Z" fill="black"/>
<path opacity="0.2" d="M194.911 301.228C197.123 301.228 198.916 297.89 198.916 293.771C198.916 289.653 197.123 286.314 194.911 286.314C192.699 286.314 190.906 289.653 190.906 293.771C190.906 297.89 192.699 301.228 194.911 301.228Z" fill="black"/>
<path opacity="0.4" d="M166.269 253.649C167.42 257.155 166.358 260.981 163.905 262.186C161.452 263.39 158.553 261.517 157.376 258.011C156.198 254.505 157.278 250.679 159.731 249.475C162.184 248.27 165.118 250.135 166.269 253.649Z" fill="black"/>
<path opacity="0.4" d="M228.352 253.81C227.46 257.315 228.557 261.097 230.769 262.248C232.982 263.399 235.479 261.49 236.353 257.975C237.228 254.461 236.148 250.688 233.936 249.537C231.724 248.386 229.244 250.295 228.352 253.81Z" fill="black"/>
<path opacity="0.2" d="M216.221 301.228C218.433 301.228 220.226 297.89 220.226 293.771C220.226 289.653 218.433 286.314 216.221 286.314C214.009 286.314 212.216 289.653 212.216 293.771C212.216 297.89 214.009 301.228 216.221 301.228Z" fill="black"/>
<path d="M149.151 216.221C133.622 203.358 119.715 202.359 114.916 204.696C110.117 207.033 122.596 232.25 122.596 232.25C122.596 232.25 139.634 231.251 149.151 216.221Z" fill="#0B8CAD"/>
<path opacity="0.2" d="M140.41 225.48C131.891 215.668 122.686 211.582 120.001 212.599C117.316 213.616 124.122 231.028 124.122 231.028C124.122 231.028 135.094 234.186 140.41 225.48Z" fill="black"/>
<path opacity="0.4" d="M180.514 209.335H193.635C193.635 209.335 190.781 206.195 181.094 205.24C175.608 204.795 170.087 205.095 164.681 206.132C164.681 206.132 175.492 205.891 180.514 209.335Z" fill="black"/>
</svg>
