<svg width="400" height="400" viewBox="0 0 400 400" fill="none" xmlns="http://www.w3.org/2000/svg">
<path d="M200 342.048C285.666 342.048 355.112 337.993 355.112 332.992C355.112 327.99 285.666 323.936 200 323.936C114.334 323.936 44.8879 327.99 44.8879 332.992C44.8879 337.993 114.334 342.048 200 342.048Z" fill="#F5F5F5"/>
<path d="M104.288 155.408C103.584 157.008 102.808 158.736 102.128 160.424C101.448 162.112 100.744 163.848 100.128 165.576C98.8641 168.945 97.8507 172.402 97.096 175.92L96.864 177.2L96.784 177.68C96.784 177.816 96.784 177.992 96.736 178.152C96.7056 178.931 96.7216 179.711 96.784 180.488C96.936 182.176 97.208 183.984 97.584 185.792C98.256 189.416 99.112 193.152 99.984 196.832L95.88 198.432C93.9669 194.945 92.3377 191.309 91.008 187.56C90.3075 185.609 89.7408 183.612 89.312 181.584C89.0717 180.462 88.9219 179.322 88.864 178.176C88.864 177.856 88.864 177.552 88.864 177.208C88.864 176.864 88.864 176.48 88.92 176.256L89.08 174.656C89.319 172.595 89.6851 170.552 90.176 168.536C90.624 166.536 91.2 164.592 91.776 162.672C92.352 160.752 93.072 158.864 93.832 157.008C94.208 156.08 94.632 155.16 95 154.24C95.368 153.32 95.8 152.44 96.312 151.456L104.288 155.408Z" fill="#E4897B"/>
<path d="M99.768 195.752L102.888 198.8L96.08 202C96.08 202 94.432 199.112 95.576 196.504L99.768 195.752Z" fill="#E4897B"/>
<path d="M105.408 203.336L99.656 205.688L96.088 201.968L102.888 198.8L105.408 203.336Z" fill="#E4897B"/>
<path opacity="0.4" d="M221.928 200.056C210.609 198.785 199.92 194.187 191.214 186.842C182.508 179.498 176.175 169.737 173.015 158.793C169.856 147.85 170.012 136.215 173.463 125.361C176.915 114.506 183.508 104.918 192.408 97.8095C201.308 90.701 212.115 86.3907 223.465 85.4236C234.814 84.4566 246.195 86.8761 256.169 92.3765C266.144 97.8768 274.263 106.211 279.502 116.325C284.74 126.439 286.862 137.88 285.6 149.2C284.761 156.721 282.448 164.003 278.794 170.63C275.14 177.257 270.215 183.099 264.302 187.822C258.389 192.545 251.603 196.056 244.332 198.155C237.062 200.255 229.448 200.9 221.928 200.056Z" fill="#FAFAFA"/>
<path opacity="0.4" d="M263.832 97.432L176.232 167.424C175.864 166.624 175.504 165.824 175.168 165.024C172.972 159.8 171.567 154.278 171 148.64L246.664 88.184C252.876 90.2561 258.684 93.3847 263.832 97.432Z" fill="#FAFAFA"/>
<path opacity="0.4" d="M284.048 128.096L201.688 193.896C193.864 189.817 187.083 183.992 181.872 176.872L271.8 105.016C277.597 111.67 281.787 119.566 284.048 128.096Z" fill="#FAFAFA"/>
<path d="M163.512 120.8L162.752 120.544C164.068 116.66 165.723 112.899 167.696 109.304L168.392 109.688C166.445 113.243 164.812 116.961 163.512 120.8ZM173.224 102.128L172.576 101.656C179.15 92.7663 187.755 85.5771 197.672 80.688L198.032 81.408C188.228 86.2467 179.722 93.359 173.224 102.152V102.128ZM260.896 82.504C258.282 81.1018 255.577 79.8751 252.8 78.832L253.088 78.08C255.892 79.1475 258.624 80.3982 261.264 81.824L260.896 82.504Z" fill="#0B8CAD"/>
<path opacity="0.3" d="M163.512 120.8L162.752 120.544C164.068 116.66 165.723 112.899 167.696 109.304L168.392 109.688C166.445 113.243 164.812 116.961 163.512 120.8ZM173.224 102.128L172.576 101.656C179.15 92.7663 187.755 85.5771 197.672 80.688L198.032 81.408C188.228 86.2467 179.722 93.359 173.224 102.152V102.128ZM260.896 82.504C258.282 81.1018 255.577 79.8751 252.8 78.832L253.088 78.08C255.892 79.1475 258.624 80.3982 261.264 81.824L260.896 82.504Z" fill="black"/>
<path d="M287.896 113.392C280.488 98.0282 267.452 86.1043 251.491 80.0921C235.529 74.0798 217.866 74.4404 202.163 81.0991C186.46 87.7578 173.922 100.204 167.147 115.857C160.373 131.51 159.882 149.17 165.776 165.176C160.432 167.048 155.152 169.056 149.904 171.128C142.336 174.131 134.837 177.267 127.408 180.536C119.984 183.824 112.592 187.176 105.272 190.68C101.6 192.4 97.976 194.216 94.32 195.976C92.4181 196.793 90.6949 197.976 89.248 199.456C88.465 200.276 87.7755 201.18 87.192 202.152C86.4801 203.302 85.941 204.55 85.592 205.856C84.99 208.21 85.2503 210.702 86.3259 212.881C87.4014 215.06 89.2211 216.782 91.456 217.736C92.697 218.256 94.0064 218.596 95.344 218.744C96.4737 218.872 97.6143 218.872 98.744 218.744C100.797 218.495 102.781 217.845 104.584 216.832C108.208 215 111.856 213.232 115.456 211.352C122.656 207.68 129.856 203.848 136.968 199.96C144.08 196.072 151.2 192 158.144 187.824C162.944 184.92 167.792 181.952 172.544 178.848C181.669 193.253 195.986 203.596 212.529 207.732C229.072 211.869 246.572 209.483 261.404 201.068C276.235 192.653 287.261 178.855 292.196 162.532C297.131 146.21 295.597 128.614 287.912 113.392H287.896ZM251.528 189.816C242.231 194.405 231.782 196.134 221.502 194.785C211.222 193.436 201.573 189.069 193.775 182.236C185.978 175.403 180.381 166.412 177.693 156.398C175.005 146.385 175.346 135.799 178.674 125.98C182.002 116.16 188.167 107.548 196.389 101.232C204.611 94.9166 214.522 91.1806 224.867 90.4969C235.213 89.8132 245.528 92.2125 254.51 97.3913C263.492 102.57 270.737 110.296 275.328 119.592C278.377 125.766 280.18 132.479 280.634 139.35C281.088 146.22 280.184 153.113 277.974 159.634C275.764 166.155 272.291 172.177 267.753 177.356C263.216 182.534 257.702 186.768 251.528 189.816Z" fill="#0B8CAD"/>
<path opacity="0.3" d="M287.896 113.392C280.488 98.0282 267.452 86.1043 251.491 80.0921C235.529 74.0798 217.866 74.4404 202.163 81.0991C186.46 87.7578 173.922 100.204 167.147 115.857C160.373 131.51 159.882 149.17 165.776 165.176C160.432 167.048 155.152 169.056 149.904 171.128C142.336 174.131 134.837 177.267 127.408 180.536C119.984 183.824 112.592 187.176 105.272 190.68C101.6 192.4 97.976 194.216 94.32 195.976C92.4181 196.793 90.6949 197.976 89.248 199.456C88.465 200.276 87.7755 201.18 87.192 202.152C86.4801 203.302 85.941 204.55 85.592 205.856C84.99 208.21 85.2503 210.702 86.3259 212.881C87.4014 215.06 89.2211 216.782 91.456 217.736C92.697 218.256 94.0064 218.596 95.344 218.744C96.4737 218.872 97.6143 218.872 98.744 218.744C100.797 218.495 102.781 217.845 104.584 216.832C108.208 215 111.856 213.232 115.456 211.352C122.656 207.68 129.856 203.848 136.968 199.96C144.08 196.072 151.2 192 158.144 187.824C162.944 184.92 167.792 181.952 172.544 178.848C181.669 193.253 195.986 203.596 212.529 207.732C229.072 211.869 246.572 209.483 261.404 201.068C276.235 192.653 287.261 178.855 292.196 162.532C297.131 146.21 295.597 128.614 287.912 113.392H287.896ZM251.528 189.816C242.231 194.405 231.782 196.134 221.502 194.785C211.222 193.436 201.573 189.069 193.775 182.236C185.978 175.403 180.381 166.412 177.693 156.398C175.005 146.385 175.346 135.799 178.674 125.98C182.002 116.16 188.167 107.548 196.389 101.232C204.611 94.9166 214.522 91.1806 224.867 90.4969C235.213 89.8132 245.528 92.2125 254.51 97.3913C263.492 102.57 270.737 110.296 275.328 119.592C278.377 125.766 280.18 132.479 280.634 139.35C281.088 146.22 280.184 153.113 277.974 159.634C275.764 166.155 272.291 172.177 267.753 177.356C263.216 182.534 257.702 186.768 251.528 189.816Z" fill="black"/>
<path d="M126.4 126.84C126.4 127.312 126.648 127.696 126.96 127.696C127.272 127.696 127.52 127.312 127.52 126.84C127.52 126.368 127.272 125.984 126.96 125.984C126.648 125.984 126.4 126.4 126.4 126.84Z" fill="#263238"/>
<path d="M126.624 127.696C127.19 129.145 127.952 130.51 128.888 131.752C128.564 131.983 128.194 132.141 127.803 132.215C127.412 132.288 127.009 132.275 126.624 132.176V127.696Z" fill="#DE5753"/>
<path d="M124.744 124.208C124.699 124.208 124.655 124.198 124.615 124.179C124.575 124.159 124.54 124.131 124.512 124.096C124.47 124.035 124.454 123.96 124.466 123.887C124.478 123.814 124.517 123.749 124.576 123.704C124.928 123.437 125.34 123.259 125.776 123.185C126.212 123.111 126.659 123.144 127.08 123.28C127.118 123.29 127.153 123.308 127.183 123.333C127.214 123.358 127.239 123.389 127.256 123.424C127.274 123.459 127.284 123.497 127.286 123.536C127.288 123.575 127.282 123.614 127.268 123.651C127.254 123.687 127.232 123.72 127.204 123.748C127.177 123.776 127.144 123.797 127.107 123.811C127.071 123.826 127.031 123.832 126.992 123.83C126.953 123.828 126.915 123.818 126.88 123.8C126.546 123.698 126.192 123.677 125.848 123.739C125.504 123.802 125.181 123.946 124.904 124.16C124.857 124.191 124.801 124.208 124.744 124.208Z" fill="#263238"/>
<path d="M110.24 130.4C111.04 134.696 111.92 142.576 108.912 145.448C108.912 145.448 110.088 149.808 118.08 149.808C126.88 149.808 122.272 145.448 122.272 145.448C117.472 144.296 117.608 140.744 118.44 137.4L110.24 130.4Z" fill="#E4897B"/>
<path d="M105.32 147.712C106.272 146.232 104.672 142.64 104.672 142.64C104.672 142.64 118.816 139.08 124.6 144.544C125.8 145.672 124.472 147.336 124.472 147.336L105.32 147.712Z" fill="#0B8CAD"/>
<path opacity="0.1" d="M105.32 147.712C106.272 146.232 104.672 142.64 104.672 142.64C104.672 142.64 118.816 139.08 124.6 144.544C125.8 145.672 124.472 147.336 124.472 147.336L105.32 147.712Z" fill="black"/>
<path d="M81.92 310.936C81.176 310.936 79.984 309.696 79.632 309.232C79.6168 309.21 79.6088 309.183 79.6088 309.156C79.6088 309.129 79.6168 309.102 79.632 309.08C79.6449 309.058 79.6636 309.039 79.6861 309.026C79.7086 309.014 79.7341 309.007 79.76 309.008C79.848 309.008 81.808 309.184 82.344 309.88C82.4023 309.953 82.4439 310.039 82.466 310.13C82.4881 310.221 82.4901 310.316 82.472 310.408C82.465 310.527 82.4213 310.641 82.3468 310.734C82.2722 310.827 82.1706 310.895 82.056 310.928L81.92 310.936ZM80.064 309.336C80.648 310.008 81.584 310.768 81.984 310.672C81.984 310.672 82.144 310.632 82.192 310.376C82.2025 310.323 82.2008 310.267 82.1869 310.215C82.1731 310.162 82.1474 310.113 82.112 310.072C81.5193 309.623 80.8063 309.361 80.064 309.32V309.336Z" fill="#0B8CAD"/>
<path d="M80.1521 309.32C80.0084 309.335 79.8637 309.335 79.7201 309.32C79.6948 309.318 79.6706 309.309 79.6507 309.293C79.6307 309.277 79.6159 309.256 79.6081 309.232C79.5968 309.21 79.5909 309.185 79.5909 309.16C79.5909 309.135 79.5968 309.11 79.6081 309.088C79.6641 309.04 80.8401 307.816 81.7281 307.816C81.8343 307.814 81.9399 307.834 82.0378 307.875C82.1357 307.916 82.2237 307.978 82.2961 308.056C82.3757 308.123 82.4302 308.214 82.4506 308.316C82.4709 308.418 82.4559 308.524 82.4081 308.616C82.1761 309.064 80.9521 309.32 80.1521 309.32ZM80.0481 309.04C80.8481 309.04 82.0081 308.792 82.2001 308.44C82.2001 308.44 82.2561 308.336 82.1281 308.208C82.0815 308.157 82.0244 308.118 81.9609 308.091C81.8973 308.065 81.8288 308.053 81.7601 308.056C81.1043 308.207 80.5082 308.549 80.0481 309.04Z" fill="#0B8CAD"/>
<path d="M134.712 329.096C134.106 329.092 133.501 329.036 132.904 328.928C132.874 328.922 132.848 328.906 132.829 328.883C132.81 328.86 132.8 328.83 132.8 328.8C132.796 328.772 132.799 328.744 132.811 328.718C132.822 328.693 132.841 328.671 132.864 328.656C132.952 328.608 135 327.432 135.984 327.704C136.075 327.725 136.161 327.764 136.237 327.819C136.313 327.874 136.376 327.944 136.424 328.024C136.487 328.113 136.52 328.219 136.52 328.328C136.52 328.437 136.487 328.543 136.424 328.632C136.192 328.992 135.464 329.096 134.712 329.096ZM133.36 328.72C134.448 328.88 135.936 328.872 136.208 328.488C136.248 328.44 136.28 328.352 136.208 328.184C136.147 328.084 136.049 328.013 135.936 327.984C135.312 327.824 134.072 328.352 133.36 328.72Z" fill="#0B8CAD"/>
<path d="M132.936 328.936C132.91 328.944 132.882 328.944 132.856 328.936C132.834 328.922 132.817 328.901 132.807 328.877C132.796 328.853 132.794 328.826 132.8 328.8C132.854 327.967 133.174 327.174 133.712 326.536C133.821 326.442 133.949 326.373 134.087 326.333C134.225 326.293 134.37 326.283 134.512 326.304C134.896 326.304 135.008 326.536 135.032 326.688C135.136 327.352 133.736 328.624 133.024 328.944L132.936 328.936ZM134.368 326.536C134.192 326.535 134.021 326.597 133.888 326.712C133.436 327.217 133.155 327.853 133.088 328.528C133.808 328.088 134.768 327.096 134.688 326.696C134.688 326.696 134.688 326.56 134.416 326.536H134.368Z" fill="#0B8CAD"/>
<path d="M126.472 328.792H132.352L132.936 315.184H127.056L126.472 328.792Z" fill="#E4897B"/>
<path d="M74.1121 305.432L79.0241 308.648L89.8721 299.488L84.9521 296.264L74.1121 305.432Z" fill="#E4897B"/>
<path d="M79.832 308.344L74.728 304.16C74.6378 304.086 74.5247 304.045 74.408 304.045C74.2913 304.045 74.1782 304.086 74.088 304.16L69.88 307.464C69.7783 307.545 69.6962 307.648 69.6398 307.765C69.5834 307.882 69.5541 308.01 69.5541 308.14C69.5541 308.27 69.5834 308.398 69.6398 308.515C69.6962 308.632 69.7783 308.735 69.88 308.816C71.688 310.248 72.64 310.856 74.888 312.696C76.272 313.824 79.688 317.28 81.616 318.84C83.544 320.4 85.312 318.72 84.672 317.912C81.8 314.272 80.672 311.16 80.344 309.232C80.2873 308.883 80.1052 308.568 79.832 308.344Z" fill="#263238"/>
<path d="M132.312 328.112H125.912C125.795 328.112 125.682 328.152 125.591 328.225C125.499 328.297 125.435 328.398 125.408 328.512L124.248 333.736C124.219 333.863 124.219 333.994 124.248 334.121C124.277 334.247 124.335 334.366 124.417 334.467C124.498 334.568 124.602 334.649 124.72 334.704C124.837 334.759 124.966 334.786 125.096 334.784C127.408 334.744 130.752 334.608 133.664 334.608C137.064 334.608 140.008 334.792 143.992 334.792C146.392 334.792 147.08 332.352 146.064 332.136C141.472 331.128 137.712 331.024 133.744 328.568C133.318 328.286 132.822 328.128 132.312 328.112Z" fill="#263238"/>
<path d="M97.328 147.2C92.232 149.6 89.328 165.68 89.328 165.68L101.784 170.648C103.607 166.196 105.081 161.609 106.192 156.928C107.904 149.52 102.544 144.72 97.328 147.2Z" fill="#263238"/>
<path d="M103.936 156.264C100.856 159.384 99.448 165.496 98.832 169.472L101.816 170.664C103.587 166.338 105.032 161.886 106.136 157.344C105.872 155.648 105.216 154.968 103.936 156.264Z" fill="#203048"/>
<path d="M131.312 147.088C131.312 147.088 137.568 154.16 131.664 197.888H100.232C100.016 193.088 103.048 169.528 98.392 146.792C101.866 146.118 105.38 145.675 108.912 145.464C113.361 145.2 117.823 145.2 122.272 145.464C125.323 145.771 128.345 146.314 131.312 147.088Z" fill="#263238"/>
<path d="M134.184 164.064L128.888 154.936C127.866 159.195 127.448 163.577 127.648 167.952C127.792 171.088 130.664 182.704 133.248 184.4C133.934 177.644 134.246 170.855 134.184 164.064Z" fill="#203048"/>
<path d="M134.92 153.336C135.72 157.224 136.52 161.208 137.376 165.112C138.232 169.016 139.12 172.936 140.152 176.72C140.416 177.656 140.664 178.616 140.952 179.512L141.168 180.2L141.272 180.544V180.504C141.216 180.432 141.152 180.424 141.2 180.504C141.529 180.863 141.949 181.126 142.416 181.264C143.172 181.545 143.951 181.762 144.744 181.912C148.526 182.511 152.356 182.761 156.184 182.656L156.944 187.008C155.872 187.352 154.872 187.6 153.816 187.848C152.76 188.096 151.72 188.304 150.656 188.464C148.455 188.831 146.223 188.981 143.992 188.912C142.752 188.879 141.519 188.718 140.312 188.432C138.777 188.096 137.335 187.427 136.088 186.472C135.273 185.814 134.601 184.998 134.112 184.072C133.984 183.832 133.872 183.56 133.768 183.328L133.624 182.952L133.328 182.152C132.92 181.136 132.584 180.136 132.216 179.136C130.864 175.136 129.736 171.096 128.744 167.064C127.752 163.032 126.896 159.008 126.184 154.872L134.92 153.336Z" fill="#E4897B"/>
<path d="M123.464 151.376C121.808 156.744 128.52 172.752 128.52 172.752L141.888 169.392C141.888 169.392 141.376 161.072 138.328 154.472C133.736 144.52 125.448 144.936 123.464 151.376Z" fill="#263238"/>
<path d="M156.072 182.656L162.728 182.488L159.528 189.416C159.528 189.416 156.816 189.776 154.592 186.12L152.248 183.32L154.944 182.784C155.315 182.706 155.693 182.663 156.072 182.656Z" fill="#E4897B"/>
<path d="M166.928 183.776L163.12 189.52L159.528 189.416L162.728 182.488L166.928 183.776Z" fill="#E4897B"/>
<path d="M132.936 315.184L132.632 322.2H126.752L127.056 315.184H132.936Z" fill="#CE6F64"/>
<path d="M84.952 296.264L89.872 299.488L84.272 304.208L79.36 300.992L84.952 296.264Z" fill="#CE6F64"/>
<path d="M110.608 125.824C110.96 131.64 110.872 135.072 113.808 138.056C118.224 142.56 125.416 139.896 126.808 134.056C128.064 128.824 127.28 120.184 121.584 117.864C120.327 117.357 118.962 117.177 117.617 117.342C116.271 117.507 114.99 118.011 113.893 118.806C112.796 119.602 111.919 120.663 111.344 121.891C110.77 123.118 110.516 124.472 110.608 125.824Z" fill="#E4897B"/>
<path d="M103.76 124.8C105.208 130.104 108.616 136.216 113.024 136.608C118.496 137.088 120.968 131.432 121.688 125.592C124.968 123.344 123.248 120.872 126.536 120.56C130.76 120.16 129.408 112.432 123.848 111.192C123.848 111.192 125.712 114.672 121.8 112.912C118.08 111.144 113.946 110.427 109.848 110.84C109.848 110.84 114.84 113.336 109.96 114.448C105.08 115.56 103.624 118.568 105.872 120.384C105.872 120.392 102.808 121.312 103.76 124.8Z" fill="#263238"/>
<path d="M118.352 126.792C118.459 128.238 119.042 129.607 120.008 130.688C121.288 132.104 122.624 131.224 122.848 129.504C123.056 127.96 122.632 125.36 121.064 124.576C119.496 123.792 118.248 125.048 118.352 126.792Z" fill="#E4897B"/>
<path d="M120.512 197.888C120.512 197.888 126.24 239.368 121.728 255.992C114.576 282.312 87.232 304.528 87.232 304.528L77.96 298.448C77.96 298.448 101.248 279.688 104.096 257.648C106.656 237.864 100.232 213.936 100.232 197.88L120.512 197.888Z" fill="#0B8CAD"/>
<path opacity="0.1" d="M120.512 197.888C120.512 197.888 126.24 239.368 121.728 255.992C114.576 282.312 87.232 304.528 87.232 304.528L77.96 298.448C77.96 298.448 101.248 279.688 104.096 257.648C106.656 237.864 100.232 213.936 100.232 197.88L120.512 197.888Z" fill="black"/>
<path d="M122.88 221.6C121.355 219.853 119.676 218.247 117.864 216.8C118.84 230.264 119.64 250.208 118.752 264.376C119.946 261.66 120.941 258.861 121.728 256C123.928 247.88 123.696 233.856 122.88 221.6Z" fill="#0B8CAD"/>
<path opacity="0.3" d="M122.88 221.6C121.355 219.853 119.676 218.247 117.864 216.8C118.84 230.264 119.64 250.208 118.752 264.376C119.946 261.66 120.941 258.861 121.728 256C123.928 247.88 123.696 233.856 122.88 221.6Z" fill="black"/>
<path d="M90.968 302.456C91.008 302.456 87.376 304.856 87.376 304.856L77.248 298.216L80.448 295.568L90.968 302.456Z" fill="#0B8CAD"/>
<path opacity="0.3" d="M90.968 302.456C91.008 302.456 87.376 304.856 87.376 304.856L77.248 298.216L80.448 295.568L90.968 302.456Z" fill="black"/>
<path d="M131.664 197.888C131.664 197.888 140.512 235.408 141.136 253.336C141.84 273.432 134.824 320.84 134.824 320.84H124.864C124.864 320.84 123.64 273.064 123.2 254.76C122.712 234.8 111 197.888 111 197.888H131.664Z" fill="#0B8CAD"/>
<path opacity="0.1" d="M131.664 197.888C131.664 197.888 140.512 235.408 141.136 253.336C141.84 273.432 134.824 320.84 134.824 320.84H124.864C124.864 320.84 123.64 273.064 123.2 254.76C122.712 234.8 111 197.888 111 197.888H131.664Z" fill="black"/>
<path d="M136.736 316.88C136.784 316.88 136.176 321.008 136.176 321.008H124.064L123.736 317.32L136.736 316.88Z" fill="#0B8CAD"/>
<path opacity="0.3" d="M136.736 316.88C136.784 316.88 136.176 321.008 136.176 321.008H124.064L123.736 317.32L136.736 316.88Z" fill="black"/>
<path d="M284.8 161.832C285.48 162.472 286.016 163.016 286.576 163.624C287.136 164.232 287.664 164.824 288.176 165.44C289.216 166.664 290.192 167.952 291.136 169.248C293.021 171.848 294.699 174.592 296.152 177.456L296.448 178.04C296.593 178.323 296.713 178.617 296.808 178.92C297.001 179.505 297.12 180.113 297.16 180.728C297.212 181.813 297.063 182.898 296.72 183.928C296.136 185.639 295.268 187.24 294.152 188.664C292.142 191.246 289.771 193.525 287.112 195.432L285.12 193.144C286.056 192.048 287.032 190.872 287.904 189.696C288.791 188.557 289.594 187.353 290.304 186.096C290.968 184.999 291.459 183.806 291.76 182.56C291.863 182.114 291.882 181.653 291.816 181.2C291.787 181.048 291.739 180.9 291.672 180.76C291.642 180.699 291.607 180.64 291.568 180.584L291.312 180.152C289.769 177.636 288.095 175.204 286.296 172.864C285.408 171.688 284.456 170.56 283.496 169.448C283.024 168.888 282.536 168.344 282.048 167.8C281.56 167.256 281.032 166.712 280.608 166.288L284.8 161.832Z" fill="#E4897B"/>
<path d="M285.888 192.472L279.912 191.496L283.04 196.728C283.04 196.728 286.888 196.592 287.984 194.328L285.888 192.472Z" fill="#E4897B"/>
<path d="M275.496 193.912L278.344 198.16L283.04 196.728L279.912 191.496L275.496 193.912Z" fill="#E4897B"/>
<path d="M285.6 329.024C285.194 329.059 284.788 328.948 284.456 328.712C284.356 328.617 284.282 328.498 284.241 328.367C284.2 328.235 284.195 328.095 284.224 327.96C284.23 327.874 284.259 327.791 284.308 327.721C284.358 327.65 284.425 327.595 284.504 327.56C285.2 327.248 287.024 328.416 287.232 328.552C287.256 328.567 287.274 328.589 287.284 328.615C287.294 328.641 287.296 328.669 287.288 328.696C287.285 328.723 287.273 328.749 287.255 328.769C287.236 328.789 287.211 328.803 287.184 328.808C286.666 328.94 286.134 329.012 285.6 329.024ZM284.8 327.784C284.742 327.775 284.682 327.775 284.624 327.784C284.589 327.8 284.559 327.826 284.538 327.859C284.516 327.891 284.505 327.929 284.504 327.968C284.483 328.057 284.485 328.151 284.51 328.239C284.535 328.327 284.583 328.407 284.648 328.472C284.952 328.744 285.736 328.784 286.784 328.576C286.184 328.179 285.508 327.91 284.8 327.784Z" fill="#0B8CAD"/>
<path d="M287.2 328.8H287.128C286.56 328.472 285.464 327.2 285.6 326.504C285.626 326.394 285.687 326.296 285.773 326.224C285.86 326.152 285.968 326.11 286.08 326.104C286.188 326.088 286.298 326.098 286.402 326.131C286.506 326.164 286.601 326.221 286.68 326.296C287.336 326.872 287.344 328.6 287.344 328.696C287.343 328.72 287.335 328.744 287.323 328.765C287.31 328.786 287.293 328.803 287.272 328.816L287.2 328.8ZM286.176 326.4H286.112C285.936 326.4 285.896 326.496 285.88 326.568C285.8 326.976 286.48 327.952 287.048 328.408C287.062 327.737 286.869 327.078 286.496 326.52C286.448 326.475 286.391 326.441 286.329 326.421C286.267 326.4 286.201 326.393 286.136 326.4H286.176Z" fill="#0B8CAD"/>
<path d="M258.336 329.024C257.825 329.073 257.314 328.943 256.888 328.656C256.792 328.571 256.718 328.464 256.672 328.344C256.626 328.225 256.61 328.095 256.624 327.968C256.629 327.89 256.654 327.815 256.696 327.749C256.738 327.684 256.796 327.629 256.864 327.592C257.608 327.176 259.992 328.392 260.264 328.544C260.289 328.56 260.309 328.583 260.322 328.61C260.334 328.637 260.339 328.667 260.336 328.696C260.331 328.724 260.318 328.75 260.298 328.77C260.278 328.79 260.252 328.803 260.224 328.808C259.603 328.94 258.971 329.012 258.336 329.024ZM257.272 327.784C257.181 327.778 257.089 327.797 257.008 327.84C256.979 327.854 256.955 327.875 256.938 327.902C256.921 327.929 256.912 327.96 256.912 327.992C256.9 328.075 256.908 328.16 256.936 328.24C256.964 328.319 257.01 328.391 257.072 328.448C257.44 328.776 258.424 328.832 259.752 328.608C258.978 328.196 258.139 327.917 257.272 327.784Z" fill="#0B8CAD"/>
<path d="M260.2 328.8H260.136C259.424 328.48 258.008 327.2 258.12 326.504C258.12 326.344 258.264 326.144 258.656 326.104C258.799 326.089 258.944 326.103 259.082 326.145C259.219 326.188 259.347 326.258 259.456 326.352C260.208 326.976 260.352 328.592 260.352 328.664C260.355 328.688 260.352 328.713 260.342 328.736C260.332 328.758 260.316 328.778 260.296 328.792C260.266 328.805 260.232 328.808 260.2 328.8ZM258.768 326.4H258.68C258.424 326.4 258.408 326.528 258.4 326.56C258.336 326.968 259.296 327.984 260 328.424C259.931 327.74 259.651 327.095 259.2 326.576C259.079 326.473 258.927 326.411 258.768 326.4Z" fill="#0B8CAD"/>
<path d="M269.656 143.44C269.424 147.056 268.8 154.4 271.576 156.432C271.576 156.432 271.072 160.136 264.52 161C257.32 161.936 260.608 157.872 260.608 157.872C264.424 156.416 263.936 153.512 262.896 150.856L269.656 143.44Z" fill="#E4897B"/>
<path d="M254.752 137.048C254.713 137.048 254.673 137.04 254.637 137.023C254.602 137.006 254.57 136.982 254.544 136.952C254.315 136.681 254.026 136.467 253.699 136.328C253.373 136.189 253.018 136.129 252.664 136.152C252.627 136.159 252.588 136.158 252.551 136.149C252.514 136.141 252.479 136.125 252.448 136.103C252.418 136.08 252.392 136.052 252.373 136.019C252.353 135.986 252.341 135.95 252.336 135.912C252.327 135.837 252.348 135.761 252.394 135.701C252.441 135.641 252.509 135.602 252.584 135.592C253.036 135.554 253.49 135.626 253.908 135.801C254.326 135.977 254.695 136.251 254.984 136.6C255.019 136.642 255.041 136.692 255.048 136.746C255.055 136.8 255.047 136.855 255.024 136.904C255.002 136.953 254.966 136.995 254.92 137.025C254.875 137.055 254.822 137.071 254.768 137.072L254.752 137.048Z" fill="#263238"/>
<path d="M253.504 140.592C253.22 141.739 252.782 142.843 252.2 143.872C252.467 144.016 252.763 144.099 253.065 144.115C253.368 144.132 253.671 144.082 253.952 143.968L253.504 140.592Z" fill="#DE5753"/>
<path d="M253.824 139.712C253.888 140.192 253.688 140.608 253.376 140.656C253.064 140.704 252.752 140.336 252.696 139.856C252.64 139.376 252.832 138.96 253.144 138.92C253.456 138.88 253.768 139.2 253.824 139.712Z" fill="#263238"/>
<path d="M253.288 138.928L252.096 138.744C252.096 138.744 252.8 139.568 253.288 138.928Z" fill="#263238"/>
<path d="M266.792 328.672H260.792L260.392 314.792H266.392L266.792 328.672Z" fill="#E4897B"/>
<path d="M294.032 328.672H288.032L286.104 314.792H292.104L294.032 328.672Z" fill="#E4897B"/>
<path d="M287.664 328H294.4C294.515 327.999 294.626 328.04 294.713 328.115C294.8 328.19 294.856 328.294 294.872 328.408L295.672 333.744C295.687 333.879 295.673 334.015 295.631 334.143C295.589 334.272 295.521 334.391 295.43 334.491C295.34 334.592 295.229 334.672 295.105 334.726C294.981 334.781 294.847 334.809 294.712 334.808C292.368 334.768 291.232 334.632 288.272 334.632C286.448 334.632 283.784 334.816 281.272 334.816C278.76 334.816 278.624 332.328 279.672 332.104C284.368 331.096 285.112 329.704 286.688 328.368C286.963 328.14 287.307 328.01 287.664 328Z" fill="#263238"/>
<path d="M260.592 328H267.32C267.436 327.999 267.548 328.039 267.636 328.114C267.725 328.189 267.783 328.294 267.8 328.408L268.6 333.744C268.615 333.879 268.601 334.015 268.559 334.143C268.517 334.272 268.449 334.391 268.358 334.491C268.268 334.592 268.157 334.672 268.033 334.726C267.909 334.781 267.775 334.809 267.64 334.808C265.296 334.768 264.16 334.632 261.2 334.632C259.376 334.632 255.6 334.816 253.088 334.816C250.576 334.816 250.44 332.328 251.488 332.104C256.184 331.096 258.032 329.704 259.616 328.368C259.891 328.14 260.235 328.01 260.592 328Z" fill="#263238"/>
<path d="M260.392 314.792L260.6 321.952H266.6L266.392 314.792H260.392Z" fill="#CE6F64"/>
<path d="M292.104 314.792H286.104L287.104 321.952H293.096L292.104 314.792Z" fill="#CE6F64"/>
<path d="M269.736 135.952C270.144 141.888 270.44 144.392 267.864 147.808C263.984 152.936 256.608 152.144 254.432 146.448C252.472 141.32 252.136 132.48 257.592 129.376C258.792 128.688 260.148 128.318 261.532 128.302C262.915 128.285 264.28 128.622 265.496 129.281C266.713 129.939 267.741 130.898 268.483 132.066C269.225 133.233 269.656 134.571 269.736 135.952Z" fill="#E4897B"/>
<path d="M273.192 141.464C276.52 143.32 278.992 138.744 278.992 138.744C278.992 138.744 273.024 139.392 273.56 135.84C274.264 131.128 270.888 125.4 262.424 126.136C261.952 126.176 261.504 126.232 261.064 126.304C260.178 125.884 259.176 125.776 258.22 125.996C257.265 126.217 256.412 126.754 255.8 127.52C253.4 127.72 250.16 130.584 252.36 134.368C252.514 133.933 252.754 133.533 253.064 133.192C253.248 135.408 255.184 138.928 257.6 139.16C258.12 142.192 256.104 145.704 256.8 148.872C257.832 153.44 265.536 154.472 265.536 154.472C265.27 153.902 265.171 153.268 265.251 152.643C265.33 152.019 265.584 151.43 265.984 150.944C271.216 153.344 274.664 151 274.664 151C271.096 149.672 272.176 147.304 272.176 147.304C273.408 147.851 274.804 147.899 276.071 147.438C277.337 146.977 278.376 146.043 278.968 144.832C277.783 144.888 276.607 144.6 275.582 144.003C274.557 143.405 273.727 142.523 273.192 141.464Z" fill="#263238"/>
<path d="M259.688 140.072C259.702 140.642 259.603 141.209 259.397 141.74C259.191 142.271 258.882 142.757 258.488 143.168C257.432 144.264 256.136 143.496 255.784 142.096C255.472 140.832 255.648 138.744 257.024 138.168C257.327 138.049 257.655 138.008 257.978 138.048C258.301 138.087 258.608 138.207 258.873 138.397C259.138 138.586 259.351 138.838 259.493 139.131C259.636 139.423 259.703 139.747 259.688 140.072Z" fill="#E4897B"/>
<path d="M264.672 195.376C264.672 195.376 266.192 234.864 269.808 258.048C272.72 276.784 285.656 320.56 285.656 320.56H293.832C293.832 320.56 287.088 278.28 285.608 259.76C281.864 212.888 291.584 202.824 282.408 193.064L264.672 195.376Z" fill="#263238"/>
<path d="M271.504 207.864C271.504 207.864 267.808 207.224 265.648 214.264C266.448 227.6 267.816 245.296 269.808 258.048C270.248 260.888 270.92 264.312 271.744 268.064C270.184 245.536 271.504 207.864 271.504 207.864Z" fill="#161F33"/>
<path d="M258.296 196.208C258.296 196.208 251.56 239.896 251.952 258.176C252.36 277.192 259.328 320.576 259.328 320.576H267.432C267.432 320.576 266.152 278.32 266.864 259.648C267.664 239.288 275.976 193.912 275.976 193.912L258.296 196.208Z" fill="#263238"/>
<path d="M295.016 320.944H284.144L283.296 317.296L294.936 317.376L295.016 320.944Z" fill="#0B8CAD"/>
<path opacity="0.2" d="M295.016 320.944H284.144L283.296 317.296L294.936 317.376L295.016 320.944Z" fill="black"/>
<path d="M282 156.44C285.128 156.744 289.88 165.632 289.88 165.632L281.984 171.688C281.984 171.688 275.448 165.952 276.224 162.728C277.032 159.376 279 156.16 282 156.44Z" fill="#0B8CAD"/>
<path opacity="0.1" d="M282 156.44C285.128 156.744 289.88 165.632 289.88 165.632L281.984 171.688C281.984 171.688 275.448 165.952 276.224 162.728C277.032 159.376 279 156.16 282 156.44Z" fill="black"/>
<path d="M279.64 160.264C278.843 160.049 278.017 159.957 277.192 159.992C276.772 160.867 276.448 161.784 276.224 162.728C275.424 165.928 281.984 171.688 281.984 171.688L282.568 171.24L279.64 160.264Z" fill="#0B8CAD"/>
<path opacity="0.3" d="M279.64 160.264C278.843 160.049 278.017 159.957 277.192 159.992C276.772 160.867 276.448 161.784 276.224 162.728C275.424 165.928 281.984 171.688 281.984 171.688L282.568 171.24L279.64 160.264Z" fill="black"/>
<path d="M255.616 168.8C253.336 174.568 250.936 180.432 249.024 186.216C248.896 186.584 248.792 186.936 248.68 187.296L248.408 188.184C248.334 188.446 248.334 188.723 248.408 188.984C248.86 189.984 249.576 190.842 250.48 191.464C252.872 193.18 255.478 194.576 258.232 195.616L257.512 198.56C254.124 198.113 250.848 197.045 247.848 195.408C246.002 194.422 244.498 192.899 243.536 191.04C242.983 189.852 242.792 188.528 242.984 187.232C243.002 187.073 243.029 186.916 243.064 186.76L243.144 186.424L243.28 185.816C243.376 185.408 243.472 185.016 243.576 184.616C244.376 181.416 245.4 178.376 246.48 175.36C247.56 172.344 248.688 169.368 249.96 166.4L255.616 168.8Z" fill="#E4897B"/>
<path d="M250.76 160.704C250.76 160.704 248.056 162.072 258.296 196.208L282.44 193.056C280.744 183.28 279.944 177.224 282 156.44C278.538 156.192 275.062 156.192 271.6 156.44C267.914 156.654 264.249 157.136 260.632 157.88C256 158.912 250.76 160.704 250.76 160.704Z" fill="#0B8CAD"/>
<path opacity="0.1" d="M250.76 160.704C250.76 160.704 248.056 162.072 258.296 196.208L282.44 193.056C280.744 183.28 279.944 177.224 282 156.44C278.538 156.192 275.062 156.192 271.6 156.44C267.914 156.654 264.249 157.136 260.632 157.88C256 158.912 250.76 160.704 250.76 160.704Z" fill="black"/>
<path d="M282.616 191.592L284 193.6C284.104 193.76 283.928 193.952 283.656 193.992L258.336 197.304C258.12 197.304 257.92 197.248 257.888 197.112L257.392 194.976C257.352 194.832 257.528 194.68 257.768 194.648L282.216 191.448C282.289 191.436 282.365 191.443 282.435 191.468C282.505 191.494 282.567 191.536 282.616 191.592Z" fill="#0B8CAD"/>
<path opacity="0.2" d="M282.616 191.592L284 193.6C284.104 193.76 283.928 193.952 283.656 193.992L258.336 197.304C258.12 197.304 257.92 197.248 257.888 197.112L257.392 194.976C257.352 194.832 257.528 194.68 257.768 194.648L282.216 191.448C282.289 191.436 282.365 191.443 282.435 191.468C282.505 191.494 282.567 191.536 282.616 191.592Z" fill="black"/>
<path d="M279.688 194.752L280.344 194.664C280.472 194.664 280.56 194.568 280.544 194.488L279.872 191.72C279.847 191.673 279.806 191.636 279.756 191.615C279.706 191.595 279.651 191.592 279.6 191.608L278.944 191.688C278.808 191.688 278.72 191.784 278.744 191.872L279.416 194.632C279.432 194.72 279.56 194.768 279.688 194.752Z" fill="#263238"/>
<path d="M263.816 196.8L264.472 196.712C264.6 196.712 264.696 196.616 264.672 196.536L264 193.768C263.974 193.721 263.933 193.684 263.884 193.663C263.835 193.641 263.78 193.636 263.728 193.648L263.072 193.736C262.944 193.736 262.848 193.832 262.872 193.912L263.544 196.68C263.56 196.8 263.688 196.848 263.816 196.8Z" fill="#263238"/>
<path d="M251.888 172.288C252.552 175.376 253.488 179.288 254.856 184.24L255.152 171.688L251.888 172.288Z" fill="#0B8CAD"/>
<path opacity="0.3" d="M251.888 172.288C252.552 175.376 253.488 179.288 254.856 184.24L255.152 171.688L251.888 172.288Z" fill="black"/>
<path d="M250.76 160.704C247.76 161.912 245.16 172.176 245.16 172.176L255.48 177.2C255.48 177.2 260.464 164.648 258.232 162.2C256 159.752 254.216 159.32 250.76 160.704Z" fill="#0B8CAD"/>
<path opacity="0.1" d="M250.76 160.704C247.76 161.912 245.16 172.176 245.16 172.176L255.48 177.2C255.48 177.2 260.464 164.648 258.232 162.2C256 159.752 254.216 159.32 250.76 160.704Z" fill="black"/>
<path d="M268.816 320.944H257.944L257.096 317.296L269.2 317.376L268.816 320.944Z" fill="#0B8CAD"/>
<path opacity="0.2" d="M268.816 320.944H257.944L257.096 317.296L269.2 317.376L268.816 320.944Z" fill="black"/>
<path d="M258.4 194.624L257.528 194.264C257.314 194.177 257.08 194.148 256.851 194.18C256.622 194.212 256.405 194.305 256.223 194.448C256.041 194.591 255.9 194.779 255.815 194.994C255.729 195.209 255.702 195.443 255.736 195.672L256.368 199.84C256.398 200.049 256.475 200.248 256.591 200.423C256.708 200.599 256.862 200.746 257.043 200.855C257.224 200.964 257.426 201.031 257.636 201.052C257.846 201.073 258.057 201.047 258.256 200.976C258.573 200.861 258.87 200.696 259.136 200.488C259.425 200.248 259.654 199.943 259.804 199.599C259.954 199.254 260.021 198.879 260 198.504L259.912 196.776C259.897 196.309 259.746 195.857 259.477 195.474C259.208 195.092 258.834 194.797 258.4 194.624Z" fill="#E4897B"/>
</svg>
