<svg width="200" height="200" viewBox="0 0 200 200" fill="none" xmlns="http://www.w3.org/2000/svg">
<path d="M96.1878 50.8398C115.428 52.9918 123.872 36.3118 142.94 38.4958C159.956 40.4438 171.692 52.5679 167.72 68.8959C164.192 83.3919 147.396 87.9399 141.424 101.52C135.092 115.92 130.184 131.436 111.064 136.448C73.5238 146.288 55.2878 100.096 52.7318 73.5639C51.7518 63.3799 50.0398 39.0318 63.3358 35.8798C76.7158 32.7038 84.3998 49.5198 96.1878 50.8398Z" fill="#0B8CAD"/>
<path opacity="0.9" d="M96.1878 50.8398C115.428 52.9918 123.872 36.3118 142.94 38.4958C159.956 40.4438 171.692 52.5679 167.72 68.8959C164.192 83.3919 147.396 87.9399 141.424 101.52C135.092 115.92 130.184 131.436 111.064 136.448C73.5238 146.288 55.2878 100.096 52.7318 73.5639C51.7518 63.3799 50.0398 39.0318 63.3358 35.8798C76.7158 32.7038 84.3998 49.5198 96.1878 50.8398Z" fill="white"/>
<path d="M99.9994 171.024C142.832 171.024 177.555 168.997 177.555 166.496C177.555 163.995 142.832 161.968 99.9994 161.968C57.1664 161.968 22.4434 163.995 22.4434 166.496C22.4434 168.997 57.1664 171.024 99.9994 171.024Z" fill="#F5F5F5"/>
<path d="M41.648 80.9434L41.249 80.9722L41.7804 88.3491L42.1794 88.3203L41.648 80.9434Z" fill="#0B8CAD"/>
<path d="M42.4507 92.1285L42.0518 92.1572L42.2518 94.934L42.6507 94.9053L42.4507 92.1285Z" fill="#0B8CAD"/>
<path d="M135.085 126.064H49.421C48.4674 126.047 47.5539 125.677 46.8567 125.026C46.1595 124.376 45.7278 123.49 45.6449 122.54L41.4369 64.0879C41.3978 63.6371 41.4535 63.1831 41.6005 62.7551C41.7475 62.3272 41.9825 61.9348 42.2904 61.6032C42.5982 61.2716 42.9721 61.0081 43.388 60.8298C43.8039 60.6515 44.2525 60.5623 44.705 60.5679H130.369C131.322 60.5849 132.235 60.9539 132.932 61.6038C133.629 62.2537 134.061 63.1385 134.145 64.0879L138.353 122.54C138.392 122.991 138.336 123.445 138.189 123.873C138.042 124.301 137.808 124.694 137.5 125.026C137.192 125.358 136.818 125.622 136.402 125.8C135.986 125.979 135.538 126.069 135.085 126.064Z" fill="#0B8CAD"/>
<path d="M135.412 126.064H49.7481C48.7945 126.047 47.8811 125.677 47.1839 125.026C46.4866 124.376 46.055 123.49 45.9721 122.54L41.7641 64.0879C41.725 63.6371 41.7807 63.1831 41.9277 62.7551C42.0746 62.3272 42.3096 61.9348 42.6175 61.6032C42.9254 61.2716 43.2993 61.0081 43.7152 60.8298C44.131 60.6515 44.5796 60.5623 45.0321 60.5679H130.696C131.649 60.5849 132.562 60.9539 133.259 61.6038C133.956 62.2537 134.388 63.1385 134.472 64.0879L138.68 122.54C138.72 122.991 138.665 123.445 138.518 123.874C138.371 124.302 138.136 124.695 137.828 125.027C137.52 125.359 137.146 125.623 136.73 125.802C136.314 125.98 135.865 126.07 135.412 126.064Z" fill="#0B8CAD"/>
<path opacity="0.5" d="M135.412 126.064H49.7481C48.7945 126.047 47.8811 125.677 47.1839 125.026C46.4866 124.376 46.055 123.49 45.9721 122.54L41.7641 64.0879C41.725 63.6371 41.7807 63.1831 41.9277 62.7551C42.0746 62.3272 42.3096 61.9348 42.6175 61.6032C42.9254 61.2716 43.2993 61.0081 43.7152 60.8298C44.131 60.6515 44.5796 60.5623 45.0321 60.5679H130.696C131.649 60.5849 132.562 60.9539 133.259 61.6038C133.956 62.2537 134.388 63.1385 134.472 64.0879L138.68 122.54C138.72 122.991 138.665 123.445 138.518 123.874C138.371 124.302 138.136 124.695 137.828 125.027C137.52 125.359 137.146 125.623 136.73 125.802C136.314 125.98 135.865 126.07 135.412 126.064Z" fill="white"/>
<path d="M130.825 62.3279H45.1607H44.8727C42.6847 62.5079 43.1327 65.8399 45.3407 65.8399H131.149C133.361 65.8399 133.329 62.5079 131.113 62.3279H130.825Z" fill="#0B8CAD"/>
<path d="M47.3929 64.0879C47.4013 64.191 47.388 64.2948 47.3538 64.3924C47.3196 64.4901 47.2653 64.5795 47.1945 64.6549C47.1236 64.7303 47.0377 64.79 46.9424 64.8301C46.847 64.8702 46.7443 64.8899 46.6409 64.8879C46.4235 64.8849 46.2149 64.8014 46.0553 64.6537C45.8958 64.506 45.7966 64.3044 45.7769 64.0879C45.7685 63.9851 45.7817 63.8817 45.8156 63.7844C45.8495 63.687 45.9035 63.5978 45.9739 63.5224C46.0443 63.4471 46.1297 63.3873 46.2246 63.347C46.3195 63.3066 46.4217 63.2865 46.5249 63.2879C46.7429 63.29 46.9525 63.373 47.1129 63.5208C47.2733 63.6686 47.373 63.8707 47.3929 64.0879Z" fill="#FAFAFA"/>
<path d="M50.1409 64.0879C50.1493 64.191 50.136 64.2948 50.1018 64.3924C50.0677 64.4901 50.0134 64.5795 49.9425 64.6549C49.8717 64.7303 49.7858 64.79 49.6904 64.8301C49.5951 64.8702 49.4923 64.8899 49.3889 64.8879C49.1715 64.8849 48.9629 64.8014 48.8034 64.6537C48.6439 64.506 48.5446 64.3044 48.5249 64.0879C48.5165 63.9851 48.5297 63.8817 48.5637 63.7844C48.5976 63.687 48.6515 63.5978 48.7219 63.5224C48.7924 63.4471 48.8778 63.3873 48.9726 63.347C49.0675 63.3066 49.1698 63.2865 49.2729 63.2879C49.491 63.29 49.7006 63.373 49.8609 63.5208C50.0213 63.6686 50.1211 63.8707 50.1409 64.0879Z" fill="#FAFAFA"/>
<path d="M52.8843 64.0877C52.8927 64.1905 52.8795 64.2939 52.8456 64.3913C52.8116 64.4887 52.7577 64.5779 52.6873 64.6532C52.6169 64.7285 52.5315 64.7883 52.4366 64.8287C52.3417 64.8691 52.2394 64.8892 52.1363 64.8877C51.9187 64.8856 51.7096 64.8024 51.5499 64.6546C51.3902 64.5067 51.2912 64.3046 51.2723 64.0877C51.2633 63.9848 51.2761 63.8812 51.3098 63.7835C51.3435 63.6859 51.3974 63.5964 51.4679 63.5209C51.5385 63.4455 51.6241 63.3857 51.7193 63.3455C51.8145 63.3054 51.9171 63.2857 52.0203 63.2877C52.2377 63.2908 52.4463 63.3742 52.6059 63.5219C52.7654 63.6697 52.8646 63.8712 52.8843 64.0877Z" fill="#FAFAFA"/>
<path d="M133.14 120.232H51.2002C50.8541 120.226 50.5224 120.092 50.2696 119.856C50.0169 119.619 49.861 119.297 49.8322 118.952L46.3722 70.884C46.3568 70.7191 46.3767 70.5527 46.4305 70.396C46.4843 70.2394 46.5708 70.0959 46.6843 69.9752C46.7978 69.8546 46.9357 69.7594 47.0888 69.6961C47.2419 69.6328 47.4067 69.6028 47.5722 69.608H129.532C129.878 69.6128 130.21 69.7461 130.463 69.9819C130.715 70.2178 130.871 70.5394 130.9 70.884L134.364 118.952C134.379 119.119 134.358 119.287 134.303 119.446C134.247 119.604 134.159 119.749 134.043 119.87C133.927 119.991 133.786 120.086 133.631 120.149C133.475 120.211 133.308 120.24 133.14 120.232Z" fill="white"/>
<path d="M98.6123 101.92L97.2763 83.3917L93.2363 80.9597H82.1123L83.6243 101.92H98.6123Z" fill="white"/>
<path d="M98.6124 102.112H83.6244C83.5748 102.113 83.5267 102.095 83.4902 102.061C83.4536 102.028 83.4315 101.981 83.4284 101.932L81.9204 80.9719C81.9185 80.9456 81.9221 80.9192 81.9311 80.8944C81.9401 80.8696 81.9541 80.8469 81.9724 80.8279C81.9901 80.8082 82.0116 80.7923 82.0357 80.7813C82.0598 80.7703 82.0859 80.7643 82.1124 80.7639H93.2364C93.2715 80.7651 93.3058 80.7747 93.3364 80.7919L97.3764 83.2239C97.4036 83.2395 97.4266 83.2615 97.4433 83.288C97.46 83.3145 97.47 83.3447 97.4724 83.3759L98.8004 101.904C98.8032 101.931 98.8 101.958 98.791 101.984C98.782 102.009 98.7675 102.033 98.7484 102.052C98.731 102.071 98.71 102.086 98.6866 102.096C98.6632 102.106 98.638 102.112 98.6124 102.112ZM83.8124 101.712H98.4004L97.0884 83.4919L93.2004 81.1519H82.3204L83.8124 101.712Z" fill="#0B8CAD"/>
<path d="M97.2763 83.3917L93.2363 80.9597L94.7203 84.1837L97.2763 83.3917Z" fill="#EBEBEB"/>
<path d="M94.7211 84.3759C94.6842 84.3757 94.6481 84.3651 94.6169 84.3453C94.5858 84.3255 94.5609 84.2973 94.5451 84.2639L93.0611 81.0399C93.0438 81.002 93.0387 80.9597 93.0466 80.9189C93.0545 80.878 93.0749 80.8406 93.1051 80.8119C93.1368 80.7848 93.1763 80.7682 93.2179 80.7647C93.2595 80.7611 93.3012 80.7706 93.3371 80.7919L97.3771 83.2239C97.4097 83.2435 97.436 83.2719 97.453 83.3059C97.47 83.3399 97.477 83.3781 97.4731 83.4159C97.4679 83.4527 97.4524 83.4873 97.4283 83.5157C97.4042 83.544 97.3726 83.5649 97.3371 83.5759L94.7771 84.3759H94.7211ZM93.6771 81.4479L94.8251 83.9479L96.8251 83.3359L93.6771 81.4479Z" fill="#0B8CAD"/>
<path d="M88.4008 90.3998C88.4067 90.5085 88.3905 90.6172 88.353 90.7194C88.3155 90.8216 88.2575 90.9151 88.1826 90.9941C88.1077 91.0731 88.0175 91.136 87.9174 91.1789C87.8174 91.2219 87.7096 91.2439 87.6008 91.2438C87.3724 91.2397 87.1537 91.1512 86.9867 90.9953C86.8198 90.8394 86.7165 90.6273 86.6968 90.3998C86.6864 90.2899 86.6997 90.1791 86.7356 90.0748C86.7715 89.9705 86.8292 89.875 86.9049 89.7948C86.9806 89.7145 87.0726 89.6513 87.1746 89.6094C87.2767 89.5675 87.3865 89.5479 87.4968 89.5518C87.7255 89.5568 87.9442 89.6462 88.1111 89.8027C88.2779 89.9592 88.3811 90.1718 88.4008 90.3998Z" fill="#0B8CAD"/>
<path d="M93.8803 90.3998C93.89 90.5093 93.8764 90.6196 93.8402 90.7235C93.804 90.8273 93.7462 90.9223 93.6706 91.0021C93.5949 91.0819 93.5032 91.1447 93.4014 91.1864C93.2997 91.228 93.1902 91.2476 93.0803 91.2438C92.8516 91.2398 92.6323 91.1514 92.4647 90.9956C92.2971 90.8398 92.193 90.6276 92.1723 90.3998C92.1658 90.2907 92.1816 90.1815 92.2189 90.0789C92.2562 89.9762 92.314 89.8822 92.389 89.8028C92.4639 89.7233 92.5544 89.6601 92.6547 89.6169C92.755 89.5737 92.8631 89.5516 92.9723 89.5518C93.202 89.555 93.4223 89.6436 93.5901 89.8004C93.758 89.9571 93.8615 90.1708 93.8803 90.3998Z" fill="#0B8CAD"/>
<path d="M95.4322 95.896C95.3835 95.8951 95.3369 95.8762 95.3015 95.843C95.266 95.8097 95.2441 95.7644 95.2402 95.7159C95.1402 94.352 93.0042 93.244 90.4802 93.244C88.8042 93.244 87.3002 93.744 86.5562 94.544C86.4033 94.6914 86.2836 94.8696 86.205 95.0669C86.1264 95.2641 86.0906 95.4758 86.1002 95.688C86.102 95.7142 86.0986 95.7406 86.0903 95.7656C86.0819 95.7905 86.0688 95.8136 86.0515 95.8335C86.0166 95.8736 85.9672 95.8982 85.9142 95.902C85.8611 95.9057 85.8088 95.8882 85.7686 95.8533C85.7285 95.8184 85.7039 95.769 85.7002 95.7159C85.6882 95.4508 85.7319 95.1861 85.8284 94.9388C85.9248 94.6915 86.0719 94.4671 86.2602 94.28C87.0602 93.404 88.6882 92.856 90.4682 92.856C93.2402 92.856 95.5002 94.1 95.6122 95.688C95.6138 95.7132 95.6104 95.7385 95.6022 95.7624C95.5941 95.7863 95.5813 95.8084 95.5645 95.8273C95.5478 95.8463 95.5275 95.8618 95.5048 95.8728C95.4821 95.8839 95.4574 95.8904 95.4322 95.8919V95.896Z" fill="#0B8CAD"/>
<path d="M85.2679 88.6878C85.2191 88.6868 85.1723 88.6684 85.1359 88.6358C85.0995 88.5991 85.0791 88.5495 85.0791 88.4978C85.0791 88.4461 85.0995 88.3965 85.1359 88.3598L85.9879 87.4438C86.0245 87.4086 86.0732 87.3889 86.1239 87.3889C86.1746 87.3889 86.2234 87.4086 86.2599 87.4438C86.2778 87.4616 86.292 87.4828 86.3017 87.5062C86.3114 87.5295 86.3164 87.5545 86.3164 87.5798C86.3164 87.605 86.3114 87.6301 86.3017 87.6534C86.292 87.6768 86.2778 87.6979 86.2599 87.7158L85.4079 88.6318C85.3896 88.6501 85.3677 88.6645 85.3436 88.6741C85.3196 88.6837 85.2938 88.6884 85.2679 88.6878Z" fill="#0B8CAD"/>
<path d="M95.0328 88.6878C94.9843 88.6855 94.9379 88.6672 94.9008 88.6358L93.9208 87.7198C93.9023 87.7019 93.8876 87.6804 93.8775 87.6567C93.8675 87.633 93.8623 87.6075 93.8623 87.5818C93.8623 87.556 93.8675 87.5305 93.8775 87.5068C93.8876 87.4831 93.9023 87.4617 93.9208 87.4438C93.9573 87.4086 94.0061 87.3889 94.0568 87.3889C94.1075 87.3889 94.1563 87.4086 94.1928 87.4438L95.1728 88.3598C95.1907 88.3776 95.2049 88.3988 95.2146 88.4222C95.2243 88.4455 95.2293 88.4705 95.2293 88.4958C95.2293 88.5211 95.2243 88.5461 95.2146 88.5694C95.2049 88.5927 95.1907 88.6139 95.1728 88.6318C95.1348 88.6673 95.0848 88.6873 95.0328 88.6878Z" fill="#0B8CAD"/>
<path d="M141.477 69.2319C141.833 69.0519 142.277 68.8319 142.653 68.6039C143.029 68.3759 143.453 68.1559 143.853 67.9159C144.633 67.4319 145.425 66.9559 146.173 66.4279C147.675 65.3999 149.083 64.2407 150.381 62.9639C150.545 62.8119 150.689 62.6439 150.845 62.4799L151.073 62.2359L151.185 62.1159L151.241 62.0519C151.185 62.1599 151.241 62.1279 151.241 62.0239C151.276 61.881 151.296 61.7349 151.301 61.5879C151.291 60.7374 151.193 59.8901 151.009 59.0599C150.653 57.2679 150.113 55.4199 149.581 53.6119L151.133 52.9319C152.112 54.6665 152.93 56.4875 153.577 58.3719C153.94 59.3902 154.171 60.4508 154.265 61.5279C154.289 61.8628 154.278 62.1993 154.233 62.5319C154.173 63.0022 154.006 63.4526 153.745 63.8479L153.677 63.9399L153.625 64.0039L153.565 64.0799L153.441 64.2319L153.193 64.5319C153.029 64.7279 152.869 64.9319 152.693 65.1199C151.325 66.6378 149.799 68.0056 148.141 69.1999C147.341 69.7919 146.493 70.3599 145.625 70.8759C145.197 71.1359 144.761 71.3839 144.317 71.6279C143.873 71.8719 143.441 72.0959 142.929 72.3359L141.477 69.2319Z" fill="#FFB573"/>
<path d="M137.916 163.272C138.216 163.264 138.513 163.224 138.804 163.152C138.819 163.147 138.832 163.139 138.843 163.128C138.853 163.117 138.861 163.103 138.864 163.088C138.866 163.073 138.864 163.057 138.857 163.043C138.851 163.029 138.841 163.017 138.828 163.008C138.712 162.932 137.696 162.276 137.304 162.452C137.261 162.472 137.223 162.504 137.196 162.543C137.169 162.582 137.152 162.628 137.148 162.676C137.132 162.751 137.136 162.83 137.159 162.903C137.183 162.977 137.224 163.043 137.28 163.096C137.464 163.23 137.69 163.292 137.916 163.272ZM138.576 163.04C137.996 163.156 137.556 163.136 137.376 162.98C137.34 162.943 137.314 162.898 137.3 162.848C137.286 162.799 137.285 162.746 137.296 162.696C137.298 162.675 137.305 162.654 137.317 162.637C137.328 162.619 137.345 162.605 137.364 162.596C137.576 162.504 138.164 162.8 138.576 163.04Z" fill="#0B8CAD"/>
<path d="M138.8 163.152H138.84C138.852 163.145 138.861 163.135 138.868 163.123C138.875 163.111 138.879 163.098 138.88 163.084C138.88 163.04 138.88 162.076 138.512 161.756C138.468 161.713 138.415 161.681 138.356 161.663C138.298 161.644 138.236 161.639 138.176 161.648C138.113 161.648 138.052 161.67 138.003 161.71C137.954 161.75 137.921 161.806 137.908 161.868C137.832 162.268 138.44 162.968 138.76 163.152C138.773 163.156 138.787 163.156 138.8 163.152ZM138.228 161.796C138.293 161.796 138.356 161.82 138.404 161.864C138.615 162.175 138.724 162.544 138.716 162.92C138.396 162.664 138.016 162.12 138.064 161.892C138.064 161.856 138.092 161.808 138.192 161.796H138.228Z" fill="#0B8CAD"/>
<path d="M138.488 59.2278C138.088 61.2278 137.288 65.2278 138.668 66.5678C138.668 66.5678 138.124 68.5678 134.432 68.5678C130.368 68.5678 132.492 66.5678 132.492 66.5678C134.708 66.0398 134.648 64.3958 134.264 62.8478L138.488 59.2278Z" fill="#FFB573"/>
<path d="M131.712 67.3679C131.076 67.4559 131.62 65.8039 131.876 65.6319C132.476 65.2319 140.22 64.6759 140.168 65.6319C140.136 66.0319 139.944 66.8319 139.608 67.0959C139.272 67.3599 137.28 66.5359 131.712 67.3679Z" fill="#263238"/>
<path d="M132.976 66.7998C132.468 66.9718 132.516 65.3078 132.688 65.1078C133.088 64.6438 139.356 63.0358 139.54 63.9438C139.612 64.3438 139.648 65.1438 139.432 65.4278C139.216 65.7118 137.376 65.2438 132.976 66.7998Z" fill="#263238"/>
<path d="M130.644 55.6439C130.619 55.645 130.594 55.6401 130.571 55.6297C130.548 55.6193 130.528 55.6036 130.512 55.5839C130.39 55.4265 130.233 55.2999 130.053 55.2145C129.873 55.129 129.675 55.087 129.476 55.0919C129.456 55.0946 129.434 55.0932 129.414 55.0876C129.394 55.082 129.375 55.0724 129.359 55.0593C129.342 55.0463 129.328 55.03 129.318 55.0115C129.308 54.9931 129.302 54.9728 129.3 54.9519C129.297 54.9107 129.31 54.8697 129.336 54.8377C129.362 54.8056 129.399 54.7849 129.44 54.7799C129.692 54.767 129.943 54.8152 130.172 54.9204C130.402 55.0256 130.602 55.1846 130.756 55.3839C130.783 55.4163 130.796 55.458 130.792 55.5C130.789 55.5419 130.768 55.5807 130.736 55.6079C130.709 55.6274 130.678 55.6397 130.644 55.6439Z" fill="#263238"/>
<path d="M129.868 57.5999C129.687 58.238 129.418 58.8478 129.068 59.4118C129.215 59.4962 129.378 59.5474 129.547 59.5619C129.716 59.5764 129.885 59.5539 130.044 59.4958L129.868 57.5999Z" fill="#FF5652"/>
<path d="M130.064 57.1158C130.092 57.3838 129.968 57.6158 129.792 57.6318C129.616 57.6478 129.452 57.4478 129.428 57.1758C129.404 56.9038 129.524 56.6758 129.696 56.6598C129.868 56.6438 130.036 56.8438 130.064 57.1158Z" fill="#263238"/>
<path d="M129.775 56.6679L129.111 56.5439C129.111 56.5439 129.491 57.0159 129.775 56.6679Z" fill="#263238"/>
<path d="M142.68 163.076H139.328L139.592 155.316H142.944L142.68 163.076Z" fill="#FFB573"/>
<path d="M139.064 162.688H142.828C142.893 162.686 142.957 162.709 143.006 162.751C143.055 162.793 143.088 162.852 143.096 162.916L143.524 165.892C143.533 165.967 143.525 166.043 143.502 166.115C143.479 166.188 143.441 166.254 143.39 166.31C143.34 166.367 143.278 166.412 143.208 166.442C143.139 166.473 143.064 166.488 142.988 166.488C141.676 166.468 141.044 166.388 139.388 166.388C138.368 166.388 136.88 166.496 135.476 166.496C134.072 166.496 133.992 165.104 134.58 164.98C137.204 164.412 137.62 163.636 138.504 162.892C138.662 162.761 138.86 162.689 139.064 162.688Z" fill="#263238"/>
<g opacity="0.2">
<path opacity="0.2" d="M142.944 155.316H139.592L139.456 159.316H142.808L142.944 155.316Z" fill="black"/>
</g>
<path d="M129.348 71.2C127.297 70.4025 125.288 69.5013 123.328 68.5C121.304 67.5109 119.376 66.3366 117.568 64.992C117.085 64.6137 116.628 64.2034 116.2 63.764C116.088 63.644 115.976 63.532 115.868 63.392C115.741 63.2489 115.624 63.0979 115.516 62.94C115.221 62.5102 115.037 62.0142 114.98 61.496C114.936 61.0047 115.003 60.5098 115.176 60.048C115.315 59.6768 115.504 59.3267 115.74 59.008C116.126 58.4796 116.582 58.006 117.096 57.6C118.002 56.8783 118.981 56.2523 120.016 55.732C120.512 55.468 121.016 55.232 121.528 55.012C122.04 54.792 122.544 54.584 123.092 54.396L123.8 55.936C122.056 57.036 120.248 58.248 118.92 59.6C118.623 59.9011 118.361 60.2353 118.14 60.596C117.948 60.912 117.952 61.148 117.984 61.128C118.016 61.108 117.984 61.128 118.04 61.168L118.2 61.34C118.26 61.412 118.344 61.484 118.42 61.56C118.759 61.8718 119.118 62.1605 119.496 62.424C120.322 63.0086 121.182 63.5429 122.072 64.024C122.972 64.528 123.9 65.004 124.844 65.46C126.732 66.364 128.684 67.232 130.6 68.024L129.348 71.2Z" fill="#FFB573"/>
<path d="M124.8 54.86L125.352 53.66L122.824 52.8C122.824 52.8 122.024 55.1641 122.972 56.2521C123.368 56.1897 123.743 56.0298 124.062 55.7868C124.381 55.5439 124.635 55.2254 124.8 54.86Z" fill="#FFB573"/>
<path d="M125.34 51.0637L123.328 50.4797L122.824 52.7837L125.34 53.6597V51.0637Z" fill="#FFB573"/>
<path d="M151.34 53.7758L151.632 50.9758L149.04 51.5998C149.04 51.5998 149 54.2318 150.372 54.6478L151.34 53.7758Z" fill="#FFB573"/>
<path d="M150.384 49.0039L148.692 49.7919L149.04 51.5799L151.632 50.9679L150.384 49.0039Z" fill="#FFB573"/>
<path d="M139.015 55.3C139.139 58.624 139.259 60.028 137.759 61.888C135.499 64.688 131.391 64.108 130.279 60.888C129.279 57.992 129.247 53.044 132.351 51.412C133.034 51.0492 133.798 50.8667 134.57 50.882C135.343 50.8972 136.099 51.1097 136.767 51.4992C137.434 51.8887 137.991 52.4423 138.385 53.1075C138.778 53.7727 138.996 54.5274 139.015 55.3Z" fill="#FFB573"/>
<path d="M137.568 61.8839C140.832 60.4719 142.976 57.4839 142.072 52.8519C141.204 48.4079 138.204 47.9679 136.964 48.8879C135.724 49.8079 132.632 48.4359 130.776 49.9959C127.576 52.7039 130.6 55.5959 132.184 57.3439C133.128 59.2879 134.368 63.2639 137.568 61.8839Z" fill="#263238"/>
<path d="M136.211 52.0559C136.61 52.5666 137.149 52.9496 137.762 53.1576C138.375 53.3655 139.036 53.3893 139.663 53.226C140.289 53.0627 140.855 52.7195 141.289 52.2387C141.722 51.7578 142.006 51.1605 142.104 50.5204C142.203 49.8802 142.111 49.2253 141.842 48.6365C141.572 48.0477 141.136 47.5507 140.587 47.2069C140.038 46.8631 139.4 46.6876 138.753 46.702C138.106 46.7164 137.476 46.92 136.943 47.2879C136.214 47.8232 135.728 48.6262 135.59 49.5203C135.453 50.4144 135.676 51.3264 136.211 52.0559Z" fill="#0B8CAD"/>
<path d="M137.06 49.1999C136.592 46.5199 139.124 44.4559 142.516 45.4519C145.908 46.4479 144.116 49.4519 143.416 51.8519C142.716 54.2519 144.548 56.5399 145.308 54.7119C146.068 52.8839 144.788 52.3119 144.788 52.3119C144.788 52.3119 148.388 53.2439 145.044 57.3039C141.7 61.3639 138.672 56.8799 139.492 54.2359C140.156 52.1119 137.504 51.7319 137.06 49.1999Z" fill="#263238"/>
<path d="M133.672 50.2119C132.124 49.4119 129.504 48.7519 128.012 51.2639C127.308 52.4639 127.58 54.0639 127.58 54.0639L132.136 54.3639L133.672 50.2119Z" fill="#263238"/>
<path d="M127.043 53.272C127.016 53.2699 126.991 53.2575 126.974 53.2374C126.956 53.2172 126.946 53.1909 126.947 53.164C126.947 53.096 127.063 51.488 128.035 50.48C130.383 48.04 133.135 50.08 133.919 50.74C133.936 50.7578 133.946 50.7813 133.947 50.8058C133.947 50.8304 133.939 50.8543 133.923 50.8731C133.907 50.8919 133.885 50.9042 133.861 50.9077C133.837 50.9112 133.812 50.9056 133.791 50.892C133.035 50.244 130.403 48.304 128.191 50.616C127.271 51.572 127.159 53.16 127.159 53.176C127.159 53.1902 127.156 53.2042 127.149 53.2171C127.143 53.2299 127.134 53.2412 127.123 53.2503C127.112 53.2594 127.099 53.266 127.086 53.2698C127.072 53.2735 127.057 53.2743 127.043 53.272Z" fill="#263238"/>
<path d="M132.74 57.1999C132.722 57.8292 132.489 58.4334 132.08 58.9119C131.528 59.5599 130.88 59.2399 130.748 58.5119C130.616 57.8679 130.748 56.7519 131.444 56.3639C132.14 55.9759 132.748 56.4719 132.74 57.1999Z" fill="#FFB573"/>
<path d="M132.02 87.6479C132.02 87.6479 132.236 110.908 134.252 123.868C135.884 134.336 138.896 158.544 138.896 158.544H143.468C143.468 158.544 143.912 135.172 143.068 124.82C140.976 98.6199 146.38 93.7199 142.02 87.6479H132.02Z" fill="#263238"/>
<path opacity="0.1" d="M132.02 87.6479C132.02 87.6479 132.236 110.908 134.252 123.868C135.884 134.336 138.896 158.544 138.896 158.544H143.468C143.468 158.544 143.912 135.172 143.068 124.82C140.976 98.6199 146.38 93.7199 142.02 87.6479H132.02Z" fill="white"/>
<path opacity="0.3" d="M134.424 98.1999C136.024 105.22 134.748 116.276 133.872 121.144C132.944 113.752 132.476 104.172 132.244 97.1439C133.072 95.8079 133.856 95.7199 134.424 98.1999Z" fill="black"/>
<path d="M138.272 158.632H144.092L144.396 156.592L138.24 156.384L138.272 158.632Z" fill="#0B8CAD"/>
<path d="M139.932 68C140.48 66.912 143.424 66.228 145.032 66.232L146.232 71.576C146.232 71.576 143.032 76.332 141.696 75.828C140.124 75.248 138.76 70.348 139.932 68Z" fill="#0B8CAD"/>
<path opacity="0.4" d="M139.932 68C140.48 66.912 143.424 66.228 145.032 66.232L146.232 71.576C146.232 71.576 143.032 76.332 141.696 75.828C140.124 75.248 138.76 70.348 139.932 68Z" fill="black"/>
<path d="M136.54 157.324C136.546 157.312 136.55 157.299 136.55 157.286C136.55 157.272 136.546 157.259 136.54 157.248C136.532 157.232 136.52 157.22 136.505 157.212C136.49 157.204 136.473 157.201 136.456 157.204C136.288 157.232 134.808 157.464 134.608 157.888C134.586 157.926 134.575 157.97 134.575 158.014C134.575 158.058 134.586 158.101 134.608 158.14C134.642 158.203 134.691 158.257 134.751 158.297C134.811 158.336 134.88 158.361 134.952 158.368C135.436 158.416 136.152 157.744 136.512 157.336L136.54 157.324ZM134.764 157.94C134.9 157.716 135.668 157.508 136.252 157.4C135.724 157.936 135.26 158.236 134.988 158.2C134.941 158.195 134.896 158.179 134.856 158.152C134.817 158.126 134.786 158.09 134.764 158.048C134.755 158.033 134.75 158.015 134.75 157.998C134.75 157.98 134.755 157.963 134.764 157.948C134.764 157.948 134.76 157.944 134.764 157.94Z" fill="#0B8CAD"/>
<path d="M140.032 155.904L136.968 157.268L135.604 154.424L133.82 150.704L133.608 150.272L136.672 148.908L136.908 149.396L138.636 153L140.032 155.904Z" fill="#FFB573"/>
<path opacity="0.2" d="M138.636 153L135.604 154.424L133.82 150.704L136.908 149.396L138.636 153Z" fill="black"/>
<path d="M128.428 87.6479C128.428 87.6479 118.64 112 121.292 123.44C123.692 133.796 134.292 153.408 134.292 153.408L138.4 151.352C138.4 151.352 131.844 127.676 131.136 122.532C129.752 112.532 138.644 98.3999 138.644 87.6479H128.428Z" fill="#263238"/>
<path opacity="0.1" d="M128.428 87.6479C128.428 87.6479 118.64 112 121.292 123.44C123.692 133.796 134.292 153.408 134.292 153.408L138.4 151.352C138.4 151.352 131.844 127.676 131.136 122.532C129.752 112.532 138.644 98.3999 138.644 87.6479H128.428Z" fill="white"/>
<path d="M136.424 156.84L139.464 154.628C139.515 154.588 139.579 154.568 139.644 154.572C139.709 154.577 139.77 154.605 139.816 154.652L141.916 156.808C141.967 156.864 142.005 156.93 142.029 157.003C142.052 157.075 142.06 157.151 142.052 157.227C142.045 157.302 142.021 157.375 141.983 157.441C141.945 157.506 141.893 157.563 141.832 157.608C140.756 158.36 140.2 158.672 138.864 159.644C138.04 160.244 136.4 161.568 135.264 162.396C134.128 163.224 133.264 162.144 133.664 161.7C135.456 159.7 135.832 158.46 136.112 157.336C136.155 157.139 136.265 156.964 136.424 156.84Z" fill="#263238"/>
<path d="M134.029 154.276L139.321 151.856L138.645 149.7L132.977 152.284L134.029 154.276Z" fill="#0B8CAD"/>
<path d="M131.024 67.7438C130.588 66.6078 126.764 65.3438 124.844 64.9438L124 71.2319C124 71.2319 127.136 75.7359 128.508 75.3639C130.132 74.9239 131.968 70.1798 131.024 67.7438Z" fill="#0B8CAD"/>
<path opacity="0.4" d="M131.024 67.7438C130.588 66.6078 126.764 65.3438 124.844 64.9438L124 71.2319C124 71.2319 127.136 75.7359 128.508 75.3639C130.132 74.9239 131.968 70.1798 131.024 67.7438Z" fill="black"/>
<path d="M126.828 67.4279C126.828 67.4279 125.228 67.9879 128.428 87.6479H142.028C141.8 82.1119 141.792 78.6959 144.428 67.3279C142.522 66.9347 140.59 66.6807 138.648 66.5679C136.592 66.4197 134.528 66.4197 132.472 66.5679C129.836 66.7999 126.828 67.4279 126.828 67.4279Z" fill="#0B8CAD"/>
<path opacity="0.4" d="M126.828 67.4279C126.828 67.4279 125.228 67.9879 128.428 87.6479H142.028C141.8 82.1119 141.792 78.6959 144.428 67.3279C142.522 66.9347 140.59 66.6807 138.648 66.5679C136.592 66.4197 134.528 66.4197 132.472 66.5679C129.836 66.7999 126.828 67.4279 126.828 67.4279Z" fill="black"/>
<path d="M142.24 86.8519L142.852 88.0519C142.9 88.1479 142.788 88.2439 142.632 88.2439H128.36C128.236 88.2439 128.136 88.1839 128.128 88.1039L128.004 86.9039C128.004 86.8199 128.104 86.7479 128.236 86.7479H142C142.046 86.7406 142.093 86.7466 142.135 86.765C142.178 86.7834 142.214 86.8135 142.24 86.8519Z" fill="#0B8CAD"/>
<path opacity="0.3" d="M142.24 86.8519L142.852 88.0519C142.9 88.1479 142.788 88.2439 142.632 88.2439H128.36C128.236 88.2439 128.136 88.1839 128.128 88.1039L128.004 86.9039C128.004 86.8199 128.104 86.7479 128.236 86.7479H142C142.046 86.7406 142.093 86.7466 142.135 86.765C142.178 86.7834 142.214 86.8135 142.24 86.8519Z" fill="white"/>
<path d="M140.4 88.3998H140.768C140.844 88.3998 140.9 88.3598 140.892 88.3158L140.72 86.7158C140.72 86.6678 140.652 86.6318 140.58 86.6318H140.208C140.136 86.6318 140.08 86.6678 140.084 86.7158L140.256 88.3158C140.252 88.3518 140.316 88.3998 140.4 88.3998Z" fill="#263238"/>
<path d="M131.444 88.3998H131.812C131.884 88.3998 131.94 88.3598 131.936 88.3158L131.764 86.7158C131.764 86.6678 131.696 86.6318 131.62 86.6318H131.252C131.176 86.6318 131.124 86.6678 131.128 86.7158L131.3 88.3158C131.304 88.3518 131.368 88.3998 131.444 88.3998Z" fill="#263238"/>
<path opacity="0.85" d="M69.857 106.972H70.0992L69.5992 108.4H69.3531L68.8551 106.972H69.0953L69.3932 107.86C69.4088 107.902 69.4254 107.957 69.443 108.024C69.4605 108.09 69.4719 108.14 69.4771 108.172C69.4856 108.123 69.4986 108.066 69.5162 108C69.5338 107.935 69.5481 107.887 69.5592 107.856L69.857 106.972ZM72.3453 108.4H71.5377V106.972H72.3453V107.169H71.7711V107.558H72.3092V107.753H71.7711V108.202H72.3453V108.4ZM74.1383 107.636H74.3004C74.4091 107.636 74.4879 107.616 74.5367 107.576C74.5855 107.535 74.61 107.475 74.61 107.396C74.61 107.315 74.5836 107.257 74.5309 107.222C74.4781 107.187 74.3987 107.169 74.2926 107.169H74.1383V107.636ZM74.1383 107.83V108.4H73.9049V106.972H74.3082C74.4924 106.972 74.6288 107.007 74.7174 107.076C74.8059 107.145 74.8502 107.249 74.8502 107.388C74.8502 107.566 74.7577 107.693 74.5728 107.768L74.9762 108.4H74.7105L74.3687 107.83H74.1383ZM76.4342 108.4V106.972H76.6676V108.4H76.4342ZM78.527 108.4H78.2955V106.972H79.1012V107.169H78.527V107.616H79.065V107.814H78.527V108.4ZM80.61 108.4V106.972H80.8434V108.4H80.61ZM83.0787 107.152C82.9446 107.152 82.8391 107.199 82.7623 107.294C82.6855 107.389 82.6471 107.521 82.6471 107.688C82.6471 107.863 82.6839 107.996 82.7574 108.085C82.8316 108.175 82.9387 108.22 83.0787 108.22C83.1393 108.22 83.1978 108.214 83.2545 108.203C83.3111 108.19 83.37 108.175 83.4312 108.156V108.356C83.3193 108.398 83.1923 108.419 83.0504 108.419C82.8414 108.419 82.6809 108.356 82.5689 108.23C82.457 108.103 82.401 107.922 82.401 107.686C82.401 107.538 82.428 107.408 82.482 107.296C82.5367 107.185 82.6155 107.1 82.7184 107.041C82.8212 106.981 82.942 106.952 83.0807 106.952C83.2265 106.952 83.3613 106.982 83.485 107.043L83.401 107.238C83.3528 107.215 83.3017 107.195 83.2477 107.178C83.1943 107.161 83.138 107.152 83.0787 107.152ZM85.8746 108.4L85.732 108.003H85.1861L85.0465 108.4H84.8004L85.3346 106.966H85.5885L86.1227 108.4H85.8746ZM85.6705 107.802L85.5367 107.414C85.527 107.388 85.5133 107.347 85.4957 107.291C85.4788 107.235 85.4671 107.194 85.4605 107.167C85.443 107.248 85.4173 107.335 85.3834 107.43L85.2545 107.802H85.6705ZM88.0543 108.4H87.8209V107.172H87.401V106.972H88.4742V107.172H88.0543V108.4ZM89.9439 108.4V106.972H90.1773V108.4H89.9439ZM93.0728 107.684C93.0728 107.917 93.0146 108.097 92.898 108.226C92.7822 108.355 92.6178 108.419 92.4049 108.419C92.1894 108.419 92.0237 108.356 91.9078 108.228C91.7926 108.1 91.735 107.918 91.735 107.682C91.735 107.446 91.7929 107.265 91.9088 107.139C92.0253 107.013 92.1913 106.95 92.4068 106.95C92.6191 106.95 92.7831 107.014 92.899 107.142C93.0149 107.27 93.0728 107.451 93.0728 107.684ZM91.983 107.684C91.983 107.86 92.0185 107.993 92.0895 108.084C92.1604 108.175 92.2656 108.22 92.4049 108.22C92.5436 108.22 92.648 108.175 92.7184 108.085C92.7893 107.996 92.8248 107.862 92.8248 107.684C92.8248 107.509 92.7896 107.376 92.7193 107.286C92.6497 107.195 92.5455 107.15 92.4068 107.15C92.2669 107.15 92.1611 107.195 92.0895 107.286C92.0185 107.376 91.983 107.509 91.983 107.684ZM95.8189 108.4H95.5328L94.8307 107.262H94.8228L94.8277 107.326C94.8368 107.447 94.8414 107.557 94.8414 107.658V108.4H94.6295V106.972H94.9127L95.6129 108.104H95.6187C95.6174 108.089 95.6148 108.035 95.6109 107.941C95.607 107.847 95.6051 107.773 95.6051 107.72V106.972H95.8189V108.4ZM99.4469 108.4H99.2154V106.972H100.021V107.169H99.4469V107.616H99.985V107.814H99.4469V108.4ZM102.416 108.4L102.273 108.003H101.727L101.587 108.4H101.341L101.876 106.966H102.129L102.664 108.4H102.416ZM102.212 107.802L102.078 107.414C102.068 107.388 102.054 107.347 102.037 107.291C102.02 107.235 102.008 107.194 102.002 107.167C101.984 107.248 101.958 107.335 101.924 107.43L101.796 107.802H102.212ZM104.102 108.4V106.972H104.336V108.4H104.102ZM105.963 108.4V106.972H106.197V108.2H106.801V108.4H105.963ZM109.105 108.4H108.297V106.972H109.105V107.169H108.531V107.558H109.069V107.753H108.531V108.202H109.105V108.4ZM111.826 107.672C111.826 107.908 111.76 108.088 111.629 108.213C111.499 108.338 111.31 108.4 111.064 108.4H110.665V106.972H111.106C111.333 106.972 111.51 107.033 111.636 107.156C111.763 107.278 111.826 107.45 111.826 107.672ZM111.58 107.68C111.58 107.338 111.42 107.167 111.1 107.167H110.898V108.204H111.064C111.408 108.204 111.58 108.029 111.58 107.68Z" fill="#FF647C"/>
</svg>
