<svg width="599" height="446" viewBox="0 0 599 446" fill="none" xmlns="http://www.w3.org/2000/svg">
<path d="M299.281 446C427.472 446 531.391 439.933 531.391 432.449C531.391 424.964 427.472 418.897 299.281 418.897C171.09 418.897 67.1706 424.964 67.1706 432.449C67.1706 439.933 171.09 446 299.281 446Z" fill="#F5F5F5"/>
<path d="M155.937 75.0955C155.937 75.0955 148.324 73.3956 147.246 63.5792C146.253 54.4691 150.311 52.6614 150.311 52.6614C150.311 52.6614 145.127 43.3478 153.782 37.9967C162.438 32.6456 175.69 39.7804 180.79 37.3622C185.889 34.944 191.564 36.2968 189.947 43.4795C188.331 50.6622 180.766 52.5298 180.766 52.5298L163.3 49.4651C163.3 49.4651 170.829 69.0979 166.364 72.797C161.899 76.4962 155.937 75.0955 155.937 75.0955Z" fill="#263238"/>
<path d="M186.368 46.1611C186.368 46.1611 190.139 60.8139 186.368 63.3398C182.597 65.8658 181.783 48.3279 181.783 48.3279L186.368 46.1611Z" fill="#263238"/>
<path d="M158.583 188.08L154.836 196.101L148.192 195.143C141.931 196.149 139.321 192.593 139.321 192.593L135.383 189.002C113.367 168.387 109.656 157.877 111.548 149.581C113.547 140.818 126.811 115.044 130.81 109.046C134.808 103.048 137.825 101.408 137.825 101.408C145.079 98.2839 150.574 100.535 153.1 108.292C155.147 114.565 150.502 121.113 146.923 125.842C142.52 131.63 138.451 137.666 134.736 143.918C133.539 145.977 132.342 148.072 131.217 150.179C130.726 151.089 128.02 155.039 128.32 155.842C130.163 160.977 139.429 175.558 142.685 180.61L143.81 182.358C155.829 184.082 158.583 188.08 158.583 188.08Z" fill="#263238"/>
<path d="M283.634 103.372L276.655 107.358C276.655 107.358 275.147 110.327 272.657 114.481C266.994 123.95 256.28 139.62 246.811 140.674C234.373 141.715 221.3 135.957 208.168 127.146C195.035 118.336 199.668 98.1761 199.668 98.1761C199.668 98.1761 207.509 100.379 219.648 109.357C231.787 118.336 242.082 123.818 245.075 124.98C245.075 124.98 255.37 121.664 266.516 108.711L269.676 98.5591L280.151 94.9678L283.634 103.372Z" fill="#263238"/>
<path d="M137.382 132.234C137.837 132.881 149.64 190.821 149.64 190.821H204.78C204.78 190.821 205.271 155.399 206.181 146.995C207.09 138.591 212.669 103.898 199.668 98.1761C199.668 98.1761 186.428 95.0277 176.66 94.896C170.779 94.8164 164.904 95.3176 159.122 96.3924C159.122 96.3924 142.206 97.2902 137.813 101.384C133.419 105.479 137.382 132.234 137.382 132.234Z" fill="#263238"/>
<path d="M204.78 190.043C204.78 190.043 203.846 273.614 201.344 293.606C198.842 313.598 192.354 399.995 192.354 399.995L175.977 396.056C175.977 396.056 174.78 333.171 173.068 301.938C171.356 270.705 171.739 233.702 171.739 233.702C171.739 233.702 159.768 311.515 155.159 319.009C150.55 326.503 131.803 369.815 119.712 391.459L106.376 379.799C106.376 379.799 128.092 310.677 131.803 299.017C135.514 287.357 138.747 200.853 149.64 190.821L204.78 190.043Z" fill="#0EACD2"/>
<path d="M117.689 388.921L114.361 394.009L109.872 400.88L100.702 396.116L104.461 388.526L107.262 382.9L117.689 388.921Z" fill="#CE7A63"/>
<path d="M283.634 103.372L276.655 107.358C276.655 107.358 275.147 110.327 272.657 114.481L266.516 108.711L269.676 98.5591L280.151 94.9678L283.634 103.372Z" fill="#CE7A63"/>
<path opacity="0.3" d="M204.768 190.043C204.768 190.043 203.846 273.614 201.344 293.594C198.842 313.574 192.354 399.995 192.354 399.995L176.181 397.277C176.181 397.277 174.684 333.171 173.032 301.926C172.565 293.02 171.739 286.244 171.56 281.037C171.38 275.829 171.416 266.671 171.56 257.705C171.715 244.728 172.003 232.11 172.003 232.11L171.644 234.409C171.644 234.744 171.536 235.115 171.464 235.51L171.392 235.989C168.842 252.102 159.122 312.473 155.171 318.961C150.538 326.503 131.803 369.815 119.712 391.459L106.376 379.799C106.376 379.799 128.044 310.665 131.791 299.017C135.538 287.369 138.735 200.853 149.628 190.809L204.768 190.043Z" fill="black"/>
<path opacity="0.2" d="M171.596 234.397C171.596 234.732 171.488 235.103 171.416 235.498L171.596 234.397Z" fill="black"/>
<path opacity="0.2" d="M174.217 217.625C174.217 217.625 173.906 241.567 171.512 257.693C171.668 244.716 171.955 232.098 171.955 232.098L174.217 217.625Z" fill="black"/>
<path d="M178.946 92.6095C180.552 93.8622 182.379 94.8004 184.333 95.3748C184.333 95.3748 181.544 98.7268 172.601 98.0684C169.118 97.805 164.688 99.7084 159.134 96.3924C159.134 96.3924 161.456 83.1283 160.438 75.2751C160.438 75.2751 151.256 71.3366 153.447 65.363C155.434 59.928 161.624 66.165 162.749 67.3502C161.648 65.9496 155.039 57.1268 159.852 49.9081C161.393 47.6035 163.421 45.6658 165.794 44.2322C168.167 42.7986 170.826 41.9041 173.583 41.6121L181.173 43.6472L184.225 50.8299C184.225 50.8299 188.307 56.3606 188.595 67.434C188.882 78.5074 182.477 82.4339 177.821 83.7508C177.821 83.7508 177.689 84.9479 177.689 86.564C177.629 88.7308 177.833 91.5919 178.946 92.6095Z" fill="#CE7A63"/>
<path d="M181.352 68.3079L180.155 59.3654L185.195 66.4044C184.718 66.9668 184.131 67.4258 183.47 67.7531C182.809 68.0804 182.089 68.2692 181.352 68.3079Z" fill="#BA4D3C"/>
<path d="M172.601 68.8705C173.301 69.7775 174.251 70.4594 175.334 70.8318C176.417 71.2041 177.585 71.2506 178.695 70.9654" stroke="#263238" stroke-linecap="round" stroke-linejoin="round"/>
<path d="M170.315 56.5042C170.315 56.5042 171.751 53.3678 174.696 53.8466" stroke="#263238" stroke-linecap="round" stroke-linejoin="round"/>
<path d="M183.256 52.6735C184.132 52.5589 185.024 52.6544 185.856 52.9521C186.689 53.2497 187.439 53.741 188.044 54.3854" stroke="#263238" stroke-linecap="round" stroke-linejoin="round"/>
<path d="M175.678 60.5745C175.678 61.4484 175.235 62.1547 174.696 62.1547C174.157 62.1547 173.714 61.4484 173.714 60.5745C173.714 59.7006 174.157 59.0062 174.696 59.0062C175.235 59.0062 175.678 59.7125 175.678 60.5745Z" fill="#263238"/>
<path d="M185.638 59.928C185.638 60.7899 185.195 61.4962 184.656 61.4962C184.118 61.4962 183.675 60.7899 183.675 59.928C183.675 59.0661 184.118 58.3478 184.656 58.3478C185.195 58.3478 185.638 59.0541 185.638 59.928Z" fill="#263238"/>
<path d="M169.058 102.139L176.743 100.965L178.623 108.399L175.043 115.055H172.984L169.058 109.082V102.139Z" fill="#0EACD2"/>
<path d="M172.984 115.056L169.058 150.179L176.241 157.098L181.424 150.024L175.043 115.056H172.984Z" fill="#0EACD2"/>
<path opacity="0.3" d="M169.058 102.139L176.743 100.965L178.623 108.399L175.043 115.055H172.984L169.058 109.082V102.139Z" fill="black"/>
<path opacity="0.3" d="M172.984 115.056L169.058 150.179L176.241 157.098L181.424 150.024L175.043 115.056H172.984Z" fill="black"/>
<path d="M172.601 98.0684L176.492 108.316C176.492 108.316 186.548 103.3 188.02 94.896L180.837 92.4299C178.338 94.6461 175.571 96.5403 172.601 98.0684Z" fill="white"/>
<path d="M159.816 91.7595C159.816 91.7595 166.771 95.4227 172.601 98.0684L170.315 108.316C170.315 108.316 158.798 101.42 154.932 96.0333L159.816 91.7595Z" fill="white"/>
<path opacity="0.2" d="M177.773 83.7148C177.773 83.7148 177.641 84.912 177.641 86.5281C175.661 86.0396 173.751 85.3035 171.955 84.3373C173.916 84.6035 175.912 84.3899 177.773 83.7148Z" fill="black"/>
<path d="M162.809 67.3501C164.111 62.1604 163.647 56.6848 161.492 51.7876C161.492 51.7876 175.151 55.7021 175.187 43.264C175.187 43.264 156.967 46.1731 156.033 52.6495C155.099 59.1259 161.252 65.5904 162.809 67.3501Z" fill="#263238"/>
<path d="M174.984 45.0957C174.984 45.0957 180.203 52.5059 184.68 50.9736V40.1995H169.118L160.893 45.1077L166.592 50.9736L170.83 47.4899L174.984 45.0957Z" fill="#263238"/>
<path d="M191.264 413.462L179.58 412.864L179.293 404.005L179.078 397.541L188.535 396.595L190.402 396.679L190.809 404.675L191.264 413.462Z" fill="#CE7A63"/>
<path opacity="0.2" d="M190.809 404.675L179.293 404.005L179.078 397.541L188.535 396.595L190.402 396.679L190.809 404.675Z" fill="black"/>
<path d="M172.733 401.79L195.203 401.24L196.472 393.913H173.26L172.733 401.79Z" fill="#263238"/>
<path d="M193.778 413.953C193.778 413.953 197.693 402.413 200.746 403.562C203.798 404.711 193.778 413.953 193.778 413.953Z" stroke="#0EACD2" stroke-miterlimit="10"/>
<path d="M194.449 413.953C194.449 413.953 200.362 408.327 202.745 410.517C205.127 412.708 194.449 413.953 194.449 413.953Z" stroke="#0EACD2" stroke-miterlimit="10"/>
<path opacity="0.2" d="M117.689 388.921L114.361 394.009L104.461 388.526L107.262 382.9L117.689 388.921Z" fill="black"/>
<path d="M102.258 384.324L119.425 393.411L123.471 388.43L105.981 378.602L102.258 384.324Z" fill="#263238"/>
<path d="M113.188 403.933C113.188 403.933 118.048 397.852 120.024 399.288C121.999 400.725 113.188 403.933 113.188 403.933Z" stroke="#0EACD2" stroke-miterlimit="10"/>
<path d="M114.074 403.933C114.074 403.933 122.454 401.958 122.813 404.675C123.172 407.393 114.074 403.933 114.074 403.933Z" stroke="#0EACD2" stroke-miterlimit="10"/>
<path d="M112.171 397.445L103.156 392.381C102.527 392.032 101.785 391.945 101.092 392.14C100.399 392.335 99.8118 392.796 99.4571 393.422L95.3988 400.605C95.0459 401.236 94.9573 401.98 95.1526 402.676C95.3478 403.372 95.8109 403.961 96.4403 404.316L122.023 418.682C122.653 419.035 123.398 419.123 124.094 418.928C124.789 418.733 125.379 418.27 125.734 417.64C126.049 417.077 126.155 416.421 126.032 415.788C125.909 415.154 125.566 414.585 125.064 414.181C121.759 411.535 114.984 405.454 113.487 399.157C113.397 398.796 113.234 398.458 113.007 398.164C112.781 397.869 112.496 397.624 112.171 397.445Z" fill="#263238"/>
<path d="M190.187 408.973H178.216C177.38 408.976 176.579 409.311 175.989 409.903C175.399 410.495 175.067 411.297 175.067 412.134V421.711C175.067 422.546 175.399 423.346 175.989 423.937C176.58 424.527 177.381 424.859 178.216 424.859H212.166C212.581 424.861 212.991 424.78 213.375 424.623C213.758 424.465 214.106 424.234 214.4 423.941C214.694 423.649 214.927 423.301 215.086 422.918C215.245 422.535 215.326 422.125 215.326 421.711C215.326 420.964 215.061 420.242 214.579 419.673C214.097 419.103 213.429 418.722 212.693 418.598C207.844 417.796 197.573 415.497 192.485 410.003C192.193 409.683 191.838 409.427 191.443 409.25C191.047 409.073 190.62 408.979 190.187 408.973Z" fill="#263238"/>
<path d="M158.583 188.08L154.836 196.101L148.192 195.143C141.931 196.149 139.321 192.593 139.321 192.593L135.383 189.002L142.697 180.622L143.822 182.37C155.83 184.082 158.583 188.08 158.583 188.08Z" fill="#CE7A63"/>
<path d="M266.516 108.184L264.193 111.273L270.993 117.21L272.992 114.481L266.516 108.184Z" fill="white"/>
<path d="M135.083 189.337L142.924 180.167L140.279 176.803L132.091 186.655L135.083 189.337Z" fill="white"/>
<path d="M285.622 51.1769C284.812 53.5827 284.549 56.1385 284.851 58.6586C285.154 61.1788 286.014 63.5999 287.369 65.7459C292.014 72.785 290.961 49.5129 290.961 49.5129L285.622 51.1769Z" fill="#263238"/>
<path d="M295.139 103.958C295.139 103.958 266.408 144.181 260.793 142.493C255.179 140.805 242.238 115.714 242.238 115.714L241.484 105.79L233.008 94.1177L222.234 102.617L227.453 112.326C227.453 112.326 229.01 117.366 233.607 118.778C233.607 118.778 244.177 151.232 257.549 157.326C270.921 163.419 289.476 124.752 289.476 124.752L295.139 103.958Z" fill="#FFB573"/>
<path d="M356.647 397.074L341.814 402.712C322.66 360.645 307.098 237.964 307.098 237.964C307.098 237.964 306.643 241.4 305.961 246.93C303.734 265.246 299.017 306.415 299.975 321.152C301.495 345.944 297.114 407.213 297.114 407.213L279.157 409.344C279.157 409.344 279.768 348.782 277.206 315.226C274.644 281.671 282.485 195.574 282.485 195.574L332.01 193.299C340.51 203.068 342.628 323.295 344.759 334.344C346.89 345.394 356.647 397.074 356.647 397.074Z" fill="#263238"/>
<path d="M277.601 109.956C277.721 109.297 277.973 108.669 278.341 108.11C278.709 107.55 279.186 107.071 279.744 106.7C283.754 104.018 294.037 97.338 296.803 97.1225C300.274 96.8472 318.423 92.5854 325.617 97.1225C332.812 101.66 337.361 114.996 337.361 114.996C337.361 114.996 336.834 176.635 333.626 196.651L282.401 195.586C282.401 195.586 274.345 128.02 277.601 109.956Z" fill="#0EACD2"/>
<path d="M334.967 132.342L342.964 147.019C342.964 147.019 344.029 180.107 341.372 188.643L337.361 196.651V209.496L346.938 210.825L349.608 200.686C349.608 200.686 351.2 193.216 349.608 190.019C349.608 190.019 360.813 164.401 356.791 142.254C356.791 142.254 336.571 97.6732 324.169 96.4402C311.767 95.2072 334.967 132.342 334.967 132.342Z" fill="#FFB573"/>
<path d="M318.638 96.4999C318.638 96.4999 310.725 104.138 303.506 103.922C296.288 103.707 298.263 97.5534 298.263 97.5534C301.974 96.8591 303.183 93.148 303.53 89.9636C303.701 88.372 303.701 86.7667 303.53 85.1751C303.53 85.1751 294.923 85.1751 290.087 74.6644C285.25 64.1537 290.087 50.303 290.087 50.303C290.087 50.303 308.367 45.6821 316.555 47.9925C324.743 50.303 318.243 70.8815 318.243 70.8815C316.112 82.4337 318.638 96.4999 318.638 96.4999Z" fill="#FFB573"/>
<path d="M302.597 61.2568C302.597 62.0828 302.142 62.7532 301.591 62.7532C301.04 62.7532 300.598 62.0828 300.598 61.2568C300.598 60.4308 301.04 59.7604 301.591 59.7604C302.142 59.7604 302.597 60.4308 302.597 61.2568Z" fill="#263238"/>
<path d="M292.397 62.2503C292.397 63.0763 291.954 63.7467 291.404 63.7467C290.853 63.7467 290.398 63.0763 290.398 62.2503C290.398 61.4243 290.853 60.7539 291.404 60.7539C291.954 60.7539 292.397 61.3884 292.397 62.2503Z" fill="#263238"/>
<path d="M295.773 62.9686V71.0013C295.113 71.2063 294.407 71.2111 293.745 71.0151C293.082 70.819 292.492 70.431 292.05 69.9L295.773 62.9686Z" fill="#ED893E"/>
<path d="M299.185 72.4019C299.185 72.4019 303.447 72.4019 305.003 68.8943" stroke="#263238" stroke-linecap="round" stroke-linejoin="round"/>
<path d="M300.598 55.4867C300.598 55.4867 304.309 55.1874 305.386 57.4978" stroke="#263238" stroke-linecap="round" stroke-linejoin="round"/>
<path d="M287.92 58.3117C288.212 57.5821 288.685 56.9389 289.295 56.4425C289.904 55.9462 290.63 55.6131 291.404 55.4745" stroke="#263238" stroke-linecap="round" stroke-linejoin="round"/>
<path opacity="0.2" d="M310.055 83.8943C308.367 86.3806 306.141 88.4551 303.542 89.9637C303.713 88.3721 303.713 86.7668 303.542 85.1752C305.776 85.1793 307.989 84.7441 310.055 83.8943Z" fill="black"/>
<path d="M301.376 104.174L305.721 103.766L306.942 112.841L304.68 116.995H302.094L299.676 112.494L301.376 104.174Z" fill="#263238"/>
<path d="M318.112 92.8488C313.781 97.1996 308.865 100.926 303.507 103.922L306.093 110.339C306.093 110.339 316.938 108.471 321.583 95.6021L318.112 92.8488Z" fill="white"/>
<path d="M303.507 103.922L300.598 110.339C300.598 110.339 296.192 105.993 295.139 97.6013L300.598 94.1177C300.598 94.1177 300.801 100.403 303.507 103.922Z" fill="white"/>
<path d="M302.286 114.6L299.329 152.968L304.297 159.002L308.882 152.597L304.404 114.6H302.286Z" fill="#263238"/>
<path d="M321.93 65.1235C321.93 65.1235 311.443 66.3924 309.708 51.2009C309.708 51.2009 291.236 56.7197 284.568 51.0573C277.9 45.3949 283.311 38.0326 283.311 38.0326C283.883 39.4651 284.568 40.8501 285.358 42.1746V37.3861C286.479 38.8589 287.716 40.2399 289.057 41.5162C294.437 42.382 299.949 41.3177 304.62 38.5114C312.629 33.7229 322.816 42.8091 320.937 49.8123C320.996 49.8482 330.023 56.8873 321.93 65.1235Z" fill="#263238"/>
<path d="M314.735 65.5544C314.735 65.5544 317.561 55.5345 322.206 59.066C326.85 62.5975 320.23 72.4618 316.998 71.8992C313.766 71.3365 314.735 65.5544 314.735 65.5544Z" fill="#FFB573"/>
<path d="M233.283 120.909L243.387 115.331C243.387 115.331 254.245 136.304 260.542 138.938C260.542 138.938 273.339 126.021 277.553 109.848L283.287 136.807C283.287 136.807 273.363 157.769 260.817 158.068C248.271 158.367 237.988 134.497 233.283 120.909Z" fill="#0EACD2"/>
<path d="M327.784 123.998L343.012 148.443L340.474 186.308L351.93 188.547C351.93 188.547 360.753 162.21 356.838 142.278C354.001 127.805 345.035 109.453 334.632 100.678C330.934 97.647 326.359 95.8881 321.583 95.662C321.583 95.662 318.77 102.15 318.914 107.633C319.057 113.116 327.784 123.998 327.784 123.998Z" fill="#0EACD2"/>
<path opacity="0.2" d="M336.954 138.699L327.784 123.998C328.574 125.267 336.954 150.67 336.954 150.67V138.699Z" fill="black"/>
<path opacity="0.2" d="M307.098 237.964C307.098 237.964 306.643 241.4 305.961 246.93L303.566 217.816L307.098 237.964Z" fill="black"/>
<path d="M350.482 415.21L359.771 410.888L357.102 403.598L355.151 398.271L347.154 400.605L345.669 401.275L347.956 407.919L350.482 415.21Z" fill="#FFB573"/>
<path opacity="0.2" d="M347.956 407.919L357.102 403.598L355.151 398.271L347.154 400.605L345.669 401.275L347.956 407.919Z" fill="black"/>
<path d="M348.59 416.431C348.59 416.431 341.623 408.338 339.516 410.266C337.409 412.193 348.59 416.431 348.59 416.431Z" stroke="#0EACD2" stroke-miterlimit="10"/>
<path d="M348.051 416.599C348.051 416.599 341.395 413.965 340.174 416.527C338.953 419.089 348.051 416.599 348.051 416.599Z" stroke="#0EACD2" stroke-miterlimit="10"/>
<path d="M349.883 411.212L359.592 407.285C360.27 407.013 361.028 407.019 361.701 407.304C362.374 407.589 362.907 408.129 363.183 408.805L366.32 416.599C366.456 416.934 366.525 417.293 366.523 417.656C366.52 418.018 366.446 418.376 366.305 418.71C366.164 419.044 365.958 419.346 365.7 419.6C365.441 419.854 365.135 420.055 364.799 420.19L337.206 431.335C336.87 431.473 336.509 431.543 336.146 431.54C335.783 431.538 335.424 431.463 335.089 431.32C334.755 431.178 334.453 430.97 334.2 430.71C333.946 430.449 333.747 430.141 333.614 429.803C333.368 429.198 333.344 428.525 333.548 427.904C333.752 427.284 334.17 426.756 334.728 426.415C338.391 424.176 346.005 418.933 348.327 412.804C348.459 412.443 348.665 412.115 348.934 411.84C349.202 411.566 349.526 411.351 349.883 411.212Z" fill="#263238"/>
<path d="M282.605 424.368L292.84 424.117L293.295 416.359L293.63 410.697L285.37 409.655L283.742 409.679L283.191 416.682L282.605 424.368Z" fill="#FFB573"/>
<path opacity="0.2" d="M283.191 416.682L293.295 416.359L293.63 410.697L285.37 409.655L283.742 409.679L283.191 416.682Z" fill="black"/>
<path d="M280.378 424.739C280.378 424.739 277.218 414.54 274.524 415.473C271.831 416.407 280.378 424.739 280.378 424.739Z" stroke="#0EACD2" stroke-miterlimit="10"/>
<path d="M279.791 424.727C279.791 424.727 274.74 419.651 272.609 421.519C270.478 423.386 279.791 424.727 279.791 424.727Z" stroke="#0EACD2" stroke-miterlimit="10"/>
<path d="M283.646 420.465L294.121 420.741C294.484 420.75 294.842 420.831 295.174 420.978C295.506 421.126 295.806 421.338 296.056 421.601C296.306 421.865 296.502 422.175 296.632 422.514C296.762 422.853 296.824 423.215 296.815 423.578L296.587 431.958C296.578 432.32 296.497 432.678 296.349 433.009C296.202 433.34 295.99 433.639 295.726 433.888C295.462 434.137 295.152 434.332 294.813 434.461C294.474 434.59 294.113 434.65 293.75 434.639L264.002 433.861C263.639 433.852 263.282 433.771 262.95 433.623C262.619 433.475 262.32 433.264 262.071 433C261.822 432.736 261.627 432.426 261.498 432.087C261.369 431.748 261.309 431.387 261.32 431.024C261.34 430.369 261.591 429.743 262.03 429.256C262.468 428.769 263.065 428.454 263.714 428.366C267.976 427.768 277.038 425.972 281.611 421.291C281.877 421.023 282.194 420.811 282.544 420.669C282.894 420.527 283.269 420.457 283.646 420.465Z" fill="#263238"/>
<path d="M341.491 406.878L336.356 397.935L358.706 389.663L360.274 401.515L341.491 406.878Z" fill="#0EACD2"/>
<path d="M276.667 401.443V413.007H300.119L301.017 401.443H276.667Z" fill="#0EACD2"/>
<path d="M401.85 118.779C401.85 118.779 395.05 145.594 387.868 153.902C387.868 153.902 374.831 140.877 370.868 129.541C370.868 129.541 370.497 124.249 366.714 121.987L361.052 114.241L351.607 117.641L353.869 125.195L363.698 130.678C363.698 130.678 376.16 165.047 387.484 164.856C398.809 164.664 403.921 149.557 403.921 149.557L410.146 117.234L401.85 118.779Z" fill="#FF8B7B"/>
<path d="M363.925 133.898L370.916 129.541C370.916 129.541 382.816 148.982 388.382 152.885C388.382 152.885 395.314 140.243 397.684 129.84C398.927 124.179 400.458 118.586 402.269 113.08L410.194 124.561C410.194 124.561 404.986 161.121 394.212 164.832C383.438 168.543 377.345 158.02 374.891 153.878C372.437 149.736 363.925 133.898 363.925 133.898Z" fill="#263238"/>
<path d="M423.841 397.074C423.841 397.517 431.024 407.668 431.024 407.668L438.542 397.948L430.437 386.467L423.841 397.074Z" fill="#FF8B7B"/>
<path d="M427.636 403.79L435.417 395.35C435.964 394.761 436.722 394.413 437.525 394.382C438.329 394.35 439.111 394.638 439.703 395.182L446.455 401.431C446.747 401.7 446.984 402.025 447.15 402.385C447.317 402.746 447.411 403.136 447.427 403.533C447.442 403.93 447.379 404.327 447.241 404.699C447.103 405.072 446.893 405.414 446.622 405.705L424.499 429.647C423.953 430.232 423.197 430.578 422.397 430.61C421.597 430.641 420.817 430.355 420.226 429.815C419.698 429.329 419.36 428.67 419.272 427.958C419.184 427.245 419.353 426.524 419.747 425.924C422.333 421.986 427.408 413.247 426.846 406.076C426.812 405.661 426.865 405.243 427.001 404.85C427.137 404.456 427.353 404.095 427.636 403.79Z" fill="#263238"/>
<path d="M407.716 392.357L429.551 373.203L437.584 389.879L422.656 402.856L407.716 392.357Z" fill="#0EACD2"/>
<path d="M399.731 175.319C399.731 175.319 376.184 278.116 375.789 302.776C375.394 327.437 396.906 370.21 410.505 390.238L428.821 375.669L402.281 311.025L414.599 230.53L428.821 393.626L446.395 395.877C446.395 395.877 448.634 334.201 446.395 311.779C444.156 289.357 456.606 213.1 447.389 183.938L399.731 175.319Z" fill="#263238"/>
<path d="M447.448 183.914C447.448 183.914 451.459 145.678 459.156 130.702L462.149 113.38C462.149 113.38 456.582 106.532 443.965 106.747C431.347 106.963 425.792 105.55 425.792 105.55C425.792 105.55 409.308 104.437 405.441 108.076C401.575 111.715 401.383 128.188 400.737 136.101C400.09 144.014 398.582 180.394 398.582 180.394L447.448 183.914Z" fill="#0EACD2"/>
<path d="M446.335 105.479C446.335 105.479 427.373 127.685 430.964 183.914L453.135 187.721L450.118 164.401L464.328 121.771C464.328 121.771 467.309 108.495 446.335 105.479Z" fill="#263238"/>
<path d="M424.715 105.479C424.715 105.479 404.292 120.395 402.724 177.629L392.033 177.928L400.784 132.15C399.248 128.019 399.047 123.509 400.21 119.257C401.407 115.139 402.7 110.303 405.453 108.028C409.835 104.401 416.814 104.712 424.715 105.479Z" fill="#263238"/>
<path d="M449.735 118.91C449.735 118.91 462.448 149.772 459.312 162.258C459.312 162.258 437.38 156.62 427.265 146.815C427.265 146.815 424.092 141.464 418.885 141.069L408.877 135.933L400.76 144.457L407.105 151.185L420.273 151.771C420.273 151.771 451.399 181.28 463.202 175.127C468.721 172.242 471.091 166.64 472.049 161.492C472.942 156.44 472.663 151.251 471.235 146.324L462.795 116.121L449.735 118.91Z" fill="#FF8B7B"/>
<path d="M419.471 154.716L428.139 144.636C428.139 144.636 447.388 159.481 459.264 162.258C458.228 152.117 456.629 142.042 454.475 132.079L448.49 121.771L449.04 117.438L463.55 115.558C463.55 115.558 476.718 152.37 473.222 165.634C469.727 178.898 462.221 180.215 449.579 175.319C436.937 170.422 419.471 154.716 419.471 154.716Z" fill="#263238"/>
<path d="M446.634 422.536H434.579L433.885 412.505L433.538 407.489L433.334 404.592L446.622 405.705V412.505L446.634 422.536Z" fill="#FF8B7B"/>
<path d="M434.064 418.047H445.545C446.348 418.047 447.118 418.366 447.686 418.934C448.254 419.502 448.574 420.273 448.574 421.076V430.282C448.57 431.083 448.25 431.85 447.682 432.416C447.115 432.981 446.346 433.299 445.545 433.299H412.935C412.538 433.3 412.144 433.223 411.777 433.072C411.41 432.921 411.076 432.7 410.794 432.419C410.513 432.139 410.29 431.806 410.137 431.439C409.985 431.072 409.906 430.679 409.907 430.282C409.905 429.565 410.158 428.87 410.621 428.322C411.083 427.774 411.725 427.408 412.432 427.289C417.089 426.523 426.954 424.32 431.838 419.029C432.121 418.72 432.465 418.474 432.848 418.305C433.231 418.136 433.646 418.048 434.064 418.047Z" fill="#263238"/>
<path opacity="0.1" d="M446.335 105.479C444.15 108.367 442.303 111.496 440.828 114.804C436.537 124.276 433.661 134.328 432.293 144.637L446.335 133.264L443.282 123.483L460.365 111.081C460.365 111.081 455.9 106.544 446.335 105.479Z" fill="white"/>
<path opacity="0.1" d="M408.147 136.903C408.147 136.903 414.91 112.781 424.715 105.479C424.715 105.479 413.091 103.862 407.74 106.58L408.937 123.483L403.945 125.052L408.147 136.903Z" fill="white"/>
<path d="M460.605 65.5425C462.903 71.3006 460.437 77.7771 460.665 83.9662C460.76 86.7914 461.431 89.5687 461.503 92.346C461.574 95.1234 460.928 98.188 458.857 100.115C456.989 101.875 454.32 102.402 451.806 102.869C447.879 103.575 443.618 104.245 440.098 102.378C439.284 101.947 438.542 101.396 437.704 101.037C435.965 100.444 434.108 100.283 432.293 100.57C430.483 100.862 428.631 100.772 426.858 100.307C421.255 98.3556 425.11 90.6461 426.068 86.6956C427.544 80.6462 429.013 74.6007 430.473 68.5592C436.519 67.3621 442.516 65.6861 448.574 64.4651C450.552 63.9009 452.635 63.8106 454.655 64.2017C456.547 64.7763 458.713 66.153 460.605 65.5425Z" fill="#263238"/>
<path d="M460.76 77.4419C460.291 79.0146 459.282 80.3712 457.911 81.2727C456.51 82.0149 456.295 83.3318 456.415 84.8641C456.666 88.4555 458.617 93.5313 451.902 96.4044C450.916 96.8978 449.808 97.0959 448.712 96.9748C447.616 96.8538 446.579 96.4187 445.724 95.722C441.008 91.999 439.511 81.56 439.511 81.56L430.964 56.9113C430.992 56.8579 431.028 56.8094 431.072 56.7676L431.143 56.6359C431.173 56.5869 431.209 56.5426 431.251 56.5043C431.554 56.0827 431.886 55.6827 432.245 55.3071C432.512 54.9968 432.796 54.7011 433.095 54.4213C436.219 51.5242 442.672 47.8251 451.925 54.0023C462.089 60.8019 462.963 71.5641 460.76 77.4419Z" fill="#263238"/>
<path d="M461.251 79.5249C461.359 82.386 458.725 84.0261 456.463 84.9239C455.358 85.3404 454.215 85.6491 453.051 85.8457C450.944 89.3533 446.383 91.8313 446.383 91.8313C446.044 93.1317 445.839 94.4635 445.772 95.8058C445.65 99.0543 445.855 102.307 446.383 105.514L443.294 110.303C430.425 116.193 425.84 105.514 425.84 105.514C430.557 105.012 432.065 101.049 432.508 97.7212C432.69 96.1942 432.69 94.6511 432.508 93.1242C430.418 92.2441 428.567 90.8781 427.109 89.1397C425.652 87.4013 424.63 85.3405 424.128 83.1282C422.608 76.6877 423.853 70.6303 426.523 64.6806C427.596 62.3065 428.882 60.0346 430.365 57.8929L430.964 56.9232C430.992 56.8699 431.028 56.8214 431.072 56.7796C431.123 56.6863 431.183 56.5982 431.251 56.5162V56.4324C431.467 56.1571 431.778 55.762 432.185 55.331H432.257L448.406 53.2361L455.421 58.8386L457.875 72.7252L454.284 76.999L452.788 78.7827L452.416 79.2136L452.883 78.8186C455.732 76.4243 459.372 75.2272 460.701 77.4898C461.044 78.1143 461.233 78.8122 461.251 79.5249Z" fill="#FF8B7B"/>
<path d="M439.439 69.1578C439.236 70.0078 438.613 70.5944 438.063 70.4627C437.512 70.331 437.213 69.5289 437.416 68.667C437.62 67.8051 438.242 67.2305 438.805 67.3622C439.368 67.4938 439.655 68.2959 439.439 69.1578Z" fill="#263238"/>
<path d="M430.246 66.6798C430.042 67.5418 429.42 68.1284 428.857 67.9967C428.294 67.865 428.007 67.0509 428.21 66.201C428.414 65.351 429.036 64.7525 429.599 64.8841C430.162 65.0158 430.449 65.8418 430.246 66.6798Z" fill="#263238"/>
<path d="M438.949 67.422L436.734 66.2249C436.734 66.2249 437.117 68.4874 438.949 67.422Z" fill="#263238"/>
<path d="M429.767 65.0158L427.552 63.8187C427.552 63.8187 427.971 66.0933 429.767 65.0158Z" fill="#263238"/>
<path d="M432.496 67.6974L430.389 75.2752C430.105 75.3646 429.805 75.3956 429.509 75.3664C429.212 75.3372 428.924 75.2485 428.663 75.1054C428.401 74.9623 428.171 74.7678 427.986 74.5337C427.802 74.2996 427.666 74.0306 427.588 73.7429L432.496 67.6974Z" fill="#FF5652"/>
<path d="M432.951 80.5425C432.951 80.5425 438.183 81.3207 439.679 76.9512" stroke="#263238" stroke-linecap="round" stroke-linejoin="round"/>
<path d="M439.511 63.2201C439.954 62.9881 440.44 62.8488 440.939 62.811C441.437 62.7731 441.938 62.8374 442.411 62.9999C442.884 63.1624 443.319 63.4197 443.689 63.756C444.059 64.0923 444.356 64.5007 444.563 64.956" stroke="#263238" stroke-linecap="round" stroke-linejoin="round"/>
<path d="M432.221 60.0836C431.826 59.8197 431.38 59.643 430.911 59.5654C430.443 59.4877 429.963 59.5108 429.504 59.6332C429.045 59.7555 428.618 59.9743 428.25 60.2749C427.883 60.5755 427.584 60.9511 427.373 61.3765" stroke="#263238" stroke-linecap="round" stroke-linejoin="round"/>
<path d="M459.144 72.9167L452.943 78.7707H452.847C442.48 75.4187 444.563 56.2648 444.563 56.2648C441.63 58.1323 431.239 57.1027 430.964 56.8873C431.526 56.0569 432.171 55.2867 432.891 54.5888C433.346 54.1459 434.795 54.2775 435.393 54.2297L439.212 53.9304L446.945 53.3079C447.173 53.3079 448.25 53.0325 448.442 53.1882L455.457 58.7907L459.144 72.9167Z" fill="#263238"/>
<path opacity="0.2" d="M437.788 93.9383C436.435 95.7063 434.577 97.0214 432.46 97.7093C432.642 96.1823 432.642 94.6392 432.46 93.1123C434.183 93.6585 435.98 93.9371 437.788 93.9383Z" fill="black"/>
<path opacity="0.3" d="M412.013 247.781L413.342 213.603L414.659 230.506L412.013 247.781Z" fill="black"/>
<path opacity="0.1" d="M446.622 406.866V412.505H433.885L433.538 407.489L446.622 406.866Z" fill="black"/>
<path d="M426.259 393.183L429.348 410.482H448.286L450.896 392.357L426.259 393.183Z" fill="#0EACD2"/>
</svg>
