<svg width="446" height="446" viewBox="0 0 446 446" fill="none" xmlns="http://www.w3.org/2000/svg">
<path d="M223 381.384C318.517 381.384 395.95 376.863 395.95 371.286C395.95 365.709 318.517 361.189 223 361.189C127.482 361.189 50.05 365.709 50.05 371.286C50.05 376.863 127.482 381.384 223 381.384Z" fill="#F5F5F5"/>
<path d="M360.047 320.817H257.895C256.612 320.823 255.341 320.568 254.159 320.068C252.977 319.568 251.91 318.834 251.02 317.909C250.131 316.984 249.439 315.887 248.986 314.687C248.534 313.486 248.329 312.206 248.386 310.925L255.888 117.004C256.015 114.357 257.149 111.858 259.057 110.019C260.966 108.18 263.505 107.14 266.155 107.111H368.307C369.59 107.105 370.861 107.36 372.042 107.86C373.224 108.36 374.292 109.095 375.181 110.02C376.07 110.945 376.762 112.041 377.215 113.241C377.668 114.442 377.872 115.722 377.815 117.004L370.314 310.925C370.186 313.572 369.053 316.07 367.144 317.909C365.236 319.748 362.697 320.788 360.047 320.817Z" fill="#0B8CAD"/>
<path d="M377.748 182.427L377.124 198.453L378.104 198.491L378.728 182.465L377.748 182.427Z" fill="#0B8CAD"/>
<path d="M378.258 169.951L377.999 176.573L378.979 176.612L379.238 169.989L378.258 169.951Z" fill="#0B8CAD"/>
<path opacity="0.8" d="M360.047 320.817H257.895C256.612 320.823 255.341 320.568 254.159 320.068C252.977 319.568 251.91 318.834 251.02 317.909C250.131 316.984 249.439 315.887 248.986 314.687C248.534 313.486 248.329 312.206 248.386 310.925L255.888 117.004C256.015 114.357 257.149 111.858 259.057 110.019C260.966 108.18 263.505 107.14 266.155 107.111H368.307C369.59 107.105 370.861 107.36 372.042 107.86C373.224 108.36 374.292 109.095 375.181 110.02C376.07 110.945 376.762 112.041 377.215 113.241C377.668 114.442 377.872 115.722 377.815 117.004L370.314 310.925C370.186 313.572 369.053 316.07 367.144 317.909C365.236 319.748 362.697 320.788 360.047 320.817Z" fill="white"/>
<path d="M350.27 316.883H260.178C259.054 316.888 257.94 316.664 256.904 316.226C255.868 315.788 254.932 315.144 254.153 314.333C253.373 313.523 252.766 312.562 252.368 311.51C251.97 310.458 251.79 309.337 251.838 308.213L258.858 126.602C258.972 124.28 259.968 122.09 261.642 120.479C263.317 118.867 265.544 117.956 267.867 117.932H357.959C359.084 117.926 360.199 118.148 361.235 118.586C362.272 119.024 363.208 119.668 363.988 120.479C364.768 121.29 365.375 122.25 365.773 123.303C366.17 124.355 366.349 125.478 366.3 126.602L359.28 308.213C359.164 310.533 358.167 312.722 356.493 314.334C354.819 315.945 352.594 316.857 350.27 316.883Z" fill="#0B8CAD"/>
<path opacity="0.8" d="M309.845 306.599C312.229 304.26 312.339 300.505 310.089 298.212C307.84 295.919 304.084 295.957 301.699 298.296C299.315 300.635 299.206 304.39 301.455 306.683C303.704 308.976 307.46 308.938 309.845 306.599Z" fill="white"/>
<path d="M307.374 261.133C302.617 261.165 297.902 260.227 293.519 258.378C289.136 256.528 285.175 253.805 281.878 250.375C278.581 246.945 276.018 242.879 274.343 238.426C272.669 233.972 271.92 229.225 272.14 224.472L273.344 193.207H273.282C272.929 193.206 272.577 193.176 272.229 193.118L271.016 224.472C270.791 229.369 271.565 234.261 273.291 238.85C275.018 243.438 277.66 247.627 281.057 251.161C284.455 254.696 288.536 257.501 293.053 259.407C297.57 261.313 302.427 262.28 307.33 262.248C317.72 262.202 327.666 258.031 334.982 250.652C334.716 250.383 334.482 250.084 334.286 249.76C330.772 253.337 326.585 256.183 321.966 258.135C317.347 260.087 312.388 261.106 307.374 261.133Z" fill="white"/>
<path d="M311.691 149.357C292.576 149.357 276.19 163.629 272.996 182.084C273.234 182.07 273.472 182.07 273.71 182.084C273.853 182.084 273.987 182.084 274.129 182.084C277.287 164.244 293.156 150.489 311.647 150.489C316.405 150.456 321.12 151.393 325.505 153.242C329.889 155.091 333.851 157.814 337.149 161.244C340.447 164.675 343.011 168.741 344.686 173.195C346.36 177.649 347.11 182.397 346.89 187.151L345.445 224.49C345.211 230.321 343.619 236.017 340.797 241.125C341.152 241.228 341.491 241.378 341.805 241.571C344.695 236.324 346.323 230.476 346.56 224.49L348.005 187.151C348.234 182.252 347.463 177.357 345.738 172.766C344.013 168.175 341.371 163.983 337.973 160.447C334.575 156.91 330.493 154.103 325.974 152.196C321.455 150.29 316.596 149.323 311.691 149.357Z" fill="white"/>
<path d="M311.397 156.992C317.408 156.978 323.294 158.703 328.345 161.961C328.505 161.615 328.699 161.286 328.925 160.979C323.699 157.625 317.615 155.853 311.406 155.877C304.38 155.9 297.53 158.079 291.782 162.121C291.979 162.437 292.143 162.771 292.273 163.12C297.861 159.15 304.542 157.009 311.397 156.992Z" fill="white"/>
<path d="M276.877 228.058C276.6 226.147 276.498 224.216 276.573 222.287L277.849 189.283C278.127 182.479 280.487 175.925 284.61 170.506C284.291 170.345 283.992 170.147 283.718 169.917C279.473 175.509 277.044 182.268 276.761 189.283L275.485 222.287C275.407 224.305 275.515 226.327 275.806 228.325C276.153 228.201 276.512 228.112 276.877 228.058Z" fill="white"/>
<path d="M336.971 168.383C336.701 168.658 336.402 168.903 336.079 169.114C340.5 174.895 342.748 182.047 342.43 189.318L341.154 222.322C340.747 230.972 337.044 239.139 330.805 245.145C324.567 251.151 316.266 254.542 307.606 254.621C300.731 254.653 294.04 252.403 288.58 248.226C288.261 248.474 287.913 248.683 287.545 248.85C293.247 253.342 300.303 255.769 307.562 255.736C316.52 255.655 325.108 252.148 331.563 245.934C338.017 239.72 341.848 231.271 342.269 222.322L343.545 189.318C343.88 181.784 341.552 174.373 336.971 168.383Z" fill="white"/>
<path d="M281.702 202.404L282.122 191.504C282.475 184.022 285.678 176.959 291.073 171.763C296.469 166.568 303.649 163.635 311.138 163.566C317.444 163.52 323.561 165.709 328.405 169.746C333.249 173.783 336.505 179.406 337.595 185.616C337.96 185.552 338.33 185.519 338.701 185.518C337.592 179.031 334.213 173.149 329.167 168.923C324.122 164.698 317.738 162.404 311.156 162.451C303.366 162.52 295.899 165.569 290.287 170.972C284.675 176.375 281.344 183.722 280.98 191.504L280.578 202.484C280.836 202.452 281.095 202.435 281.355 202.431L281.702 202.404Z" fill="white"/>
<path d="M319.505 245.532C315.86 247.176 311.908 248.03 307.909 248.038C304.278 248.073 300.677 247.366 297.328 245.961C293.978 244.556 290.951 242.482 288.43 239.867C285.909 237.252 283.949 234.151 282.668 230.752C281.387 227.353 280.812 223.729 280.98 220.101L281.239 213.536H280.891C280.634 213.537 280.378 213.519 280.124 213.482L279.865 220.083C279.69 223.85 280.285 227.613 281.612 231.142C282.939 234.672 284.972 237.894 287.585 240.612C290.198 243.331 293.338 245.488 296.812 246.954C300.286 248.419 304.023 249.161 307.793 249.136C312.026 249.131 316.209 248.218 320.059 246.46C319.839 246.173 319.653 245.862 319.505 245.532Z" fill="white"/>
<path d="M338.273 196.686C338.113 196.686 337.952 196.686 337.8 196.686L336.908 220.128C336.603 227.252 333.681 234.014 328.702 239.118C328.925 239.424 329.114 239.753 329.264 240.1C334.577 234.771 337.702 227.646 338.023 220.128L338.915 196.677C338.71 196.668 338.496 196.686 338.273 196.686Z" fill="white"/>
<path d="M320.888 171.13C317.759 169.718 314.365 168.992 310.933 168.998C304.312 169.057 297.965 171.648 293.194 176.24C288.423 180.831 285.591 187.075 285.279 193.689L284.343 217.907C284.292 219.334 284.364 220.764 284.557 222.179C284.882 221.883 285.238 221.623 285.618 221.403C285.475 220.244 285.421 219.075 285.458 217.907L286.394 193.689C286.693 187.374 289.397 181.413 293.952 177.029C298.507 172.644 304.567 170.17 310.889 170.113C314.135 170.118 317.343 170.814 320.299 172.156C320.462 171.796 320.659 171.452 320.888 171.13Z" fill="white"/>
<path d="M329.469 177.793C329.252 178.114 329.004 178.413 328.729 178.685C332.083 182.947 333.796 188.271 333.554 193.689L332.618 217.907C332.325 224.039 329.762 229.844 325.428 234.193C321.095 238.541 315.299 241.124 309.167 241.438C309.051 241.837 308.892 242.223 308.694 242.588C315.21 242.386 321.409 239.731 326.051 235.155C330.693 230.579 333.437 224.419 333.733 217.907L334.669 193.689C334.925 187.935 333.076 182.284 329.469 177.793Z" fill="white"/>
<path d="M306.215 177.178C306.232 176.787 306.286 176.399 306.375 176.018C303.526 176.636 300.836 177.836 298.472 179.542C298.816 179.717 299.134 179.939 299.418 180.202C301.473 178.775 303.779 177.749 306.215 177.178Z" fill="white"/>
<path d="M327.471 220.708C326.216 224.805 323.69 228.396 320.258 230.962C316.826 233.527 312.667 234.935 308.382 234.98C305.884 234.997 303.408 234.505 301.107 233.533C298.805 232.562 296.726 231.131 294.996 229.328C293.266 227.526 291.922 225.389 291.046 223.05C290.17 220.71 289.78 218.217 289.9 215.721L290.667 195.874C290.762 193.529 291.282 191.22 292.201 189.059C291.883 188.801 291.601 188.501 291.363 188.167C290.283 190.59 289.677 193.197 289.579 195.848L288.812 215.695C288.69 218.331 289.107 220.965 290.037 223.436C290.967 225.906 292.389 228.161 294.219 230.064C296.048 231.967 298.246 233.477 300.678 234.503C303.109 235.529 305.725 236.049 308.364 236.032C312.902 235.981 317.307 234.489 320.941 231.771C324.576 229.053 327.253 225.251 328.586 220.913C328.209 220.878 327.836 220.81 327.471 220.708Z" fill="white"/>
<path d="M329.148 195.874L328.987 199.995C329.282 199.943 329.58 199.913 329.879 199.906H330.12L330.272 195.847C330.448 191.634 329.246 187.478 326.85 184.009C324.454 180.539 320.992 177.944 316.99 176.616C317.026 177.014 317.026 177.414 316.99 177.811C320.681 179.127 323.853 181.591 326.041 184.842C328.23 188.093 329.318 191.959 329.148 195.874Z" fill="white"/>
<path d="M310.416 182.084C306.132 182.125 302.026 183.804 298.941 186.776C295.856 189.749 294.025 193.789 293.825 198.069L293.655 202.475C294.028 202.5 294.398 202.556 294.761 202.645L294.94 198.069C295.127 194.081 296.836 190.318 299.715 187.553C302.595 184.788 306.424 183.233 310.416 183.208C312.343 183.197 314.253 183.579 316.028 184.33C317.803 185.081 319.407 186.185 320.742 187.575C322.077 188.965 323.115 190.612 323.794 192.416C324.472 194.22 324.776 196.143 324.688 198.069L324.09 213.536C323.923 217.018 322.595 220.344 320.319 222.985C318.044 225.627 314.95 227.431 311.531 228.111C311.571 228.485 311.571 228.862 311.531 229.235C315.245 228.539 318.616 226.611 321.099 223.762C323.582 220.913 325.032 217.311 325.214 213.536L325.812 198.069C325.908 195.994 325.58 193.921 324.847 191.977C324.115 190.034 322.994 188.259 321.554 186.763C320.113 185.267 318.382 184.081 316.467 183.276C314.552 182.472 312.493 182.066 310.416 182.084Z" fill="white"/>
<path d="M299.997 195.197C300.229 195.183 300.461 195.183 300.693 195.197C301.654 193.541 303.03 192.166 304.685 191.205C306.34 190.245 308.217 189.733 310.13 189.72C311.297 189.72 312.456 189.919 313.556 190.308C313.68 189.952 313.839 189.609 314.028 189.283C312.794 188.83 311.49 188.598 310.175 188.596C307.96 188.619 305.794 189.245 303.908 190.406C302.022 191.567 300.488 193.22 299.471 195.188C299.647 195.182 299.822 195.185 299.997 195.197Z" fill="white"/>
<path d="M319.8 211.351C319.741 212.627 319.457 213.884 318.961 215.061C319.309 215.19 319.636 215.367 319.933 215.588C320.518 214.247 320.85 212.811 320.915 211.351L321.343 200.254C321.377 199.219 321.272 198.184 321.031 197.177C320.694 197.355 320.338 197.492 319.969 197.587C320.174 198.464 320.261 199.364 320.228 200.263L319.8 211.351Z" fill="white"/>
<path d="M311.308 221.555C310.508 221.748 309.687 221.847 308.864 221.85C307.505 221.852 306.16 221.579 304.911 221.046C303.661 220.514 302.532 219.733 301.593 218.751C300.654 217.77 299.924 216.608 299.447 215.336C298.971 214.063 298.757 212.708 298.82 211.351L299.016 206.329C298.642 206.296 298.271 206.228 297.91 206.124L297.705 211.351C297.638 212.855 297.878 214.357 298.411 215.766C298.943 217.175 299.756 218.46 300.801 219.545C301.845 220.63 303.099 221.491 304.487 222.075C305.875 222.66 307.367 222.957 308.873 222.947C309.808 222.943 310.739 222.83 311.647 222.608C311.503 222.267 311.39 221.915 311.308 221.555Z" fill="white"/>
<path d="M309.916 195.179C307.965 195.202 306.097 195.972 304.697 197.331C303.296 198.69 302.47 200.534 302.388 202.484L302.129 209.21C302.105 209.837 302.168 210.464 302.317 211.074C302.6 210.732 302.93 210.432 303.298 210.182C303.253 209.863 303.235 209.541 303.244 209.219L303.503 202.493C303.583 200.848 304.289 199.296 305.476 198.155C306.664 197.014 308.243 196.37 309.89 196.356C310.683 196.354 311.469 196.513 312.2 196.824C312.93 197.134 313.59 197.589 314.14 198.162C314.689 198.735 315.117 199.414 315.397 200.156C315.677 200.899 315.803 201.691 315.768 202.484L315.509 209.21C315.451 210.402 315.064 211.556 314.39 212.542C313.716 213.527 312.782 214.307 311.691 214.794C311.672 215.215 311.612 215.633 311.513 216.042C312.95 215.545 314.206 214.628 315.117 213.41C316.028 212.192 316.553 210.729 316.624 209.21L316.892 202.484C316.942 201.539 316.798 200.595 316.469 199.708C316.141 198.82 315.634 198.01 314.981 197.326C314.328 196.642 313.541 196.098 312.67 195.729C311.8 195.36 310.862 195.172 309.916 195.179Z" fill="white"/>
<path d="M328.675 114.979H297.366C297.134 114.979 296.905 114.933 296.691 114.842C296.478 114.752 296.284 114.62 296.123 114.453C295.962 114.287 295.835 114.09 295.752 113.874C295.668 113.657 295.628 113.427 295.635 113.195C295.663 112.715 295.871 112.264 296.219 111.933C296.567 111.601 297.028 111.415 297.509 111.411H328.809C329.042 111.41 329.272 111.455 329.487 111.545C329.701 111.635 329.895 111.767 330.058 111.933C330.22 112.1 330.347 112.297 330.432 112.514C330.516 112.731 330.556 112.962 330.548 113.195C330.519 113.674 330.31 114.124 329.962 114.455C329.615 114.786 329.155 114.973 328.675 114.979Z" fill="#0B8CAD"/>
<path opacity="0.2" d="M279.704 146.288C277.853 146.433 275.995 146.475 274.138 146.413C273.482 146.272 272.809 146.23 272.14 146.288H271.935C266.698 145.904 261.517 144.968 256.477 143.496C255.959 143.344 255.424 143.166 254.88 142.979L250.545 255.255L279.517 235.925C280.827 235.065 281.914 233.907 282.689 232.545C283.464 231.184 283.906 229.658 283.977 228.093L286.885 153.031C286.926 152.097 286.765 151.164 286.413 150.298C286.06 149.431 285.525 148.651 284.843 148.011C284.161 147.371 283.349 146.885 282.462 146.588C281.575 146.29 280.635 146.188 279.704 146.288Z" fill="black"/>
<path d="M272.72 137.912C270.872 138.06 269.016 138.105 267.163 138.046C266.507 137.907 265.834 137.862 265.165 137.912H264.951C259.717 137.532 254.538 136.596 249.501 135.12C243.186 133.157 237.367 129.859 232.437 125.451C231.24 124.298 229.64 123.658 227.977 123.667H220.413C218.718 123.679 217.086 124.314 215.828 125.451C210.596 129.846 204.527 133.135 197.988 135.12C192.878 136.59 187.628 137.525 182.325 137.912H182.111C181.439 137.862 180.763 137.907 180.104 138.046C178.253 138.105 176.401 138.06 174.556 137.912C173.605 137.839 172.65 137.958 171.746 138.26C170.842 138.563 170.008 139.044 169.293 139.674C168.578 140.304 167.997 141.071 167.583 141.93C167.169 142.789 166.932 143.721 166.884 144.673L163.976 219.744C163.91 221.264 164.226 222.776 164.894 224.143C165.563 225.509 166.563 226.686 167.803 227.567L209.861 257.146C211.41 258.232 213.258 258.812 215.15 258.805H222.706C224.637 258.798 226.524 258.221 228.129 257.146L272.47 227.567C273.776 226.705 274.861 225.548 275.636 224.189C276.41 222.83 276.854 221.307 276.93 219.744L279.829 144.673C279.868 143.745 279.707 142.82 279.358 141.959C279.01 141.097 278.481 140.321 277.808 139.681C277.135 139.04 276.333 138.551 275.455 138.246C274.578 137.941 273.645 137.827 272.72 137.912Z" fill="#0B8CAD"/>
<path opacity="0.8" d="M272.72 137.912C270.872 138.06 269.016 138.105 267.163 138.046C266.507 137.907 265.834 137.862 265.165 137.912H264.951C259.717 137.532 254.538 136.596 249.501 135.12C243.186 133.157 237.367 129.859 232.437 125.451C231.24 124.298 229.64 123.658 227.977 123.667H220.413C218.718 123.679 217.086 124.314 215.828 125.451C210.596 129.846 204.527 133.135 197.988 135.12C192.878 136.59 187.628 137.525 182.325 137.912H182.111C181.439 137.862 180.763 137.907 180.104 138.046C178.253 138.105 176.401 138.06 174.556 137.912C173.605 137.839 172.65 137.958 171.746 138.26C170.842 138.563 170.008 139.044 169.293 139.674C168.578 140.304 167.997 141.071 167.583 141.93C167.169 142.789 166.932 143.721 166.884 144.673L163.976 219.744C163.91 221.264 164.226 222.776 164.894 224.143C165.563 225.509 166.563 226.686 167.803 227.567L209.861 257.146C211.41 258.232 213.258 258.812 215.15 258.805H222.706C224.637 258.798 226.524 258.221 228.129 257.146L272.47 227.567C273.776 226.705 274.861 225.548 275.636 224.189C276.41 222.83 276.854 221.307 276.93 219.744L279.829 144.673C279.868 143.745 279.707 142.82 279.358 141.959C279.01 141.097 278.481 140.321 277.808 139.681C277.135 139.04 276.333 138.551 275.455 138.246C274.578 137.941 273.645 137.827 272.72 137.912Z" fill="white"/>
<path d="M168.891 219.602L171.666 147.822C171.727 146.506 172.29 145.264 173.239 144.35C174.188 143.436 175.45 142.92 176.768 142.907H178.4C185.458 142.82 192.472 141.769 199.246 139.785C205.69 137.832 211.732 134.742 217.086 130.66C217.968 129.942 219.071 129.549 220.208 129.549C221.346 129.549 222.448 129.942 223.33 130.66C228.412 134.768 234.231 137.868 240.474 139.794C247.167 141.788 254.105 142.839 261.089 142.916H262.596C263.246 142.911 263.89 143.038 264.489 143.29C265.087 143.542 265.628 143.913 266.079 144.382C266.529 144.85 266.878 145.406 267.106 146.014C267.334 146.623 267.435 147.271 267.404 147.92L264.63 219.61C264.593 220.418 264.366 221.206 263.967 221.909C263.569 222.613 263.011 223.213 262.337 223.66L218.273 253.096C217.455 253.654 216.488 253.952 215.498 253.952C214.509 253.952 213.542 253.654 212.724 253.096L170.925 223.66C170.272 223.21 169.743 222.602 169.387 221.892C169.031 221.182 168.861 220.395 168.891 219.602Z" fill="#0B8CAD"/>
<path opacity="0.2" d="M181.138 215.81L183.493 154.789C189.799 154.29 196.039 153.157 202.118 151.408C208.32 149.543 214.231 146.823 219.682 143.326C224.903 146.839 230.614 149.562 236.63 151.408C242.619 153.165 248.774 154.298 254.996 154.789L252.632 215.81L215.935 240.287L181.138 215.81Z" fill="white"/>
<path opacity="0.2" d="M193.475 209.433L195.179 165.359C198.443 164.743 201.735 163.967 204.991 163.031C209.87 161.593 214.599 159.688 219.111 157.34C223.474 159.696 228.064 161.602 232.812 163.031C236.035 163.964 239.255 164.74 242.472 165.359L240.769 209.433L216.506 225.676L193.475 209.433Z" fill="white"/>
<path d="M112.517 140.615C110.849 144.076 109.163 147.626 107.539 151.123C106.731 152.907 105.952 154.655 105.202 156.368C104.503 158.005 103.89 159.679 103.365 161.381C102.997 163.007 102.83 164.673 102.865 166.34C102.865 168.213 102.865 170.158 102.865 172.094L103.16 183.85L99.0387 184.457C98.0069 180.573 97.1703 176.64 96.5322 172.673C96.2289 170.675 95.9256 168.668 95.7651 166.59C95.6759 165.555 95.6045 164.503 95.5867 163.397C95.5867 162.835 95.5867 162.273 95.5867 161.613C95.5867 161.309 95.6313 160.988 95.6848 160.631C95.7383 160.275 95.7918 160.025 95.8453 159.739C96.2875 157.617 96.8837 155.531 97.6293 153.495C98.3162 151.551 99.0655 149.651 99.8415 147.787C101.403 144.049 103.079 140.445 104.953 136.833L112.517 140.615Z" fill="#FF8B7B"/>
<path d="M106.148 185.473L102.723 181.531L98.8513 181.727C97.0673 185.964 100.948 188.667 100.948 188.667L101.634 190.986C101.705 191.217 101.826 191.43 101.988 191.609C102.151 191.789 102.35 191.93 102.573 192.024C102.796 192.117 103.037 192.161 103.279 192.151C103.52 192.141 103.757 192.078 103.971 191.967L106.148 190.888C106.451 190.739 106.706 190.508 106.882 190.221C107.059 189.933 107.151 189.602 107.147 189.264V187.935C107.11 187.023 106.757 186.153 106.148 185.473Z" fill="#FF8B7B"/>
<path d="M95.2477 361.679C94.5904 361.385 93.9705 361.014 93.4013 360.573C93.3713 360.551 93.3485 360.521 93.3357 360.486C93.323 360.451 93.321 360.413 93.3299 360.377C93.3395 360.339 93.3596 360.305 93.3881 360.278C93.4165 360.251 93.4521 360.233 93.4905 360.225C93.8205 360.163 96.7374 359.628 97.4332 360.395C97.5096 360.483 97.5613 360.589 97.5833 360.704C97.6052 360.818 97.5965 360.936 97.558 361.046C97.5202 361.235 97.4348 361.411 97.3099 361.558C97.1851 361.704 97.0249 361.817 96.8444 361.884C96.305 362.013 95.7372 361.94 95.2477 361.679ZM94.0168 360.529C95.1942 361.34 96.1933 361.715 96.6928 361.519C96.811 361.47 96.9148 361.392 96.9945 361.292C97.0741 361.192 97.1268 361.074 97.1477 360.948C97.1769 360.906 97.1925 360.856 97.1925 360.805C97.1925 360.754 97.1769 360.704 97.1477 360.662C96.7731 360.252 95.1853 360.368 94.0168 360.529Z" fill="#343D63"/>
<path d="M93.4371 360.6L93.3568 360.537C93.3412 360.507 93.333 360.473 93.333 360.439C93.333 360.405 93.3412 360.372 93.3568 360.341C93.3568 360.252 94.3737 358.058 95.5065 357.665C95.6506 357.605 95.8071 357.581 95.9624 357.595C96.1178 357.609 96.2675 357.661 96.3985 357.746C96.538 357.808 96.6516 357.916 96.7199 358.053C96.7883 358.19 96.8071 358.346 96.7732 358.495C96.5591 359.431 94.4807 360.502 93.5887 360.609C93.5642 360.618 93.5381 360.622 93.512 360.62C93.4859 360.619 93.4603 360.612 93.4371 360.6ZM96.1131 358.04C95.9639 357.982 95.7985 357.982 95.6493 358.04C94.9713 358.272 94.2667 359.431 93.8653 360.145C94.8286 359.868 96.2201 358.985 96.345 358.423C96.345 358.325 96.345 358.209 96.1488 358.084L96.1131 358.04Z" fill="#343D63"/>
<path d="M126.04 108.485C126.78 113.373 128.448 124.032 124.889 127.217C124.889 127.217 125.995 132.185 135.049 132.364C145.012 132.56 140.035 127.511 140.035 127.511C134.683 126.111 134.977 122.088 136.101 118.324L126.04 108.485Z" fill="#FF8B7B"/>
<path d="M146.431 100.386L146.27 100.305C146.2 100.232 146.161 100.135 146.161 100.033C146.161 99.9319 146.2 99.8344 146.27 99.7613C146.656 99.2715 147.152 98.8797 147.718 98.6178C148.283 98.3558 148.903 98.2311 149.526 98.2539C149.577 98.2594 149.625 98.2749 149.67 98.2995C149.714 98.3241 149.754 98.3572 149.785 98.3971C149.817 98.4369 149.84 98.4826 149.854 98.5315C149.867 98.5804 149.871 98.6316 149.865 98.682C149.852 98.7854 149.798 98.8795 149.717 98.9445C149.635 99.0094 149.532 99.04 149.428 99.0299C148.936 99.0212 148.448 99.1271 148.004 99.3392C147.56 99.5512 147.171 99.8637 146.868 100.252C146.816 100.314 146.747 100.36 146.669 100.384C146.592 100.407 146.509 100.408 146.431 100.386Z" fill="#263238"/>
<path d="M148.286 105.194C148.669 106.756 149.27 108.258 150.07 109.654C149.712 109.862 149.312 109.99 148.899 110.027C148.485 110.064 148.069 110.01 147.679 109.868L148.286 105.194Z" fill="#FF5652"/>
<path d="M147.831 103.998C147.751 104.658 148.036 105.229 148.464 105.274C148.893 105.318 149.303 104.81 149.356 104.15C149.41 103.49 149.151 102.919 148.723 102.874C148.295 102.83 147.911 103.338 147.831 103.998Z" fill="#263238"/>
<path d="M148.562 102.892L150.195 102.589C150.195 102.589 149.231 103.748 148.562 102.892Z" fill="#263238"/>
<path d="M155.779 364.944L164.467 362.197L163.62 344.499L154.923 347.238L155.779 364.944Z" fill="#FF8B7B"/>
<path d="M84.4634 358.62L92.2862 360.832L98.8424 342.715L91.0107 340.503L84.4634 358.62Z" fill="#FF8B7B"/>
<path d="M93.2854 359.271L84.9006 355.703C84.7544 355.641 84.5911 355.635 84.4404 355.684C84.2898 355.733 84.1618 355.835 84.0799 355.97L80.1462 362.348C80.0509 362.507 79.9906 362.685 79.9693 362.869C79.948 363.053 79.9663 363.239 80.0229 363.416C80.0794 363.592 80.173 363.755 80.2973 363.892C80.4217 364.029 80.5739 364.139 80.7438 364.213C83.6964 365.39 85.2039 365.809 88.8611 367.37C91.1267 368.325 92.9018 371.233 97.8881 371.233C101.26 371.233 101.902 368.182 100.564 367.736C94.3201 365.738 95.5956 362.767 94.3201 360.243C94.1019 359.806 93.735 359.461 93.2854 359.271Z" fill="#263238"/>
<path d="M167.571 363.419C166.834 363.399 166.102 363.3 165.386 363.124C165.348 363.114 165.314 363.093 165.288 363.065C165.261 363.037 165.243 363.002 165.234 362.964C165.227 362.927 165.231 362.889 165.246 362.854C165.26 362.819 165.284 362.789 165.314 362.768C165.591 362.589 167.99 360.983 168.998 361.412C169.108 361.46 169.203 361.535 169.275 361.63C169.347 361.725 169.393 361.838 169.409 361.956C169.454 362.139 169.45 362.331 169.398 362.512C169.347 362.693 169.249 362.858 169.114 362.991C168.669 363.316 168.121 363.468 167.571 363.419ZM165.93 362.848C167.366 363.133 168.445 363.08 168.847 362.705C168.935 362.615 168.997 362.503 169.029 362.381C169.06 362.259 169.059 362.131 169.025 362.009C169.02 361.957 169.002 361.906 168.973 361.863C168.943 361.819 168.903 361.783 168.856 361.76C168.338 361.528 166.929 362.232 165.912 362.848H165.93Z" fill="#343D63"/>
<path d="M165.43 363.124H165.332C165.303 363.109 165.278 363.086 165.26 363.058C165.243 363.03 165.234 362.997 165.234 362.964C165.234 362.857 165.163 360.493 166.028 359.708C166.135 359.604 166.265 359.527 166.408 359.482C166.55 359.437 166.701 359.426 166.849 359.449C167.003 359.454 167.152 359.509 167.272 359.605C167.393 359.702 167.479 359.835 167.518 359.984C167.732 360.876 166.296 362.66 165.528 363.133C165.496 363.139 165.462 363.136 165.43 363.124ZM166.724 359.797C166.565 359.8 166.413 359.86 166.296 359.967C165.778 360.439 165.644 361.751 165.618 362.553C166.385 361.929 167.268 360.6 167.134 360.038C167.134 359.949 167.063 359.833 166.813 359.806L166.724 359.797Z" fill="#343D63"/>
<path d="M164.708 361.983H155.484C155.326 361.977 155.172 362.032 155.052 362.137C154.933 362.241 154.858 362.387 154.842 362.544L154.03 369.841C154.018 370.028 154.045 370.216 154.108 370.392C154.171 370.569 154.269 370.73 154.397 370.867C154.525 371.004 154.679 371.114 154.851 371.189C155.023 371.264 155.208 371.303 155.395 371.304C158.615 371.25 160.159 371.063 164.217 371.063C166.715 371.063 170.363 371.322 173.815 371.322C177.267 371.322 177.33 367.914 175.884 367.602C169.409 366.22 168.329 364.311 166.072 362.491C165.688 362.172 165.207 361.993 164.708 361.983Z" fill="#263238"/>
<path opacity="0.2" d="M163.611 344.499L164.075 353.981L155.36 356.372L154.923 347.247L163.611 344.499Z" fill="black"/>
<path opacity="0.2" d="M91.0108 340.512L98.8337 342.724L95.4619 352.054L87.6301 349.842L91.0108 340.512Z" fill="black"/>
<path d="M108.824 128.252C105.399 129.054 101.635 141.391 101.635 141.391L111.188 151.497C111.188 151.497 119.305 139.839 117.708 135.628C116.022 131.24 112.829 127.306 108.824 128.252Z" fill="#343D63"/>
<path opacity="0.2" d="M108.824 128.252C105.399 129.054 101.635 141.391 101.635 141.391L111.188 151.497C111.188 151.497 119.305 139.839 117.708 135.628C116.022 131.24 112.829 127.306 108.824 128.252Z" fill="black"/>
<path opacity="0.4" d="M114.114 135.985C115.898 134.38 117.022 134.826 117.806 136.074C118.556 139.705 113.48 147.929 111.562 150.855C110.751 147.421 110.18 139.634 114.114 135.985Z" fill="black"/>
<path d="M152.532 131.124C153.005 134.692 152.71 145.655 145.788 178.819L112.437 178.168C113.605 164.619 113.998 156.252 108.771 128.287C113.484 127.421 118.254 126.893 123.043 126.709C128.098 126.446 133.165 126.545 138.206 127.003C143.032 127.538 148.322 128.591 150.694 129.099C151.173 129.205 151.607 129.456 151.936 129.819C152.265 130.182 152.473 130.638 152.532 131.124Z" fill="#343D63"/>
<path opacity="0.2" d="M152.532 131.124C153.005 134.692 152.71 145.655 145.788 178.819L112.437 178.168C113.605 164.619 113.998 156.252 108.771 128.287C113.484 127.421 118.254 126.893 123.043 126.709C128.098 126.446 133.165 126.545 138.206 127.003C143.032 127.538 148.322 128.591 150.694 129.099C151.173 129.205 151.607 129.456 151.936 129.819C152.265 130.182 152.473 130.638 152.532 131.124Z" fill="black"/>
<path d="M126.031 99.6363C125.549 107.798 125.139 111.232 128.751 115.799C134.103 122.65 144.201 121.151 147.1 113.275C149.704 106.139 150.052 93.9899 142.542 90.0116C135.031 86.0333 126.504 91.4745 126.031 99.6363Z" fill="#FF8B7B"/>
<path d="M137.002 178.614C137.002 178.614 132.159 238.164 125.772 269.767C120.616 295.323 97.228 350.547 97.228 350.547L87.0503 346.248C87.0503 346.248 98.8336 283.7 106.799 268.492C115.719 216.033 101.278 198.149 112.454 178.168L137.002 178.614Z" fill="#263238"/>
<path opacity="0.4" d="M127.931 211.181C124.282 226.693 126.646 240.777 129.117 250.072C130.58 240.108 131.9 229.378 133.024 219.325C131.481 216.435 129.545 213.705 127.931 211.181Z" fill="black"/>
<path d="M145.806 178.783C145.806 178.783 158.473 236.933 160.078 261.793C161.773 287.661 165.172 348.941 165.172 348.941L154.004 351.938C154.004 351.938 141.444 288.776 142.408 269.767C136.164 242.793 114.39 178.204 114.39 178.204L145.806 178.783Z" fill="#263238"/>
<path d="M166.858 351.778L152.354 354.222L150.962 349.049L166.492 346.408L166.858 351.778Z" fill="#343D63"/>
<path d="M99.0566 351.055L85.4714 347.211L86.2296 342.171L100.751 345.748L99.0566 351.055Z" fill="#343D63"/>
<path d="M112.044 176.17L110.403 179.122C110.278 179.345 110.546 179.586 110.929 179.595L145.904 180.282C146.208 180.282 146.466 180.148 146.493 179.961L146.93 176.982C146.93 176.776 146.707 176.598 146.377 176.589L112.597 175.929C112.492 175.916 112.385 175.932 112.288 175.975C112.191 176.017 112.107 176.084 112.044 176.17Z" fill="white"/>
<path d="M116.406 180.032H115.514C115.336 180.032 115.202 179.925 115.22 179.818L115.817 175.947C115.817 175.84 115.996 175.751 116.174 175.751H117.066C117.244 175.751 117.378 175.849 117.36 175.965L116.763 179.827C116.754 179.943 116.593 180.032 116.406 180.032Z" fill="#263238"/>
<path d="M138.34 180.461H137.448C137.27 180.461 137.136 180.362 137.154 180.246L137.752 176.384C137.752 176.268 137.93 176.179 138.117 176.179H139.009C139.188 176.179 139.322 176.277 139.304 176.393L138.706 180.255C138.679 180.371 138.519 180.461 138.34 180.461Z" fill="#263238"/>
<path d="M154.379 135.325C156.011 138.795 157.831 142.399 159.73 145.815C161.534 149.202 163.588 152.449 165.876 155.529C166.162 155.895 166.447 156.269 166.679 156.537C166.911 156.805 167.205 157.126 167.509 157.429C168.133 158.037 168.794 158.606 169.489 159.133C170.985 160.262 172.556 161.291 174.19 162.21C177.61 164.14 181.14 165.87 184.76 167.393L183.672 171.407C179.471 170.699 175.359 169.542 171.407 167.955C169.35 167.14 167.363 166.158 165.466 165.02C164.468 164.415 163.512 163.744 162.603 163.013C162.13 162.638 161.711 162.219 161.22 161.782C160.73 161.345 160.328 160.89 160.007 160.497C159.24 159.668 158.562 158.82 157.866 157.973C157.17 157.126 156.546 156.243 155.939 155.36C154.691 153.576 153.567 151.792 152.479 150.008C150.309 146.383 148.376 142.623 146.689 138.75L154.379 135.325Z" fill="#FF8B7B"/>
<path d="M150.195 128.938C158.009 130.642 159.9 142.925 159.9 142.925L152.202 151.899C152.202 151.899 139.973 140.303 140.606 133.996C141.025 129.34 145.931 128.011 150.195 128.938Z" fill="#343D63"/>
<path opacity="0.2" d="M150.195 128.938C158.009 130.642 159.9 142.925 159.9 142.925L152.202 151.899C152.202 151.899 139.973 140.303 140.606 133.996C141.025 129.34 145.931 128.011 150.195 128.938Z" fill="black"/>
<path d="M193.796 170.55L191.628 167.99C191.628 167.99 184.635 166.358 181.54 167.874L180.585 170.756L188.399 174.805L190.032 175.572C190.42 175.755 190.861 175.791 191.274 175.675C191.686 175.558 192.044 175.297 192.28 174.939L193.85 172.727C194.082 172.409 194.203 172.023 194.193 171.63C194.184 171.236 194.044 170.856 193.796 170.55Z" fill="#FF8B7B"/>
<path d="M148.839 144.727C150.204 141.088 150.962 136.699 150.623 134.603C150.159 138.331 147.323 143.434 144.477 147.225C139.365 149.268 133.856 150.127 128.364 149.737C122.872 149.348 117.54 147.72 112.767 144.977C110.421 140.231 108.476 132.819 109.707 128.394C108.199 130.642 107.084 136.788 107.798 141.123C105.399 138.67 103.998 135.914 103.989 133.202C103.989 120.17 119.697 120.964 119.911 111.455C120.126 101.947 116.254 82.51 135.646 86.6578C148.348 86.0602 145.69 97.2637 143.621 104.079C141.739 110.367 160.952 134.505 148.839 144.727Z" fill="#263238"/>
<path d="M135.682 86.6577C143.621 82.4207 151.738 89.0929 147.581 96.0773C143.915 95.9167 140.945 98.2448 143.817 102.901C135.299 97.5312 130.08 87.1305 135.682 86.6577Z" fill="#263238"/>
<path d="M144.031 101.688C144.895 103.176 145.258 104.902 145.066 106.612C144.816 108.806 143.104 108.806 141.899 107.504C140.695 106.201 139.696 103.499 140.392 101.822C140.531 101.46 140.774 101.146 141.089 100.921C141.405 100.696 141.78 100.568 142.167 100.554C142.555 100.539 142.938 100.639 143.27 100.841C143.601 101.043 143.866 101.337 144.031 101.688Z" fill="#FF8B7B"/>
</svg>
