<svg width="202" height="124" viewBox="0 0 202 124" fill="none" xmlns="http://www.w3.org/2000/svg">
<g clip-path="url(#clip0)">
<path d="M132.443 123.423H54.4499C51.8923 123.423 49.4394 122.407 47.6309 120.598C45.8224 118.79 44.8064 116.337 44.8064 113.779V78.0465C44.8064 77.5276 44.9121 77.0141 45.1171 76.5374C45.322 76.0607 45.622 75.6308 45.9986 75.2738L87.3273 36.0976C88.9797 34.5313 91.1698 33.6582 93.4466 33.6582C95.7234 33.6582 97.9135 34.5313 99.5659 36.0976L138.971 73.45C139.955 74.3831 140.739 75.507 141.275 76.753C141.81 77.999 142.087 79.3412 142.087 80.6975V113.779C142.087 115.046 141.837 116.3 141.353 117.47C140.868 118.64 140.158 119.703 139.262 120.598C138.367 121.494 137.304 122.204 136.134 122.689C134.964 123.173 133.71 123.423 132.443 123.423Z" fill="#3F3D56"/>
<path opacity="0.1" d="M44.8064 78.6333H141.276V117.6C141.276 119.144 140.663 120.625 139.571 121.717C138.479 122.809 136.997 123.423 135.453 123.423H50.6295C49.0851 123.423 47.604 122.809 46.5119 121.717C45.4199 120.625 44.8064 119.144 44.8064 117.6V78.6333Z" fill="black"/>
<path d="M123.911 47.9291H62.779C59.8485 47.9291 57.4729 50.3047 57.4729 53.2351V114.367C57.4729 117.298 59.8485 119.673 62.779 119.673H123.911C126.842 119.673 129.217 117.298 129.217 114.367V53.2351C129.217 50.3047 126.842 47.9291 123.911 47.9291Z" fill="#0B8CAD"/>
<path opacity="0.1" d="M129.217 80.2445V119.673H57.4729V80.2445L93.345 97.5827L129.217 80.2445Z" fill="black"/>
<path d="M93.3453 99.812L47.3815 77.5962C47.0972 77.4588 46.7827 77.3959 46.4674 77.4132C46.1521 77.4306 45.8464 77.5277 45.5789 77.6955C45.3114 77.8633 45.0909 78.0963 44.9381 78.3726C44.7853 78.649 44.7051 78.9595 44.7051 79.2753V117.498C44.7051 118.263 44.8557 119.02 45.1483 119.727C45.441 120.433 45.8699 121.075 46.4106 121.616C46.9513 122.157 47.5933 122.586 48.2998 122.878C49.0063 123.171 49.7635 123.321 50.5282 123.321H136.162C136.927 123.321 137.684 123.171 138.391 122.878C139.097 122.586 139.739 122.157 140.28 121.616C140.821 121.075 141.25 120.433 141.542 119.727C141.835 119.02 141.985 118.263 141.985 117.498V79.9301C141.985 79.5448 141.888 79.1658 141.701 78.8286C141.515 78.4914 141.246 78.2071 140.919 78.0024C140.593 77.7976 140.22 77.6791 139.835 77.6579C139.45 77.6367 139.066 77.7135 138.719 77.8812L93.3453 99.812Z" fill="#3F3D56"/>
<path d="M83.7184 54.5159H63.6543V57.3532H83.7184V54.5159Z" fill="#F2F2F2"/>
<path d="M121.617 64.8518H62.033V66.4732H121.617V64.8518Z" fill="#F2F2F2"/>
<path d="M121.617 70.3239H62.033V71.9452H121.617V70.3239Z" fill="#F2F2F2"/>
<path d="M121.617 75.7959H62.033V77.4173H121.617V75.7959Z" fill="#F2F2F2"/>
<path d="M141.835 32.9883C141.713 34.0735 140.886 34.9477 140.579 35.9957C140.117 37.5732 140.915 39.266 142.007 40.4945C142.888 41.4753 143.955 42.2716 145.146 42.8371C146.337 43.4026 147.628 43.726 148.945 43.7888C149.332 43.8228 149.722 43.7803 150.092 43.6638C150.423 43.5307 150.721 43.3271 150.965 43.0673C151.787 42.2417 152.229 41.0977 152.405 39.9458C152.581 38.7939 152.512 37.6204 152.444 36.4571C152.444 36.2167 152.4 35.9782 152.315 35.7535C152.203 35.5394 152.048 35.3501 151.862 35.1967C151.27 34.6536 150.618 34.1799 149.918 33.7848C149.602 33.6431 149.323 33.4298 149.104 33.1616C148.972 32.9319 148.886 32.6784 148.852 32.4156L148.637 31.3214C148.599 31.0061 148.491 30.7032 148.322 30.4344C147.943 29.9227 147.217 29.8531 146.581 29.8281L144.249 29.7367C143.524 29.7082 142.568 29.5002 141.86 29.6427C141.199 29.7757 141.418 30.385 141.538 30.9397C141.713 31.6096 141.812 32.2966 141.835 32.9883Z" fill="#A0616A"/>
<path opacity="0.1" d="M141.835 32.9883C141.713 34.0735 140.886 34.9477 140.579 35.9957C140.117 37.5732 140.915 39.266 142.007 40.4945C142.888 41.4753 143.955 42.2716 145.146 42.8371C146.337 43.4026 147.628 43.726 148.945 43.7888C149.332 43.8228 149.722 43.7803 150.092 43.6638C150.423 43.5307 150.721 43.3271 150.965 43.0673C151.787 42.2417 152.229 41.0977 152.405 39.9458C152.581 38.7939 152.512 37.6204 152.444 36.4571C152.444 36.2167 152.4 35.9782 152.315 35.7535C152.203 35.5394 152.048 35.3501 151.862 35.1967C151.27 34.6536 150.618 34.1799 149.918 33.7848C149.602 33.6431 149.323 33.4298 149.104 33.1616C148.972 32.9319 148.886 32.6784 148.852 32.4156L148.637 31.3214C148.599 31.0061 148.491 30.7032 148.322 30.4344C147.943 29.9227 147.217 29.8531 146.581 29.8281L144.249 29.7367C143.524 29.7082 142.568 29.5002 141.86 29.6427C141.199 29.7757 141.418 30.385 141.538 30.9397C141.713 31.6096 141.812 32.2966 141.835 32.9883Z" fill="black"/>
<path d="M156.668 81.8333C156.338 85.4555 156.008 89.077 155.677 92.698C155.419 95.5477 155.155 98.409 154.648 101.222C154.473 102.191 154.267 103.156 154.024 104.112C153.346 106.766 152.364 109.36 152.047 112.082C152.037 112.16 152.028 112.24 152.02 112.32C151.985 112.922 151.871 113.516 151.681 114.089C151.523 114.504 151.279 114.883 151.107 115.293C150.765 116.114 150.72 117.022 150.679 117.911C149.476 117.234 148.158 116.784 146.793 116.583C146.134 116.484 145.4 116.414 144.951 115.922C144.454 115.378 144.509 114.546 144.592 113.815C144.854 111.546 145.116 109.278 145.376 107.011C145.462 106.036 145.627 105.069 145.872 104.122C145.962 103.806 146.07 103.496 146.181 103.186C146.332 102.759 146.486 102.331 146.601 101.893C146.767 101.184 146.883 100.464 146.948 99.7387C147.217 97.4563 147.54 95.1789 147.824 92.8982L147.839 92.7781C148.264 89.3212 148.588 85.8475 148.495 82.3656C148.481 81.85 148.46 81.3345 148.426 80.8173C148.38 80.0682 148.311 79.6711 148.932 79.2023C149.618 78.6851 150.52 78.323 151.304 77.9843C151.726 77.8008 156.375 76.1508 156.483 76.5128C156.701 77.2851 156.816 78.0829 156.823 78.8853C156.827 79.8701 156.775 80.8543 156.668 81.8333Z" fill="#605D82"/>
<path opacity="0.1" d="M154.648 101.222C154.472 102.191 154.267 103.156 154.024 104.112C153.346 106.766 152.364 109.36 152.047 112.082C152.037 112.16 152.028 112.24 152.02 112.32C149.948 109.36 148.203 106.177 146.18 103.186C146.332 102.758 146.486 102.331 146.601 101.893C146.767 101.184 146.883 100.464 146.948 99.7387C147.216 97.4563 147.54 95.1789 147.824 92.8982L147.839 92.7781C147.957 93.2623 148.127 93.7326 148.344 94.1812C149.702 96.9408 152.929 98.3355 154.507 100.977C154.556 101.058 154.603 101.14 154.648 101.222Z" fill="black"/>
<path d="M137.833 76.9566C137.902 79.1699 138.256 81.3632 138.609 83.5491L139.339 88.0592C139.738 90.5276 140.154 93.0463 141.322 95.2572C142.196 96.911 143.455 98.3223 144.594 99.806C147.394 103.454 149.497 107.586 152.152 111.34C152.924 112.432 154.027 113.612 155.344 113.384C156.208 113.234 156.836 112.515 157.515 111.96C158.316 111.306 159.282 110.827 159.912 110.007C160.542 109.187 160.666 107.824 159.812 107.241C159.503 107.069 159.175 106.935 158.835 106.841C157.511 106.337 156.654 105.045 156.109 103.738C155.564 102.43 155.234 101.025 154.507 99.8093C152.929 97.1682 149.702 95.7735 148.343 93.013C147.583 91.4668 147.51 89.6848 147.452 87.9626L147.304 83.5724C147.287 83.0923 147.275 82.593 147.47 82.154C147.99 80.9854 149.558 80.8766 150.829 80.7284C152.271 80.5594 153.667 80.1188 154.945 79.4297C155.677 79.0346 156.391 78.5309 156.783 77.7973C157.14 77.1279 157.189 76.3429 157.231 75.5854L157.671 67.6291C157.709 66.9446 157.743 66.2368 157.502 65.5952C156.896 63.9839 154.862 63.4573 153.142 63.5342C149.942 63.6773 146.988 65.0539 143.97 65.9835C143.223 66.2192 142.464 66.4171 141.697 66.5764C141.02 66.7123 140.2 66.656 139.554 66.8737C138.406 67.2609 138.435 69.7727 138.272 70.8147C137.936 72.8439 137.789 74.9001 137.833 76.9566Z" fill="#605D82"/>
<path d="M154.909 113.718C155.192 114.002 155.284 114.419 155.357 114.813C155.765 116.998 155.977 119.216 155.991 121.439C155.972 121.646 156.013 121.855 156.11 122.039C156.19 122.149 156.297 122.236 156.422 122.29C157.237 122.678 158.184 122.137 158.864 121.541C160.123 120.438 161.189 118.956 161.261 117.283C161.248 116.852 161.263 116.421 161.306 115.992C161.417 115.362 161.785 114.813 162.109 114.261C162.66 113.323 163.105 112.325 163.435 111.288C163.559 110.898 163.642 110.407 163.336 110.135C163.228 110.05 163.105 109.986 162.973 109.946L159.289 108.578C158.97 108.46 158.175 110.501 158.049 110.724C157.741 111.269 157.434 111.579 156.815 111.705C156.184 111.834 155.432 111.649 154.842 111.964C153.845 112.497 154.345 113.148 154.909 113.718Z" fill="#535070"/>
<path d="M149.225 114.977C149.156 114.841 149.061 114.72 148.944 114.621C148.774 114.513 148.58 114.447 148.378 114.429C147.677 114.31 146.846 114.232 146.362 114.753C145.908 115.242 145.986 116.038 145.606 116.587C145.486 116.76 145.324 116.903 145.219 117.087C145.09 117.368 145.032 117.676 145.05 117.985C145.03 118.835 145.01 119.686 145.069 120.535C145.118 121.246 145.238 121.991 145.683 122.548C146.396 123.442 147.683 123.57 148.826 123.628L149.751 123.675C150.006 123.706 150.264 123.683 150.509 123.606C150.661 123.536 150.797 123.436 150.909 123.312C151.022 123.189 151.108 123.044 151.163 122.886C151.645 121.689 150.882 120.4 150.412 119.198C149.872 117.817 149.969 116.283 149.225 114.977Z" fill="#535070"/>
<path d="M141.567 26.8737C141.556 26.7523 141.573 26.63 141.619 26.517C141.755 26.2773 142.108 26.3426 142.375 26.4099C143.449 26.6805 144.58 26.4355 145.685 26.4987C146.79 26.562 148.035 27.1145 148.258 28.199C149.06 27.6303 149.751 26.9197 150.298 26.1024C150.605 25.6433 150.872 25.1175 150.831 24.567C150.77 23.773 150.104 23.1791 149.487 22.6755L147.648 21.1744C147.407 20.9526 147.128 20.7754 146.825 20.6509C146.4 20.5058 145.937 20.575 145.489 20.5753C144.15 20.5761 142.723 19.9669 141.532 20.5789C141.035 20.8345 140.661 21.2726 140.3 21.6997L138.659 23.6424C138.535 23.7663 138.445 23.9193 138.396 24.0873C138.35 24.3245 138.472 24.5585 138.514 24.7964C138.592 25.2304 138.405 25.6936 138.548 26.1104C138.787 26.8024 139.627 26.9003 140.141 27.297C140.332 27.4448 140.632 27.9459 140.86 27.9398C141.272 27.9287 141.556 27.1934 141.567 26.8737Z" fill="#3F3D56"/>
<path d="M144.352 32.6003C147.254 32.6003 149.607 30.2474 149.607 27.3448C149.607 24.4423 147.254 22.0894 144.352 22.0894C141.449 22.0894 139.096 24.4423 139.096 27.3448C139.096 30.2474 141.449 32.6003 144.352 32.6003Z" fill="#A0616A"/>
<path d="M145.583 38.8466C145.404 38.3358 145.068 37.8952 144.622 37.5885C144.177 37.2818 143.645 37.125 143.104 37.141C142.949 37.1698 142.79 37.1495 142.647 37.0832C142.566 37.0212 142.502 36.9406 142.459 36.8482C142.14 36.2736 141.883 35.6662 141.693 35.0367C141.609 34.7585 141.494 34.4306 141.213 34.3583C141.096 34.343 140.978 34.3597 140.87 34.4066C140.762 34.4535 140.669 34.5287 140.601 34.6244C140.468 34.8168 140.322 35.0004 140.164 35.1739C139.503 35.7649 138.331 35.2262 137.63 35.7684C137.515 35.857 137.421 35.9705 137.3 36.051C137.18 36.1235 137.05 36.1792 136.914 36.2165C135.56 36.6587 134.232 37.1789 132.937 37.7743C133.403 40.5847 133.882 43.444 134.975 46.0745C135.496 47.3263 136.086 48.5523 136.503 49.8423C137.426 52.7007 137.467 55.759 137.478 58.7628C137.485 60.8187 137.475 62.9185 136.809 64.8638C136.63 65.2937 136.504 65.7437 136.434 66.204C136.394 66.6675 136.529 67.1786 136.904 67.4533C137.122 67.5957 137.371 67.6832 137.63 67.7082C138.782 67.8773 139.944 67.5706 141.079 67.3078C144.121 66.6034 147.223 66.2003 150.319 65.7983L155.507 65.1246C155.879 65.0993 156.243 65.0053 156.581 64.8472C157.53 64.3274 157.62 62.8993 157.031 61.9916C156.748 61.5564 156.349 61.1994 156.112 60.738C155.874 60.2766 155.854 59.6315 156.263 59.3119C157.095 58.6619 156.847 57.4559 156.886 56.4011C156.997 53.4518 156.982 50.5014 156.841 47.5497C156.8 46.9387 156.79 46.326 156.812 45.714C156.904 44.6769 157.096 43.6511 157.384 42.6507L158.961 36.4434C158.549 35.7926 157.76 35.3797 157.013 35.1922C156.266 35.0048 155.488 34.9496 154.753 34.7216C153.246 34.2546 151.904 33.0695 150.33 33.18C150.211 33.1821 150.094 33.2107 149.987 33.2637C149.632 33.4648 149.688 33.9763 149.666 34.3837C149.615 35.2849 148.953 36.0381 148.221 36.5662C147.489 37.0943 146.653 37.4794 145.98 38.0817C145.861 38.1714 145.764 38.2867 145.695 38.4191C145.626 38.5514 145.588 38.6975 145.583 38.8466Z" fill="#3F3D56"/>
<path d="M124.759 44.7344C124.411 44.9605 124.04 45.1511 123.654 45.3032C123.275 45.4158 122.917 45.5894 122.595 45.8171C122.446 45.9457 122.321 46.0998 122.226 46.272C122.049 46.5875 121.959 46.945 121.966 47.3071C121.973 47.6692 122.078 48.0227 122.268 48.3307C122.459 48.6386 122.729 48.8898 123.05 49.0579C123.37 49.2261 123.73 49.305 124.092 49.2865C124.573 49.2327 125.04 49.0933 125.472 48.8752L129.179 47.2689C129.806 46.997 130.484 46.6784 130.78 46.0623C130.815 46.0048 130.828 45.9369 130.816 45.8708C130.786 45.8009 130.732 45.7441 130.664 45.7107C129.828 45.1677 129.097 44.4783 128.506 43.6755C128.354 43.469 128.167 42.9815 127.953 42.8577C127.168 42.4058 125.387 44.3268 124.759 44.7344Z" fill="#A0616A"/>
<path d="M164.386 43.4163L165.752 44.9774C166.046 45.3125 166.339 45.6481 166.607 46.0043C167.264 46.9093 167.79 47.9019 168.172 48.9529C168.469 49.7324 168.716 50.5627 168.612 51.3904C168.543 51.8148 168.428 52.2304 168.27 52.6301C168.02 53.3988 167.709 54.1466 167.341 54.8666C167.032 55.4137 166.683 55.9371 166.296 56.4326C165.238 57.835 164.081 59.1593 162.832 60.3952C162.365 60.8577 162.169 61.6056 161.966 62.2307C161.591 63.3839 160.698 64.282 159.835 65.1336C159.557 65.4265 159.251 65.6904 158.92 65.921C158.424 66.2404 157.844 66.4054 157.255 66.3952C156.996 66.397 156.741 66.3441 156.505 66.24C155.914 65.9595 155.614 65.2764 155.552 64.6254C155.497 64.0346 155.596 63.4396 155.839 62.8985C156.624 61.1613 158.638 60.4085 160.061 59.141C160.896 58.3978 161.534 57.4642 162.163 56.5407C162.591 55.9641 162.948 55.3384 163.227 54.6769C163.545 53.8286 163.421 52.8245 163.699 51.9623C163.816 51.5978 164.025 51.2687 164.151 50.9072C164.277 50.5457 164.309 50.1166 164.088 49.8038C163.922 49.605 163.709 49.4495 163.469 49.3508C162.56 48.8893 161.542 48.2953 161.368 47.2905C161.298 46.7333 161.444 46.1706 161.775 45.7169C162.105 45.2693 162.49 44.8655 162.922 44.5152C163.319 44.1635 163.988 43.7679 164.386 43.4163Z" fill="#A0616A"/>
<path d="M123.881 46.9136C123.64 46.4261 123.338 45.9288 122.851 45.6864C122.615 45.5839 122.361 45.5305 122.104 45.5294C121.846 45.5284 121.591 45.5796 121.354 45.6801C120.882 45.8837 120.44 46.151 120.041 46.4746L118.863 47.3429C118.595 47.5181 118.359 47.7362 118.163 47.9885C117.977 48.2944 117.854 48.634 117.799 48.9878C117.594 49.7947 117.531 50.6312 117.614 51.4597C117.801 52.788 118.602 53.9477 119.483 54.9588C120.034 55.5907 120.714 56.2283 121.552 56.2553C121.913 56.2669 122.316 56.1244 122.466 55.7953C122.518 55.6648 122.546 55.5259 122.548 55.3854C122.638 53.9037 122.108 52.4565 121.49 51.1069C121.293 50.7535 121.177 50.3609 121.149 49.9572C121.145 49.8893 121.162 49.8217 121.199 49.7647C121.253 49.7092 121.324 49.6744 121.401 49.6665C122.246 49.4992 123.704 50.1563 124.297 49.2169C124.682 48.6079 124.155 47.4658 123.881 46.9136Z" fill="#A0616A"/>
<path d="M141.292 25.22C141.28 25.0986 141.298 24.9763 141.344 24.8633C141.479 24.6237 141.833 24.6889 142.1 24.7562C143.173 25.0268 144.304 24.7818 145.41 24.8451C146.515 24.9083 147.76 25.4608 147.982 26.5454C148.784 25.9766 149.476 25.2661 150.023 24.4487C150.33 23.9897 150.597 23.4638 150.555 22.9133C150.495 22.1193 149.829 21.5254 149.212 21.0219L147.373 19.5207C147.132 19.2989 146.853 19.1217 146.55 18.9973C146.125 18.8521 145.662 18.9213 145.213 18.9216C143.875 18.9224 142.448 18.3132 141.257 18.9252C140.76 19.1808 140.385 19.6189 140.025 20.046L138.383 21.9888C138.26 22.1126 138.17 22.2656 138.121 22.4336C138.074 22.6708 138.196 22.9048 138.239 23.1427C138.316 23.5768 138.129 24.04 138.273 24.4567C138.512 25.1487 139.352 25.2466 139.865 25.6433C140.057 25.7911 140.357 26.2922 140.585 26.2861C140.996 26.275 141.281 25.5397 141.292 25.22Z" fill="#3F3D56"/>
<path d="M130.129 39.6225C129.917 39.7594 129.73 39.9327 129.579 40.1346C129.386 40.4259 129.347 40.7937 129.181 41.1013C128.827 41.7595 127.999 41.9936 127.482 42.5336C127.4 42.6078 127.343 42.7057 127.319 42.8137C127.316 42.9603 127.365 43.103 127.458 43.217L129.95 47.1349C130.779 47.2079 131.575 46.6881 132.406 46.7571C132.716 46.7828 133.033 46.8899 133.33 46.7983C133.543 46.704 133.742 46.582 133.923 46.4355C134.418 46.1224 135.078 46.0859 135.493 45.6728C135.892 45.2763 135.943 44.6559 135.938 44.0936C135.945 43.6053 135.895 43.1178 135.79 42.6409C135.423 41.1371 134.273 39.9831 133.552 38.6509C133.201 38.0024 133.01 37.6227 132.267 38.068C131.52 38.5156 130.832 39.1085 130.129 39.6225Z" fill="#3F3D56"/>
<path d="M160.396 37.6412C160.864 37.9454 161.286 38.3152 161.649 38.7394C162.029 39.2289 162.244 39.828 162.609 40.3288C162.962 40.8142 163.443 41.1902 163.844 41.6371C164.452 42.315 164.864 43.142 165.269 43.9579C164.281 45.2463 163.204 46.4638 162.045 47.6013C161.916 47.7532 161.746 47.8649 161.556 47.923C161.426 47.9368 161.295 47.9182 161.174 47.869C161.053 47.8198 160.947 47.7414 160.864 47.6409C160.684 47.4526 160.557 47.2205 160.385 47.0249C159.98 46.6072 159.441 46.3461 158.862 46.288C158.288 46.2326 157.711 46.2246 157.135 46.2643C157.009 46.2783 156.882 46.2569 156.767 46.2023C156.682 46.1434 156.612 46.0641 156.566 45.9716C155.891 44.8234 156.108 43.3819 156.346 42.0716L156.892 39.0649C156.971 38.4907 157.124 37.9291 157.347 37.3939C157.554 36.9517 158.016 36.2019 158.585 36.3343C159.159 36.4677 159.913 37.2942 160.396 37.6412Z" fill="#3F3D56"/>
<path d="M60.4119 57.3833C65.001 57.3833 68.7213 53.6563 68.7213 49.0588C68.7213 44.4614 65.001 40.7344 60.4119 40.7344C55.8228 40.7344 52.1025 44.4614 52.1025 49.0588C52.1025 53.6563 55.8228 57.3833 60.4119 57.3833Z" fill="white"/>
<path d="M60.4119 39.3158C58.4478 39.3158 56.5278 39.8982 54.8947 40.9894C53.2616 42.0806 51.9888 43.6316 51.2371 45.4462C50.4855 47.2608 50.2888 49.2575 50.672 51.1839C51.0552 53.1103 52.001 54.8797 53.3898 56.2686C54.7787 57.6574 56.5482 58.6032 58.4745 58.9864C60.4009 59.3696 62.3976 59.1729 64.2122 58.4213C66.0268 57.6697 67.5778 56.3968 68.669 54.7637C69.7602 53.1306 70.3426 51.2106 70.3426 49.2465C70.3349 46.6151 69.2862 44.0936 67.4255 42.2329C65.5648 40.3722 63.0433 39.3235 60.4119 39.3158ZM58.3733 54.5413L53.2838 49.4518L54.7113 48.0243L58.378 51.691L66.1173 43.9517L67.5448 45.3793L58.3732 54.5413L58.3733 54.5413Z" fill="#57B894"/>
</g>
<defs>
<clipPath id="clip0">
<rect width="201.366" height="123.84" fill="white"/>
</clipPath>
</defs>
</svg>
