<svg width="446" height="446" viewBox="0 0 446 446" fill="none" xmlns="http://www.w3.org/2000/svg">
<path d="M209.843 188.266H380.991C382.006 188.266 382.979 188.669 383.697 189.386C384.415 190.104 384.818 191.077 384.818 192.092V318.203H206.052V192.092C206.052 191.084 206.45 190.116 207.16 189.399C207.87 188.682 208.834 188.275 209.843 188.266Z" fill="#0B8CAD" stroke="#263238" stroke-linecap="round" stroke-linejoin="round"/>
<path d="M220.324 198.131H370.501C371.516 198.131 372.489 198.534 373.207 199.252C373.925 199.97 374.328 200.943 374.328 201.958V319.952H216.506V201.958C216.506 200.944 216.908 199.972 217.624 199.255C218.34 198.538 219.311 198.133 220.324 198.131Z" fill="#263238" stroke="#263238" stroke-linecap="round" stroke-linejoin="round"/>
<path d="M383.078 328.702H198.675C189.015 328.702 181.174 322.851 181.174 315.634H400.606C400.57 322.851 392.739 328.702 383.078 328.702Z" fill="#0B8CAD" stroke="#263238" stroke-linecap="round" stroke-linejoin="round"/>
<path d="M333.929 245.122H247.824C245.361 245.122 243.364 247.118 243.364 249.582V256.584C243.364 259.047 245.361 261.044 247.824 261.044H333.929C336.392 261.044 338.389 259.047 338.389 256.584V249.582C338.389 247.118 336.392 245.122 333.929 245.122Z" fill="white" stroke="#263238" stroke-linecap="round" stroke-linejoin="round"/>
<path d="M294.922 248.012H286.823V258.145H294.922V248.012Z" fill="#0B8CAD" stroke="#263238" stroke-linecap="round" stroke-linejoin="round"/>
<path d="M285.146 248.012H277.046V258.145H285.146V248.012Z" fill="#0B8CAD" stroke="#263238" stroke-linecap="round" stroke-linejoin="round"/>
<path d="M275.36 248.012H267.261V258.145H275.36V248.012Z" fill="#0B8CAD" stroke="#263238" stroke-linecap="round" stroke-linejoin="round"/>
<path d="M265.575 248.012H257.476V258.145H265.575V248.012Z" fill="#0B8CAD" stroke="#263238" stroke-linecap="round" stroke-linejoin="round"/>
<path d="M255.79 247.976H251.803C250.459 247.976 249.17 248.51 248.22 249.46C247.27 250.41 246.736 251.699 246.736 253.043C246.736 254.386 247.27 255.675 248.22 256.625C249.17 257.575 250.459 258.109 251.803 258.109H255.79V247.976Z" fill="#0B8CAD" stroke="#263238" stroke-linecap="round" stroke-linejoin="round"/>
<path d="M304.707 248.012H296.608V258.145H304.707V248.012Z" fill="#0B8CAD" stroke="#263238" stroke-linecap="round" stroke-linejoin="round"/>
<path d="M210.405 197.114H162.299" stroke="#263238" stroke-linecap="round" stroke-linejoin="round"/>
<path d="M210.405 246.62H184.251" stroke="#263238" stroke-linecap="round" stroke-linejoin="round"/>
<path d="M179.114 246.62H168.374" stroke="#263238" stroke-linecap="round" stroke-linejoin="round"/>
<path d="M210.405 228.236H156.698" stroke="#263238" stroke-linecap="round" stroke-linejoin="round"/>
<path d="M210.405 219.37H195.455" stroke="#263238" stroke-linecap="round" stroke-linejoin="round"/>
<path d="M210.405 268.724H156.698" stroke="#263238" stroke-linecap="round" stroke-linejoin="round"/>
<path d="M210.405 288.286H195.455" stroke="#263238" stroke-linecap="round" stroke-linejoin="round"/>
<path d="M177.713 205.526H129.608" stroke="#263238" stroke-linecap="round" stroke-linejoin="round"/>
<path d="M122.142 205.526H111.866" stroke="#263238" stroke-linecap="round" stroke-linejoin="round"/>
<path d="M157.447 295.457C157.255 294.561 157.25 293.636 157.43 292.738C157.61 291.84 157.973 290.988 158.495 290.236C159.018 289.483 159.689 288.846 160.468 288.363C161.246 287.881 162.116 287.563 163.022 287.429C169.979 285.859 171.05 294.217 171.202 296.305L157.447 295.457Z" fill="#0B8CAD" stroke="#263238" stroke-linecap="round" stroke-linejoin="round"/>
<path d="M170.675 291.283H164.235V293.022L171.202 296.331C171.482 294.632 171.3 292.888 170.675 291.283Z" fill="#263238" stroke="#263238" stroke-miterlimit="10"/>
<path d="M63.6442 277.706V309.729C63.6442 309.729 75.4721 313.556 84.6954 317.392C91.2331 320.198 97.625 323.333 103.847 326.784H207.925C207.925 326.784 197.828 327.132 196.088 325.571C194.349 324.01 194.697 320.522 197.828 318.435C200.959 316.348 218.888 315.652 218.888 315.652C218.888 315.652 282.586 312.164 282.933 311.121C283.281 310.077 283.281 309.212 281.72 308.686C280.159 308.159 254.068 300.506 234.551 297.892C215.034 295.279 197.828 296.331 193.823 297.545C189.818 298.758 179.203 297.197 171.897 295.805C167.41 294.958 162.877 294.377 158.321 294.066V287.625H151.881V285.717H154.494V276.663C148.874 276.02 143.181 276.555 137.778 278.233C128.858 281.016 119.51 290.409 112.544 294.414C105.577 298.419 97.7543 300.506 93.9276 300.506C91.7366 300.534 89.5574 300.181 87.4873 299.462V292.505L90.7877 289.017V275.967H74.4284C74.4284 275.967 74.259 279.098 71.4759 279.276C68.6929 279.455 63.6442 277.706 63.6442 277.706Z" fill="white" stroke="#263238" stroke-miterlimit="10"/>
<path d="M87.4873 292.728V292.505L90.7877 289.017V275.967H74.4284C74.4284 275.967 74.259 279.098 71.4759 279.276C68.6929 279.455 63.6442 277.706 63.6442 277.706V307.811C67.3727 303.28 74.4017 297.429 87.4873 292.728Z" fill="#0B8CAD" stroke="#263238" stroke-linecap="round" stroke-linejoin="round"/>
<path d="M120.375 313.199H111.794L122.802 326.784H132.328L120.375 313.199Z" fill="#0B8CAD" stroke="#263238" stroke-linecap="round" stroke-linejoin="round"/>
<path d="M134.728 313.199H126.156L137.154 326.784H146.68L134.728 313.199Z" fill="#0B8CAD" stroke="#263238" stroke-linecap="round" stroke-linejoin="round"/>
<path d="M178.73 321.691C171.032 319.764 166.697 313.502 163.325 307.241C159.953 300.979 152.006 294.753 149.356 294.967C146.707 295.181 140.695 296.171 140.695 296.171C140.695 296.171 138.528 295.208 130.098 290.15C127.858 288.808 125.462 287.748 122.962 286.992C119.723 289.574 116.356 291.992 112.874 294.235C114.515 294.271 116.412 294.354 118.565 294.485C126.512 294.967 128.921 299.302 128.921 299.302C130.669 298.986 132.442 298.824 134.219 298.82C137.109 298.82 146.011 306.277 148.179 313.984C149.571 318.935 154.146 323.885 157.233 326.784H199.719C192.253 324.991 182.994 322.752 178.73 321.691Z" fill="#0B8CAD" stroke="#263238" stroke-linecap="round" stroke-linejoin="round"/>
<path d="M207.925 326.784H203.296C205.775 326.865 207.925 326.784 207.925 326.784Z" fill="#263238" stroke="#263238" stroke-miterlimit="10"/>
<path d="M197.828 318.444C200.959 316.357 218.888 315.661 218.888 315.661C218.888 315.661 241.714 314.412 260.116 313.181C248.475 312.566 213.937 310.88 206.007 312.173C196.436 313.743 177.811 317.748 167.366 322.271C156.921 326.793 143.701 322.449 118.467 319.488C100.627 317.391 85.4625 315.643 78.1035 314.805C80.3246 315.634 82.5635 316.517 84.6954 317.4C91.2331 320.207 97.625 323.342 103.847 326.793H203.296C200.397 326.713 197.052 326.418 196.088 325.58C194.349 324.001 194.697 320.522 197.828 318.444Z" fill="#263238" stroke="#263238" stroke-miterlimit="10"/>
<path d="M236.068 328.702C245.63 328.702 253.381 320.95 253.381 311.388C253.381 301.826 245.63 294.074 236.068 294.074C226.506 294.074 218.754 301.826 218.754 311.388C218.754 320.95 226.506 328.702 236.068 328.702Z" fill="#263238"/>
<g opacity="0.31">
<path opacity="0.31" d="M250.456 301.746L235.845 310.987L253.051 307.972C252.606 305.746 251.723 303.63 250.456 301.746Z" fill="white"/>
<path opacity="0.31" d="M221.109 320.094L236.068 311.388L218.915 313.743C219.217 315.985 219.963 318.144 221.109 320.094Z" fill="white"/>
</g>
<path d="M220.208 318.328L229.03 313.814L219.271 315.598C219.504 316.534 219.818 317.447 220.208 318.328Z" fill="white"/>
<path d="M242.785 308.302L252.597 306.232C252.284 305.232 251.881 304.261 251.392 303.333L242.785 308.302Z" fill="white"/>
<path d="M236.068 321.566C241.689 321.566 246.246 317.009 246.246 311.388C246.246 305.767 241.689 301.21 236.068 301.21C230.447 301.21 225.89 305.767 225.89 311.388C225.89 317.009 230.447 321.566 236.068 321.566Z" fill="#0B8CAD" stroke="#263238" stroke-linecap="round" stroke-linejoin="round"/>
<path d="M236.068 314.082C237.555 314.082 238.762 312.876 238.762 311.388C238.762 309.9 237.555 308.694 236.068 308.694C234.58 308.694 233.374 309.9 233.374 311.388C233.374 312.876 234.58 314.082 236.068 314.082Z" fill="#263238"/>
<path d="M259.617 313.386L263.613 318.087H274.584L271.971 312.164L259.617 313.386Z" fill="#263238" stroke="#263238" stroke-miterlimit="10"/>
<path d="M258.225 317.739V326.267H286.243V318.952C286.243 318.952 279.276 318.435 272.319 317.213C265.361 315.991 259.786 316.517 258.225 317.739Z" fill="white" stroke="#263238" stroke-miterlimit="10"/>
<path d="M197.132 316.169V324.875H177.115V322.44C177.115 322.44 183.208 321.396 186.339 319.3C189.47 317.204 191.566 316 197.132 316.169Z" fill="white" stroke="#263238" stroke-miterlimit="10"/>
<path d="M190.165 301.728H182.334C182.334 301.728 179.033 302.424 179.381 305.376C179.729 308.329 182.164 311.62 183.556 311.62H196.24" stroke="#263238" stroke-linecap="round" stroke-linejoin="round"/>
<path d="M182.334 305.064C183.226 301.068 186.169 302.112 186.169 302.112L185.67 301.764H182.334C182.334 301.764 179.033 302.459 179.381 305.412C179.729 308.364 182.164 311.656 183.556 311.656C182.904 310.703 182.459 309.624 182.248 308.489C182.038 307.354 182.067 306.187 182.334 305.064Z" fill="#263238" stroke="#263238" stroke-linecap="round" stroke-linejoin="round"/>
<path d="M101.411 307.472C111.331 305.902 129.955 299.293 129.955 299.293C142.836 293.941 158.33 294.066 158.33 294.066" stroke="#263238" stroke-miterlimit="10"/>
<path d="M94.097 311.469C94.097 311.469 124.211 305.724 147.876 301.728C171.54 297.732 184.778 299.81 189.8 298.945C194.822 298.08 197.631 296.679 202.163 296.501" stroke="#263238" stroke-miterlimit="10"/>
<path d="M153.094 276.52L151.354 273.728C151.354 273.728 153.451 272.515 150.837 272.337C148.224 272.158 145.093 272.337 144.745 273.032C144.397 273.728 147.01 273.559 147.01 273.559V276.52H153.094Z" fill="#263238" stroke="#263238" stroke-miterlimit="10"/>
<path d="M90.529 328.702C100.091 328.702 107.843 320.95 107.843 311.388C107.843 301.826 100.091 294.074 90.529 294.074C80.9669 294.074 73.2153 301.826 73.2153 311.388C73.2153 320.95 80.9669 328.702 90.529 328.702Z" fill="#263238"/>
<g opacity="0.31">
<path opacity="0.31" d="M104.917 301.746L90.306 310.987L107.513 307.972C107.063 305.747 106.181 303.631 104.917 301.746Z" fill="white"/>
<path opacity="0.31" d="M75.5702 320.094L90.529 311.388L73.3759 313.743C73.6782 315.985 74.4242 318.144 75.5702 320.094Z" fill="white"/>
</g>
<path d="M74.6693 318.328L83.4911 313.814L73.7327 315.598C73.9655 316.534 74.2788 317.447 74.6693 318.328Z" fill="white"/>
<path d="M97.228 308.302L107.04 306.232C106.728 305.232 106.324 304.261 105.836 303.333L97.228 308.302Z" fill="white"/>
<path d="M90.529 321.566C96.15 321.566 100.707 317.009 100.707 311.388C100.707 305.767 96.15 301.21 90.529 301.21C84.908 301.21 80.3513 305.767 80.3513 311.388C80.3513 317.009 84.908 321.566 90.529 321.566Z" fill="#0B8CAD" stroke="#263238" stroke-linecap="round" stroke-linejoin="round"/>
<path d="M90.529 314.082C92.0168 314.082 93.2229 312.876 93.2229 311.388C93.2229 309.9 92.0168 308.694 90.529 308.694C89.0413 308.694 87.8352 309.9 87.8352 311.388C87.8352 312.876 89.0413 314.082 90.529 314.082Z" fill="#263238"/>
<path d="M144.718 280.837H118.565" stroke="#263238" stroke-linecap="round" stroke-linejoin="round"/>
<path d="M67.0695 288.651H40.916" stroke="#263238" stroke-linecap="round" stroke-linejoin="round"/>
<path d="M67.0695 299.596H52.2712" stroke="#263238" stroke-linecap="round" stroke-linejoin="round"/>
<path d="M121.794 289.695H106.995" stroke="#263238" stroke-linecap="round" stroke-linejoin="round"/>
<path d="M113.427 280.837H102.687" stroke="#263238" stroke-linecap="round" stroke-linejoin="round"/>
<path d="M31.9336 328.702H415.52" stroke="url(#paint0_linear)" stroke-width="3" stroke-linecap="round" stroke-linejoin="round"/>
<defs>
<linearGradient id="paint0_linear" x1="217.465" y1="328.251" x2="217.46" y2="330.186" gradientUnits="userSpaceOnUse">
<stop stop-color="#3D639D" stop-opacity="0.7"/>
<stop offset="1" stop-color="#343D63"/>
</linearGradient>
</defs>
</svg>
